<?xml version="1.0" encoding="utf-8"?>
<!-- Generator: Adobe Illustrator 14.0.0, SVG Export Plug-In . SVG Version: 6.00 Build 43363)  -->
<!DOCTYPE svg PUBLIC "-//W3C//DTD SVG 1.1//EN" "http://www.w3.org/Graphics/SVG/1.1/DTD/svg11.dtd">
<svg version="1.1" id="Layer_1" xmlns="http://www.w3.org/2000/svg" xmlns:xlink="http://www.w3.org/1999/xlink" x="0px" y="0px"
	 width="32.836px" height="21.907px" viewBox="0 0 32.836 21.907" enable-background="new 0 0 32.836 21.907" xml:space="preserve">
<g>
	<defs>
		<rect id="SVGID_1_" y="0" width="32.836" height="21.907"/>
	</defs>
	<clipPath id="SVGID_2_">
		<use xlink:href="#SVGID_1_"  overflow="visible"/>
	</clipPath>
	<path clip-path="url(#SVGID_2_)" fill="#002B49" d="M32.082,21.907H0.754C0.338,21.907,0,21.569,0,21.153V0.754
		C0,0.338,0.338,0,0.754,0c0.417,0,0.755,0.338,0.755,0.754v19.645h30.573c0.417,0,0.754,0.337,0.754,0.754
		C32.836,21.569,32.499,21.907,32.082,21.907"/>
	<path clip-path="url(#SVGID_2_)" fill="#002B49" d="M5.059,17.785c-0.18,0-0.361-0.064-0.505-0.194
		c-0.31-0.278-0.334-0.755-0.055-1.064l8.294-9.209c0.27-0.298,0.726-0.333,1.036-0.08l7.669,6.236l7.828-11.015
		c0.241-0.34,0.712-0.419,1.052-0.177c0.339,0.241,0.419,0.711,0.178,1.051l-8.294,11.671c-0.121,0.17-0.307,0.282-0.513,0.31
		c-0.207,0.029-0.416-0.029-0.578-0.161l-7.738-6.292l-7.814,8.677C5.471,17.701,5.265,17.785,5.059,17.785"/>
	<path clip-path="url(#SVGID_2_)" fill="#D2D0CE" d="M27.8,2.895c0-1.182,0.958-2.141,2.141-2.141s2.142,0.959,2.142,2.141
		s-0.959,2.141-2.142,2.141S27.8,4.077,27.8,2.895"/>
	<path clip-path="url(#SVGID_2_)" fill="#002B49" d="M29.94,1.508c-0.764,0-1.387,0.622-1.387,1.387s0.623,1.387,1.387,1.387
		c0.765,0,1.388-0.622,1.388-1.387S30.705,1.508,29.94,1.508 M29.94,5.79c-1.597,0-2.895-1.299-2.895-2.895
		C27.046,1.299,28.344,0,29.94,0c1.598,0,2.896,1.299,2.896,2.895C32.836,4.491,31.538,5.79,29.94,5.79"/>
	<path clip-path="url(#SVGID_2_)" fill="#D2D0CE" d="M11.212,7.822c0-1.182,0.959-2.141,2.141-2.141
		c1.182,0,2.141,0.959,2.141,2.141c0,1.182-0.959,2.141-2.141,2.141C12.171,9.962,11.212,9.003,11.212,7.822"/>
	<path clip-path="url(#SVGID_2_)" fill="#002B49" d="M13.353,6.435c-0.764,0-1.387,0.622-1.387,1.387
		c0,0.765,0.623,1.387,1.387,1.387c0.764,0,1.387-0.622,1.387-1.387C14.74,7.057,14.117,6.435,13.353,6.435 M13.353,10.717
		c-1.597,0-2.895-1.299-2.895-2.895c0-1.596,1.298-2.895,2.895-2.895c1.597,0,2.895,1.299,2.895,2.895
		C16.248,9.417,14.95,10.717,13.353,10.717"/>
	<path clip-path="url(#SVGID_2_)" fill="#D2D0CE" d="M2.917,17.031c0-1.183,0.958-2.142,2.141-2.142
		c1.182,0,2.141,0.959,2.141,2.142c0,1.182-0.959,2.141-2.141,2.141C3.875,19.171,2.917,18.212,2.917,17.031"/>
	<path clip-path="url(#SVGID_2_)" fill="#002B49" d="M5.059,15.643c-0.764,0-1.387,0.622-1.387,1.388
		c0,0.765,0.623,1.387,1.387,1.387c0.764,0,1.387-0.622,1.387-1.387C6.446,16.265,5.823,15.643,5.059,15.643 M5.059,19.925
		c-1.597,0-2.895-1.299-2.895-2.895c0-1.597,1.298-2.896,2.895-2.896c1.597,0,2.895,1.299,2.895,2.896
		C7.954,18.626,6.656,19.925,5.059,19.925"/>
	<path clip-path="url(#SVGID_2_)" fill="#D2D0CE" d="M19.506,14.566c0-1.183,0.958-2.142,2.141-2.142s2.142,0.959,2.142,2.142
		c0,1.182-0.959,2.141-2.142,2.141S19.506,15.748,19.506,14.566"/>
	<path clip-path="url(#SVGID_2_)" fill="#002B49" d="M21.646,13.179c-0.764,0-1.387,0.621-1.387,1.387
		c0,0.765,0.623,1.387,1.387,1.387c0.765,0,1.388-0.622,1.388-1.387C23.034,13.8,22.411,13.179,21.646,13.179 M21.646,17.46
		c-1.597,0-2.895-1.299-2.895-2.895s1.298-2.896,2.895-2.896c1.598,0,2.896,1.3,2.896,2.896S23.244,17.46,21.646,17.46"/>
	<path clip-path="url(#SVGID_2_)" fill="#002B49" d="M32.082,16.138H25.97c-0.417,0-0.754-0.338-0.754-0.754
		c0-0.417,0.337-0.754,0.754-0.754h6.112c0.417,0,0.754,0.337,0.754,0.754C32.836,15.8,32.499,16.138,32.082,16.138"/>
	<path clip-path="url(#SVGID_2_)" fill="#002B49" d="M17.5,16.138H9.536c-0.417,0-0.754-0.338-0.754-0.754
		c0-0.417,0.337-0.754,0.754-0.754H17.5c0.417,0,0.754,0.337,0.754,0.754C18.254,15.8,17.917,16.138,17.5,16.138"/>
	<path clip-path="url(#SVGID_2_)" fill="#002B49" d="M25.42,3.649H0.754C0.337,3.649,0,3.311,0,2.895
		c0-0.417,0.338-0.754,0.755-0.754H25.42c0.417,0,0.754,0.337,0.754,0.754C26.174,3.311,25.837,3.649,25.42,3.649"/>
	<path clip-path="url(#SVGID_2_)" fill="#002B49" d="M32.082,9.893h-3.881c-0.417,0-0.755-0.338-0.755-0.754
		c0-0.417,0.338-0.754,0.755-0.754h3.881c0.417,0,0.754,0.337,0.754,0.754C32.836,9.555,32.499,9.893,32.082,9.893"/>
	<path clip-path="url(#SVGID_2_)" fill="#002B49" d="M22.896,9.893h-4.72c-0.417,0-0.754-0.338-0.754-0.754
		c0-0.417,0.337-0.754,0.754-0.754h4.72c0.417,0,0.754,0.337,0.754,0.754C23.65,9.555,23.313,9.893,22.896,9.893"/>
	<path clip-path="url(#SVGID_2_)" fill="#002B49" d="M8.515,9.893H0.754C0.337,9.893,0,9.555,0,9.139
		c0-0.417,0.337-0.754,0.754-0.754h7.761c0.417,0,0.754,0.337,0.754,0.754C9.269,9.555,8.932,9.893,8.515,9.893"/>
</g>
</svg>
