<?xml version="1.0" encoding="utf-8"?>
<!-- Generator: Adobe Illustrator 14.0.0, SVG Export Plug-In . SVG Version: 6.00 Build 43363)  -->
<!DOCTYPE svg PUBLIC "-//W3C//DTD SVG 1.1//EN" "http://www.w3.org/Graphics/SVG/1.1/DTD/svg11.dtd">
<svg version="1.1" id="Layer_1" xmlns="http://www.w3.org/2000/svg" xmlns:xlink="http://www.w3.org/1999/xlink" x="0px" y="0px"
	 width="18.723px" height="31.285px" viewBox="0 0 18.723 31.285" enable-background="new 0 0 18.723 31.285" xml:space="preserve">
<g>
	<defs>
		<rect id="SVGID_1_" width="18.723" height="31.285"/>
	</defs>
	<clipPath id="SVGID_2_">
		<use xlink:href="#SVGID_1_"  overflow="visible"/>
	</clipPath>
	<path clip-path="url(#SVGID_2_)" fill="#002B49" d="M1.508,29.777h15.707V1.509H1.508V29.777z M17.969,31.285H0.754
		C0.337,31.285,0,30.948,0,30.531V0.754C0,0.338,0.337,0,0.754,0h17.215c0.417,0,0.754,0.338,0.754,0.754v29.777
		C18.723,30.948,18.386,31.285,17.969,31.285"/>
</g>
<rect x="3.519" y="3.57" fill="#D2D0CE" width="11.685" height="20.723"/>
<g>
	<defs>
		<rect id="SVGID_3_" width="18.723" height="31.285"/>
	</defs>
	<clipPath id="SVGID_4_">
		<use xlink:href="#SVGID_3_"  overflow="visible"/>
	</clipPath>
	<path clip-path="url(#SVGID_4_)" fill="#002B49" d="M4.273,23.539h10.176V4.324H4.273V23.539z M15.204,25.047H3.52
		c-0.417,0-0.754-0.337-0.754-0.754V3.57c0-0.417,0.337-0.755,0.754-0.755h11.685c0.417,0,0.754,0.338,0.754,0.755v20.723
		C15.958,24.71,15.621,25.047,15.204,25.047"/>
	<path clip-path="url(#SVGID_4_)" fill="#002B49" d="M11.153,28.01H7.571c-0.417,0-0.754-0.338-0.754-0.755s0.337-0.754,0.754-0.754
		h3.583c0.417,0,0.754,0.337,0.754,0.754S11.57,28.01,11.153,28.01"/>
</g>
</svg>
