<?xml version="1.0" encoding="utf-8"?>
<!-- Generator: Adobe Illustrator 14.0.0, SVG Export Plug-In . SVG Version: 6.00 Build 43363)  -->
<!DOCTYPE svg PUBLIC "-//W3C//DTD SVG 1.1//EN" "http://www.w3.org/Graphics/SVG/1.1/DTD/svg11.dtd">
<svg version="1.1" id="Layer_1" xmlns="http://www.w3.org/2000/svg" xmlns:xlink="http://www.w3.org/1999/xlink" x="0px" y="0px"
	 width="25.641px" height="32.417px" viewBox="0 0 25.641 32.417" enable-background="new 0 0 25.641 32.417" xml:space="preserve">
<g>
	<defs>
		<rect id="SVGID_1_" y="0" width="25.642" height="32.417"/>
	</defs>
	<clipPath id="SVGID_2_">
		<use xlink:href="#SVGID_1_"  overflow="visible"/>
	</clipPath>
	<path clip-path="url(#SVGID_2_)" fill="#002B49" d="M1.509,6.888v5.294c-0.004,0.169-0.207,15.139,11.312,18.694
		C24.339,27.321,24.136,12.351,24.132,12.2c0-0.006,0-0.012,0-0.018V6.888L12.821,4.53L1.509,6.888z M12.821,32.417
		c-0.071,0-0.143-0.01-0.212-0.031C-0.241,28.624-0.003,12.328,0,12.164V6.274c0-0.357,0.25-0.666,0.6-0.739l12.066-2.513
		C12.769,3,12.873,3,12.975,3.022l12.066,2.513c0.351,0.073,0.601,0.382,0.601,0.739v5.902c0.008,0.53,0.092,16.491-12.608,20.21
		C12.964,32.408,12.892,32.417,12.821,32.417"/>
	<path clip-path="url(#SVGID_2_)" fill="#002B49" d="M21.852,6.396c-0.416,0-0.754-0.338-0.754-0.754V3.249l-8.277-1.724
		L4.544,3.249v2.393c0,0.416-0.338,0.754-0.754,0.754c-0.417,0-0.754-0.338-0.754-0.754V2.636c0-0.357,0.251-0.665,0.6-0.738
		l9.031-1.882c0.102-0.021,0.206-0.021,0.308,0l9.031,1.882c0.349,0.073,0.6,0.381,0.6,0.738v3.006
		C22.606,6.058,22.269,6.396,21.852,6.396"/>
	<path clip-path="url(#SVGID_2_)" fill="#D2D0CE" d="M19.046,19.338c0,3.438-2.787,6.226-6.226,6.226
		c-3.438,0-6.225-2.788-6.225-6.226v-5.35h12.451V19.338z"/>
	<path clip-path="url(#SVGID_2_)" fill="#002B49" d="M7.35,14.744v4.594c0,3.018,2.454,5.473,5.471,5.473
		c3.017,0,5.472-2.455,5.472-5.473v-4.594H7.35z M12.821,26.318c-3.848,0-6.979-3.131-6.979-6.98V13.99
		c0-0.417,0.337-0.754,0.754-0.754h12.451c0.416,0,0.754,0.337,0.754,0.754v5.348C19.8,23.187,16.669,26.318,12.821,26.318"/>
	<path clip-path="url(#SVGID_2_)" fill="#002B49" d="M12.821,16.459c-0.872,0-1.578,0.707-1.578,1.578
		c0,0.602,0.336,1.123,0.831,1.39v2.681h1.495v-2.681c0.494-0.267,0.83-0.788,0.83-1.39C14.399,17.167,13.693,16.459,12.821,16.459"
		/>
	<path clip-path="url(#SVGID_2_)" fill="#002B49" d="M9.655,14.744c-0.417,0-0.754-0.338-0.754-0.754v-2.721
		c0-2.161,1.759-3.92,3.92-3.92c2.162,0,3.921,1.759,3.921,3.92v0.7c0,0.416-0.338,0.754-0.755,0.754
		c-0.416,0-0.754-0.338-0.754-0.754v-0.7c0-1.33-1.082-2.412-2.412-2.412s-2.412,1.082-2.412,2.412v2.721
		C10.409,14.405,10.071,14.744,9.655,14.744"/>
</g>
</svg>
