<?xml version="1.0" encoding="utf-8"?>
<!-- Generator: Adobe Illustrator 14.0.0, SVG Export Plug-In . SVG Version: 6.00 Build 43363)  -->
<!DOCTYPE svg PUBLIC "-//W3C//DTD SVG 1.1//EN" "http://www.w3.org/Graphics/SVG/1.1/DTD/svg11.dtd">
<svg version="1.1" id="Layer_1" xmlns="http://www.w3.org/2000/svg" xmlns:xlink="http://www.w3.org/1999/xlink" x="0px" y="0px"
	 width="28.144px" height="37.446px" viewBox="0 0 28.144 37.446" enable-background="new 0 0 28.144 37.446" xml:space="preserve">
<g>
	<defs>
		<rect id="SVGID_1_" width="28.144" height="37.446"/>
	</defs>
	<clipPath id="SVGID_2_">
		<use xlink:href="#SVGID_1_"  overflow="visible"/>
	</clipPath>
	<path clip-path="url(#SVGID_2_)" fill="#002B49" d="M1.509,32.181h25.126V1.508H1.509V32.181z M27.39,33.689H0.754
		C0.338,33.689,0,33.352,0,32.935V0.754C0,0.337,0.338,0,0.754,0H27.39c0.416,0,0.754,0.337,0.754,0.754v32.181
		C28.144,33.352,27.806,33.689,27.39,33.689"/>
</g>
<polyline fill="#FFFFFF" points="21.303,4.687 16.943,4.687 16.943,11.121 23.377,11.121 23.377,8.74 "/>
<g>
	<defs>
		<rect id="SVGID_3_" width="28.144" height="37.446"/>
	</defs>
	<clipPath id="SVGID_4_">
		<use xlink:href="#SVGID_3_"  overflow="visible"/>
	</clipPath>
	<path clip-path="url(#SVGID_4_)" fill="#002B49" d="M23.377,11.876h-6.435c-0.417,0-0.755-0.337-0.755-0.754V4.687
		c0-0.416,0.338-0.754,0.755-0.754h4.36c0.417,0,0.754,0.338,0.754,0.754c0,0.417-0.337,0.755-0.754,0.755h-3.606v4.926h4.927V8.741
		c0-0.417,0.338-0.754,0.754-0.754s0.754,0.337,0.754,0.754v2.381C24.131,11.539,23.793,11.876,23.377,11.876"/>
	<path clip-path="url(#SVGID_4_)" fill="#D2D0CE" d="M20.16,30.603c0,3.362-2.726,6.088-6.088,6.088
		c-3.363,0-6.088-2.726-6.088-6.088v-5.23H20.16V30.603z"/>
	<path clip-path="url(#SVGID_4_)" fill="#002B49" d="M8.738,26.126v4.478c0,2.94,2.393,5.334,5.334,5.334
		c2.941,0,5.334-2.394,5.334-5.334v-4.478H8.738z M14.072,37.446c-3.773,0-6.842-3.07-6.842-6.842v-5.231
		c0-0.417,0.337-0.754,0.754-0.754H20.16c0.416,0,0.754,0.337,0.754,0.754v5.231C20.914,34.375,17.845,37.446,14.072,37.446"/>
	<path clip-path="url(#SVGID_4_)" fill="#D2D0CE" d="M10.976,21.741c0-1.71,1.386-3.096,3.096-3.096c1.71,0,3.097,1.386,3.097,3.096
		s-1.387,3.096-3.097,3.096C12.361,24.836,10.976,23.451,10.976,21.741"/>
	<path clip-path="url(#SVGID_4_)" fill="#002B49" d="M14.072,19.398c-1.291,0-2.342,1.051-2.342,2.343
		c0,1.291,1.051,2.342,2.342,2.342s2.342-1.051,2.342-2.342C16.414,20.449,15.363,19.398,14.072,19.398 M14.072,25.591
		c-2.123,0-3.851-1.728-3.851-3.851s1.728-3.851,3.851-3.851s3.851,1.728,3.851,3.851S16.195,25.591,14.072,25.591"/>
	<path clip-path="url(#SVGID_4_)" fill="#002B49" d="M20.392,9.79c-0.2,0-0.392-0.08-0.533-0.221l-1.131-1.131
		c-0.295-0.295-0.295-0.772,0-1.067c0.294-0.294,0.771-0.294,1.065,0l0.56,0.559l3.24-3.736c0.272-0.314,0.749-0.349,1.063-0.076
		s0.348,0.75,0.075,1.064l-3.771,4.348c-0.137,0.158-0.334,0.252-0.543,0.259C20.41,9.79,20.401,9.79,20.392,9.79"/>
	<path clip-path="url(#SVGID_4_)" fill="#002B49" d="M13.699,5.441H5.278c-0.416,0-0.754-0.337-0.754-0.754s0.338-0.754,0.754-0.754
		h8.421c0.417,0,0.754,0.337,0.754,0.754S14.116,5.441,13.699,5.441"/>
	<path clip-path="url(#SVGID_4_)" fill="#002B49" d="M13.699,8.722H5.278c-0.416,0-0.754-0.337-0.754-0.754s0.338-0.754,0.754-0.754
		h8.421c0.417,0,0.754,0.337,0.754,0.754S14.116,8.722,13.699,8.722"/>
	<path clip-path="url(#SVGID_4_)" fill="#002B49" d="M13.699,12.002H5.278c-0.416,0-0.754-0.337-0.754-0.754
		c0-0.417,0.338-0.754,0.754-0.754h8.421c0.417,0,0.754,0.337,0.754,0.754C14.453,11.665,14.116,12.002,13.699,12.002"/>
	<path clip-path="url(#SVGID_4_)" fill="#002B49" d="M23.377,15.282H5.278c-0.417,0-0.754-0.337-0.754-0.754
		s0.337-0.754,0.754-0.754h18.099c0.416,0,0.754,0.337,0.754,0.754S23.793,15.282,23.377,15.282"/>
</g>
</svg>
