<?xml version="1.0" encoding="utf-8"?>
<!-- Generator: Adobe Illustrator 14.0.0, SVG Export Plug-In . SVG Version: 6.00 Build 43363)  -->
<!DOCTYPE svg PUBLIC "-//W3C//DTD SVG 1.1//EN" "http://www.w3.org/Graphics/SVG/1.1/DTD/svg11.dtd">
<svg version="1.1" id="Layer_1" xmlns="http://www.w3.org/2000/svg" xmlns:xlink="http://www.w3.org/1999/xlink" x="0px" y="0px"
	 width="36.001px" height="34.953px" viewBox="0 0 36.001 34.953" enable-background="new 0 0 36.001 34.953" xml:space="preserve">
<g>
	<defs>
		<rect id="SVGID_1_" y="-0.001" width="36.001" height="34.954"/>
	</defs>
	<clipPath id="SVGID_2_">
		<use xlink:href="#SVGID_1_"  overflow="visible"/>
	</clipPath>
	<path clip-path="url(#SVGID_2_)" fill="#288DC1" d="M18,34.953c9.941,0,18.001-7.825,18.001-17.477S27.942-0.001,18-0.001
		C8.06-0.001,0,7.824,0,17.476S8.06,34.953,18,34.953"/>
	<path clip-path="url(#SVGID_2_)" fill="#FFFFFF" d="M17.633,7.166c0.481,0,0.871,0.399,0.871,0.893c0,0.493-0.39,0.893-0.871,0.893
		s-0.87-0.4-0.87-0.893C16.763,7.564,17.152,7.166,17.633,7.166 M13.667,10.28h7.939c0.212,0,0.384-0.177,0.381-0.395l-0.015-1.227
		c-0.001-0.105-0.043-0.206-0.117-0.279c-1.097-1.075-2.608-1.746-4.212-1.746V6.629c-1.674,0-3.148,0.673-4.245,1.747
		c-0.076,0.074-0.119,0.178-0.118,0.286l0.007,1.231C13.288,10.108,13.458,10.28,13.667,10.28"/>
	<path clip-path="url(#SVGID_2_)" fill="#FFFFFF" d="M22.837,20.089c0-0.296-0.234-0.537-0.521-0.537h-5.223
		c-0.288,0-0.522,0.241-0.522,0.537s0.234,0.537,0.522,0.537h5.223C22.603,20.626,22.837,20.385,22.837,20.089"/>
	<path clip-path="url(#SVGID_2_)" fill="#FFFFFF" d="M22.315,15.972h-5.222c-0.288,0-0.522,0.241-0.522,0.537
		s0.234,0.537,0.522,0.537h5.222c0.288,0,0.522-0.241,0.522-0.537S22.603,15.972,22.315,15.972"/>
	<path clip-path="url(#SVGID_2_)" fill="#FFFFFF" d="M16.571,12.93c0,0.296,0.234,0.537,0.522,0.537h5.222
		c0.289,0,0.522-0.241,0.522-0.537c0-0.296-0.233-0.537-0.522-0.537h-5.222C16.805,12.393,16.571,12.633,16.571,12.93"/>
	<path clip-path="url(#SVGID_2_)" fill="#FFFFFF" d="M14.888,12.338c0-0.266-0.21-0.482-0.47-0.482h-1.153
		c-0.259,0-0.47,0.216-0.47,0.482v1.183c0,0.267,0.211,0.483,0.47,0.483h1.153c0.26,0,0.47-0.216,0.47-0.483V12.338z"/>
	<path clip-path="url(#SVGID_2_)" fill="#FFFFFF" d="M14.888,19.497c0-0.266-0.21-0.481-0.47-0.481h-1.153
		c-0.259,0-0.47,0.216-0.47,0.481v1.184c0,0.267,0.211,0.482,0.47,0.482h1.153c0.26,0,0.47-0.216,0.47-0.482V19.497z"/>
	<path clip-path="url(#SVGID_2_)" fill="#FFFFFF" d="M14.888,23.077c0-0.266-0.21-0.481-0.47-0.481h-1.153
		c-0.259,0-0.47,0.216-0.47,0.481v1.184c0,0.267,0.211,0.482,0.47,0.482h1.153c0.26,0,0.47-0.216,0.47-0.482V23.077z"/>
	<path clip-path="url(#SVGID_2_)" fill="#FFFFFF" d="M14.888,15.918c0-0.266-0.21-0.482-0.47-0.482h-1.153
		c-0.259,0-0.47,0.216-0.47,0.482v1.183c0,0.267,0.211,0.483,0.47,0.483h1.153c0.26,0,0.47-0.216,0.47-0.483V15.918z"/>
	<path clip-path="url(#SVGID_2_)" fill="#FFFFFF" d="M26.203,24.646l-1.766,1.813c-0.163,0.167-0.426,0.167-0.589,0l-0.883-0.906
		c-0.162-0.167-0.162-0.438,0-0.604c0.163-0.166,0.426-0.166,0.589,0l0.588,0.604l1.472-1.511c0.163-0.167,0.426-0.167,0.589,0
		C26.365,24.208,26.365,24.478,26.203,24.646 M24.584,22.391c-1.538,0-2.785,1.28-2.785,2.858c0,1.579,1.247,2.859,2.785,2.859
		c1.537,0,2.784-1.28,2.784-2.859C27.369,23.671,26.122,22.391,24.584,22.391"/>
	<path clip-path="url(#SVGID_2_)" fill="#FFFFFF" d="M22.818,9.957c0.396,0,0.719,0.342,0.719,0.774v11.3
		c0.314-0.112,0.663-0.175,1.047-0.175V9.98c0-0.645-0.485-1.168-1.078-1.168h-1.007l0.013,1.067
		C22.512,9.906,22.818,9.957,22.818,9.957"/>
	<path clip-path="url(#SVGID_2_)" fill="#FFFFFF" d="M21.553,26.641h-9.138c-0.397,0-0.737-0.375-0.737-0.808V10.73
		c0-0.431,0.331-0.774,0.728-0.774c0,0,0.353-0.041,0.353-0.061l-0.002-1.083h-1.031c-0.593,0-1.094,0.524-1.094,1.168v16.603
		c0,0.646,0.501,1.167,1.094,1.167H22.35C22.013,27.463,21.739,27.07,21.553,26.641"/>
	<path clip-path="url(#SVGID_2_)" fill="#FFFFFF" d="M16.571,23.669c0,0.296,0.234,0.537,0.522,0.537h4.353
		c0.128-0.394,0.325-0.752,0.576-1.074h-4.929C16.805,23.132,16.571,23.373,16.571,23.669"/>
</g>
</svg>
