<?xml version="1.0" encoding="utf-8"?>
<!-- Generator: Adobe Illustrator 14.0.0, SVG Export Plug-In . SVG Version: 6.00 Build 43363)  -->
<!DOCTYPE svg PUBLIC "-//W3C//DTD SVG 1.1//EN" "http://www.w3.org/Graphics/SVG/1.1/DTD/svg11.dtd">
<svg version="1.1" id="Layer_1" xmlns="http://www.w3.org/2000/svg" xmlns:xlink="http://www.w3.org/1999/xlink" x="0px" y="0px"
	 width="36.001px" height="34.953px" viewBox="0 0 36.001 34.953" enable-background="new 0 0 36.001 34.953" xml:space="preserve">
<g>
	<defs>
		<rect id="SVGID_1_" y="-0.001" width="36.001" height="34.954"/>
	</defs>
	<clipPath id="SVGID_2_">
		<use xlink:href="#SVGID_1_"  overflow="visible"/>
	</clipPath>
	<path clip-path="url(#SVGID_2_)" fill="#288DC1" d="M18,34.953c9.941,0,18.001-7.825,18.001-17.477S27.942-0.001,18-0.001
		C8.06-0.001,0,7.824,0,17.476S8.06,34.953,18,34.953"/>
	<path clip-path="url(#SVGID_2_)" fill="#FFFFFF" d="M25.367,17.31c0,4.236-3.298,7.67-7.366,7.67H18
		c-4.068,0-7.365-3.434-7.365-7.67c0-4.236,3.297-7.67,7.365-7.67h0.001C22.069,9.64,25.367,13.074,25.367,17.31 M26.843,17.31
		c0-5.085-3.959-9.207-8.842-9.207H18c-4.883,0-8.842,4.122-8.842,9.207s3.959,9.207,8.842,9.207h0.001
		C22.884,26.517,26.843,22.395,26.843,17.31"/>
	<path clip-path="url(#SVGID_2_)" fill="#FFFFFF" d="M18.397,10.844c0,0.197-0.153,0.356-0.342,0.356h-0.108
		c-0.189,0-0.342-0.159-0.342-0.356V9.43c0-0.196,0.153-0.356,0.342-0.356h0.108c0.189,0,0.342,0.16,0.342,0.356V10.844z"/>
	<path clip-path="url(#SVGID_2_)" fill="#FFFFFF" d="M11.791,16.897c0.189,0,0.342,0.16,0.342,0.357v0.112
		c0,0.197-0.153,0.357-0.342,0.357h-1.358c-0.189,0-0.342-0.16-0.342-0.357v-0.112c0-0.197,0.153-0.357,0.342-0.357H11.791z"/>
	<path clip-path="url(#SVGID_2_)" fill="#FFFFFF" d="M18.397,10.844c0,0.197-0.153,0.356-0.342,0.356h-0.108
		c-0.189,0-0.342-0.159-0.342-0.356V9.43c0-0.196,0.153-0.356,0.342-0.356h0.108c0.189,0,0.342,0.16,0.342,0.356V10.844z"/>
	<path clip-path="url(#SVGID_2_)" fill="#FFFFFF" d="M17.604,23.775c0-0.196,0.153-0.355,0.342-0.355h0.108
		c0.189,0,0.342,0.159,0.342,0.355v1.413c0,0.197-0.153,0.356-0.342,0.356h-0.108c-0.189,0-0.342-0.159-0.342-0.356V23.775z"/>
	<path clip-path="url(#SVGID_2_)" fill="#FFFFFF" d="M18.892,17.987c0.134,0.14,0.134,0.365,0,0.505l-0.077,0.079
		c-0.133,0.14-0.35,0.14-0.484,0l-4.439-4.622c-0.134-0.139-0.133-0.365,0-0.504l0.077-0.08c0.133-0.139,0.35-0.139,0.484,0
		L18.892,17.987z"/>
	<path clip-path="url(#SVGID_2_)" fill="#FFFFFF" d="M17.708,18.571c-0.133,0.14-0.35,0.14-0.484,0l-0.076-0.08
		c-0.134-0.139-0.134-0.363,0-0.504l3.278-3.414c0.135-0.14,0.351-0.14,0.484,0l0.077,0.08c0.133,0.139,0.133,0.364,0,0.503
		L17.708,18.571z"/>
	<path clip-path="url(#SVGID_2_)" fill="#FFFFFF" d="M24.306,17.723c-0.188,0-0.342-0.16-0.342-0.356v-0.113
		c0-0.197,0.153-0.357,0.342-0.357h1.357c0.19,0,0.343,0.16,0.343,0.357v0.113c0,0.196-0.152,0.356-0.343,0.356H24.306z"/>
</g>
</svg>
