<?xml version="1.0" encoding="utf-8"?>
<!-- Generator: Adobe Illustrator 14.0.0, SVG Export Plug-In . SVG Version: 6.00 Build 43363)  -->
<!DOCTYPE svg PUBLIC "-//W3C//DTD SVG 1.1//EN" "http://www.w3.org/Graphics/SVG/1.1/DTD/svg11.dtd">
<svg version="1.1" id="Layer_1" xmlns="http://www.w3.org/2000/svg" xmlns:xlink="http://www.w3.org/1999/xlink" x="0px" y="0px"
	 width="36.001px" height="34.953px" viewBox="0 0 36.001 34.953" enable-background="new 0 0 36.001 34.953" xml:space="preserve">
<g>
	<defs>
		<rect id="SVGID_1_" y="-0.001" width="36.001" height="34.954"/>
	</defs>
	<clipPath id="SVGID_2_">
		<use xlink:href="#SVGID_1_"  overflow="visible"/>
	</clipPath>
	<path clip-path="url(#SVGID_2_)" fill="#FA8D29" d="M18,34.953c9.941,0,18.001-7.825,18.001-17.477S27.942-0.001,18-0.001
		C8.06-0.001,0,7.824,0,17.476S8.06,34.953,18,34.953"/>
	<path clip-path="url(#SVGID_2_)" fill="#FFFFFF" d="M23.253,23.012c1.098-1.262,1.766-2.921,1.766-4.736
		c0-1.826-0.677-3.494-1.784-4.759c1.878,1.032,3.729,2.626,5.539,4.778C28.028,19.23,26.039,21.506,23.253,23.012 M7.229,18.257
		c0.479-0.603,1.471-1.76,2.851-2.904c0.726-0.602,1.628-1.249,2.664-1.808c-1.095,1.262-1.761,2.919-1.761,4.731
		c0,1.826,0.676,3.494,1.785,4.759C10.889,22.003,9.038,20.408,7.229,18.257 M18,24.264c-3.239,0-5.875-2.687-5.875-5.988
		s2.636-5.988,5.875-5.988c3.24,0,5.875,2.686,5.875,5.988S21.241,24.264,18,24.264 M30.304,17.828
		c-3.861-4.761-7.985-7.174-12.258-7.174c-3.02,0-6.122,1.253-8.972,3.623c-1.109,0.923-1.972,1.844-2.501,2.455
		c-0.238,0.275-0.469,0.556-0.668,0.814c-0.283,0.368-0.369,0.479-0.369,0.73v0.251l0.16,0.197
		c3.861,4.761,7.986,7.175,12.258,7.175h0.001c3.021,0,6.122-1.253,8.971-3.624c1.109-0.923,1.974-1.844,2.502-2.455
		c0.238-0.274,0.47-0.556,0.667-0.813c0.284-0.368,0.369-0.479,0.369-0.73v-0.251L30.304,17.828z"/>
	<path clip-path="url(#SVGID_2_)" fill="#FFFFFF" d="M18,20.634c1.302,0,2.358-1.056,2.358-2.357c0-1.303-1.057-2.359-2.358-2.359
		s-2.358,1.056-2.358,2.359C15.643,19.578,16.699,20.634,18,20.634"/>
</g>
</svg>
