<?xml version="1.0" encoding="utf-8"?>
<!-- Generator: Adobe Illustrator 14.0.0, SVG Export Plug-In . SVG Version: 6.00 Build 43363)  -->
<!DOCTYPE svg PUBLIC "-//W3C//DTD SVG 1.1//EN" "http://www.w3.org/Graphics/SVG/1.1/DTD/svg11.dtd">
<svg version="1.1" id="Layer_1" xmlns="http://www.w3.org/2000/svg" xmlns:xlink="http://www.w3.org/1999/xlink" x="0px" y="0px"
	 width="40.727px" height="40.727px" viewBox="0 0 40.727 40.727" enable-background="new 0 0 40.727 40.727" xml:space="preserve">
<polygon fill="#43B2DD" points="14.443,15.182 12.251,15.182 8.849,15.182 8.849,15.426 8.849,15.671 12.251,15.671 14.443,15.671 
	16.204,15.671 16.204,15.426 16.204,15.182 "/>
<polygon fill="#43B2DD" points="12.251,17.112 8.85,17.112 8.85,17.357 8.85,17.602 12.251,17.602 13.202,17.602 13.202,17.357 
	13.202,17.112 "/>
<polygon fill="#43B2DD" points="14.223,17.48 14.223,18.542 16.205,18.542 16.205,17.48 14.443,17.48 "/>
<polygon fill="#43B2DD" points="12.251,18.032 8.85,18.032 8.85,18.277 8.85,18.522 12.251,18.522 13.202,18.522 13.202,18.277 
	13.202,18.032 "/>
<g>
	<g>
		<defs>
			<rect id="SVGID_1_" x="0" y="0" width="40.727" height="40.727"/>
		</defs>
		<clipPath id="SVGID_2_">
			<use xlink:href="#SVGID_1_"  overflow="visible"/>
		</clipPath>
		<path clip-path="url(#SVGID_2_)" fill="#43B2DD" d="M20.363,0C9.117,0,0,9.117,0,20.365C0,31.61,9.117,40.727,20.363,40.727
			s20.363-9.117,20.363-20.362C40.726,9.117,31.609,0,20.363,0 M7.604,19.14v-4.549c0-0.274,0.223-0.496,0.496-0.496h4.151h2.192
			h2.307c0.274,0,0.496,0.222,0.496,0.496v2.889v1.66c0,0.274-0.222,0.497-0.496,0.497h-4.499H8.1
			C7.827,19.637,7.604,19.414,7.604,19.14 M33.024,16.015c-0.272,0.362-0.563,0.554-0.821,0.651v6.182
			c0,1.365-1.108,2.475-2.473,2.475s-2.475-1.108-2.475-2.475v-2.505c0-0.033,0.031-0.759-0.417-1.229
			c-0.2-0.211-0.479-0.344-0.825-0.4v4.834v7.524h1.186v1.55H11.066v-1.55h1.184v-7.524v-3.421h4.5c0.544,0,0.986-0.443,0.986-0.986
			v-1.662h6.086v-6.313h-9.379v2.438H12.25v-3.381c0-1.165,0.953-2.118,2.119-2.118h9.526c1.165,0,2.117,0.953,2.117,2.118v7.508
			c0.637,0.074,1.158,0.308,1.543,0.717c0.738,0.782,0.684,1.88,0.68,1.926l0.002,2.475c0,0.823,0.669,1.493,1.492,1.493
			c0.821,0,1.491-0.67,1.491-1.493v-6.165c-0.49-0.155-0.827-0.496-0.875-0.547c-0.01-0.01-0.219-0.229-1.125-1.006
			c-0.857-0.735-0.646-1.754-0.304-2.409l-0.95-0.943c-0.19-0.19-0.191-0.501-0.001-0.693c0.191-0.191,0.501-0.192,0.693-0.001
			l4.317,4.29C33.151,15.546,33.17,15.82,33.024,16.015"/>
	</g>
</g>
</svg>
