<?xml version="1.0" encoding="iso-8859-1"?>
<!-- Generator: Adobe Illustrator 14.0.0, SVG Export Plug-In . SVG Version: 6.00 Build 43363)  -->
<!DOCTYPE svg PUBLIC "-//W3C//DTD SVG 1.1//EN" "http://www.w3.org/Graphics/SVG/1.1/DTD/svg11.dtd">
<svg version="1.1" id="Layer_1" xmlns="http://www.w3.org/2000/svg" xmlns:xlink="http://www.w3.org/1999/xlink" x="0px" y="0px"
	 width="40.726px" height="40.727px" viewBox="0 0 40.726 40.727" style="enable-background:new 0 0 40.726 40.727;"
	 xml:space="preserve">
<polygon style="fill:#FFFFFF;" points="14.443,15.182 12.251,15.182 8.849,15.182 8.849,15.426 8.849,15.671 12.251,15.671 
	14.443,15.671 16.204,15.671 16.204,15.426 16.204,15.182 "/>
<polygon style="fill:#FFFFFF;" points="12.251,17.112 8.85,17.112 8.85,17.357 8.85,17.602 12.251,17.602 13.202,17.602 
	13.202,17.357 13.202,17.112 "/>
<polygon style="fill:#FFFFFF;" points="14.223,17.48 14.223,18.542 16.205,18.542 16.205,17.48 14.443,17.48 "/>
<polygon style="fill:#FFFFFF;" points="12.251,18.032 8.85,18.032 8.85,18.277 8.85,18.522 12.251,18.522 13.202,18.522 
	13.202,18.277 13.202,18.032 "/>
<g>
	<defs>
		<rect id="SVGID_1_" width="40.726" height="40.727"/>
	</defs>
	<clipPath id="SVGID_2_">
		<use xlink:href="#SVGID_1_"  style="overflow:visible;"/>
	</clipPath>
	<path style="clip-path:url(#SVGID_2_);fill:#FFFFFF;" d="M20.363,0C9.117,0,0,9.117,0,20.364C0,31.61,9.117,40.727,20.363,40.727
		s20.363-9.117,20.363-20.363C40.726,9.117,31.609,0,20.363,0 M7.604,19.14v-4.549c0-0.274,0.223-0.496,0.496-0.496h4.152h2.192
		h2.307c0.274,0,0.496,0.222,0.496,0.496v2.889v1.66c0,0.274-0.222,0.497-0.496,0.497h-4.499H8.1
		C7.827,19.637,7.604,19.414,7.604,19.14 M33.024,16.015c-0.272,0.362-0.562,0.554-0.821,0.651v6.182
		c0,1.365-1.109,2.474-2.473,2.474s-2.474-1.108-2.474-2.474v-2.505c0-0.033,0.031-0.759-0.417-1.229
		c-0.201-0.21-0.479-0.343-0.826-0.4v4.834v7.524h1.186v1.55H11.066v-1.55h1.184v-7.524v-3.421h4.5c0.544,0,0.986-0.443,0.986-0.986
		v-1.662h6.086v-6.313h-9.379v2.438H12.25v-3.381c0-1.165,0.953-2.118,2.119-2.118h9.526c1.165,0,2.117,0.953,2.117,2.118v7.508
		c0.637,0.074,1.159,0.307,1.543,0.716c0.739,0.783,0.684,1.88,0.68,1.926l0.002,2.475c0,0.823,0.669,1.493,1.492,1.493
		c0.822,0,1.491-0.67,1.491-1.493v-6.165c-0.49-0.155-0.827-0.496-0.875-0.547c-0.009-0.01-0.218-0.23-1.125-1.006
		c-0.857-0.735-0.645-1.754-0.303-2.409l-0.95-0.943c-0.191-0.191-0.192-0.501-0.001-0.694c0.191-0.191,0.501-0.192,0.693-0.001
		l4.317,4.29C33.151,15.546,33.17,15.82,33.024,16.015"/>
</g>
</svg>
