<?xml version="1.0" encoding="iso-8859-1"?>
<!-- Generator: Adobe Illustrator 14.0.0, SVG Export Plug-In . SVG Version: 6.00 Build 43363)  -->
<!DOCTYPE svg PUBLIC "-//W3C//DTD SVG 1.1//EN" "http://www.w3.org/Graphics/SVG/1.1/DTD/svg11.dtd">
<svg version="1.1" xmlns="http://www.w3.org/2000/svg" xmlns:xlink="http://www.w3.org/1999/xlink" x="0px" y="0px" width="500px"
	 height="437.75px" viewBox="0 0 500 437.75" style="enable-background:new 0 0 500 437.75;" xml:space="preserve">
<g id="Layer_1" style="display:none;">
	<polyline style="display:inline;fill:none;stroke:#EB9723;stroke-width:2.0294;" points="34.403,131.965 120.579,150.228 
		207.557,131.965 294.536,141.101 381.146,131.965 467.762,136.835 	"/>
	<polyline style="display:inline;fill:none;stroke:#3793C0;stroke-width:2.0294;" points="34.403,148.412 120.579,166.674 
		207.557,118.168 294.536,127.502 381.146,148.412 467.762,127.502 	"/>
	<polyline style="display:inline;fill:none;stroke:#D03E8C;stroke-width:2.0294;" points="34.403,111.606 120.579,129.869 
		207.557,153.259 294.536,113.822 381.146,140.083 467.762,113.822 	"/>
	<g style="display:inline;">
		<defs>
			<rect id="SVGID_1_" x="2.157" y="1" width="497" height="436.75"/>
		</defs>
		<clipPath id="SVGID_2_">
			<use xlink:href="#SVGID_1_"  style="overflow:visible;"/>
		</clipPath>
		<path style="clip-path:url(#SVGID_2_);fill:#FFFFFF;" d="M120.068,153.869c1.958,0,3.546-1.588,3.546-3.545
			c0-1.958-1.588-3.546-3.546-3.546c-1.958,0-3.545,1.588-3.545,3.546C116.523,152.281,118.11,153.869,120.068,153.869"/>
		<circle style="clip-path:url(#SVGID_2_);fill:none;stroke:#EB9723;stroke-width:2.0294;" cx="120.068" cy="150.323" r="3.546"/>
		<path style="clip-path:url(#SVGID_2_);fill:#FFFFFF;" d="M120.068,133.579c1.958,0,3.546-1.588,3.546-3.546
			c0-1.958-1.588-3.544-3.546-3.544c-1.958,0-3.545,1.586-3.545,3.544C116.523,131.991,118.11,133.579,120.068,133.579"/>
		<circle style="clip-path:url(#SVGID_2_);fill:none;stroke:#D03E8C;stroke-width:2.0294;" cx="120.068" cy="130.033" r="3.545"/>
		<path style="clip-path:url(#SVGID_2_);fill:#FFFFFF;" d="M120.068,169.696c1.958,0,3.546-1.588,3.546-3.546
			c0-1.958-1.588-3.544-3.546-3.544c-1.958,0-3.545,1.586-3.545,3.544C116.523,168.108,118.11,169.696,120.068,169.696"/>
		<circle style="clip-path:url(#SVGID_2_);fill:none;stroke:#3793C0;stroke-width:2.0294;" cx="120.068" cy="166.151" r="3.545"/>
		<path style="clip-path:url(#SVGID_2_);fill:#FFFFFF;" d="M207.32,135.607c1.958,0,3.545-1.586,3.545-3.545
			c0-1.958-1.588-3.546-3.545-3.546c-1.958,0-3.547,1.588-3.547,3.546C203.773,134.021,205.362,135.607,207.32,135.607"/>
		<circle style="clip-path:url(#SVGID_2_);fill:none;stroke:#EB9723;stroke-width:2.0294;" cx="207.32" cy="132.061" r="3.546"/>
		<path style="clip-path:url(#SVGID_2_);fill:#FFFFFF;" d="M207.32,157.116c1.958,0,3.545-1.587,3.545-3.547
			c0-1.958-1.588-3.544-3.545-3.544c-1.958,0-3.547,1.586-3.547,3.544C203.773,155.529,205.362,157.116,207.32,157.116"/>
		<circle style="clip-path:url(#SVGID_2_);fill:none;stroke:#D03E8C;stroke-width:2.0294;" cx="207.32" cy="153.571" r="3.545"/>
		<path style="clip-path:url(#SVGID_2_);fill:#FFFFFF;" d="M207.32,121.928c1.958,0,3.545-1.588,3.545-3.547
			c0-1.958-1.588-3.544-3.545-3.544c-1.958,0-3.547,1.586-3.547,3.544C203.773,120.34,205.362,121.928,207.32,121.928"/>
		<circle style="clip-path:url(#SVGID_2_);fill:none;stroke:#3793C0;stroke-width:2.0294;" cx="207.32" cy="118.383" r="3.546"/>
		<path style="clip-path:url(#SVGID_2_);fill:#FFFFFF;" d="M295.19,144.727c1.958,0,3.547-1.587,3.547-3.546
			c0-1.958-1.589-3.544-3.547-3.544s-3.544,1.586-3.544,3.544C291.646,143.14,293.232,144.727,295.19,144.727"/>
		<circle style="clip-path:url(#SVGID_2_);fill:none;stroke:#EB9723;stroke-width:2.0294;" cx="295.19" cy="141.182" r="3.545"/>
		<path style="clip-path:url(#SVGID_2_);fill:#FFFFFF;" d="M295.19,117.367c1.958,0,3.547-1.587,3.547-3.545
			s-1.589-3.544-3.547-3.544s-3.544,1.586-3.544,3.544S293.232,117.367,295.19,117.367"/>
		<circle style="clip-path:url(#SVGID_2_);fill:none;stroke:#D03E8C;stroke-width:2.0294;" cx="295.19" cy="113.822" r="3.545"/>
		<path style="clip-path:url(#SVGID_2_);fill:#FFFFFF;" d="M295.19,131.047c1.958,0,3.547-1.587,3.547-3.545
			c0-1.958-1.589-3.546-3.547-3.546s-3.544,1.587-3.544,3.546C291.646,129.46,293.232,131.047,295.19,131.047"/>
		<circle style="clip-path:url(#SVGID_2_);fill:none;stroke:#3793C0;stroke-width:2.0294;" cx="295.19" cy="127.501" r="3.545"/>
		<path style="clip-path:url(#SVGID_2_);fill:#FFFFFF;" d="M382.229,135.607c1.957,0,3.546-1.586,3.546-3.545
			c0-1.958-1.589-3.546-3.546-3.546c-1.958,0-3.547,1.588-3.547,3.546C378.683,134.021,380.271,135.607,382.229,135.607"/>
		<circle style="clip-path:url(#SVGID_2_);fill:none;stroke:#EB9723;stroke-width:2.0294;" cx="382.229" cy="132.061" r="3.546"/>
		<path style="clip-path:url(#SVGID_2_);fill:#FFFFFF;" d="M382.229,143.627c1.957,0,3.546-1.586,3.546-3.544
			s-1.589-3.546-3.546-3.546c-1.958,0-3.547,1.587-3.547,3.546S380.271,143.627,382.229,143.627"/>
		<circle style="clip-path:url(#SVGID_2_);fill:none;stroke:#D03E8C;stroke-width:2.0294;" cx="382.229" cy="140.082" r="3.545"/>
		<path style="clip-path:url(#SVGID_2_);fill:#FFFFFF;" d="M382.229,152.247c1.957,0,3.546-1.588,3.546-3.547
			c0-1.958-1.589-3.544-3.546-3.544c-1.958,0-3.547,1.586-3.547,3.544C378.683,150.659,380.271,152.247,382.229,152.247"/>
		<circle style="clip-path:url(#SVGID_2_);fill:none;stroke:#3793C0;stroke-width:2.0294;" cx="382.229" cy="148.701" r="3.546"/>
	</g>
	<rect x="33.259" y="27.753" style="display:inline;fill:#EB9723;" width="434.797" height="51.856"/>
	<g style="display:inline;">
		<path style="fill:#FFFFFF;" d="M102.66,53.609c0-3.166,2.315-5.433,5.496-5.433c3.165,0,5.48,2.268,5.48,5.433
			c0,3.165-2.315,5.433-5.48,5.433C104.975,59.042,102.66,56.774,102.66,53.609z M111.337,53.609c0-1.968-1.244-3.449-3.181-3.449
			c-1.953,0-3.197,1.48-3.197,3.449c0,1.953,1.244,3.449,3.197,3.449C110.093,57.058,111.337,55.562,111.337,53.609z"/>
		<path style="fill:#FFFFFF;" d="M119.92,58.853V48.349h4.913c2.284,0,3.527,1.543,3.527,3.386c0,1.827-1.26,3.37-3.527,3.37h-2.677
			v3.748H119.92z M126.077,51.735c0-0.882-0.677-1.417-1.559-1.417h-2.362v2.819h2.362C125.4,53.136,126.077,52.601,126.077,51.735z
			"/>
		<path style="fill:#FFFFFF;" d="M134.471,58.853V48.349h7.433v1.968h-5.196v2.205h5.086v1.968h-5.086v2.394h5.196v1.968H134.471z"
			/>
		<path style="fill:#FFFFFF;" d="M154.297,58.853l-2.063-3.732h-1.638v3.732h-2.236V48.349h4.913c2.189,0,3.543,1.433,3.543,3.386
			c0,1.842-1.181,2.85-2.315,3.118l2.378,4H154.297z M154.518,51.719c0-0.866-0.677-1.402-1.559-1.402h-2.362v2.835h2.362
			C153.841,53.152,154.518,52.617,154.518,51.719z"/>
		<path style="fill:#FFFFFF;" d="M170.47,58.853l-0.662-1.779h-4.503l-0.662,1.779h-2.535l4.047-10.503h2.803l4.047,10.503H170.47z
			 M167.557,50.585l-1.638,4.519h3.275L167.557,50.585z"/>
		<path style="fill:#FFFFFF;" d="M180.124,58.853v-8.535h-3.071v-1.968h8.377v1.968h-3.055v8.535H180.124z"/>
		<path style="fill:#FFFFFF;" d="M191.588,58.853V48.349h2.236v10.503H191.588z"/>
		<path style="fill:#FFFFFF;" d="M200.123,53.609c0-3.166,2.315-5.433,5.496-5.433c3.165,0,5.48,2.268,5.48,5.433
			c0,3.165-2.315,5.433-5.48,5.433C202.438,59.042,200.123,56.774,200.123,53.609z M208.8,53.609c0-1.968-1.244-3.449-3.181-3.449
			c-1.953,0-3.197,1.48-3.197,3.449c0,1.953,1.244,3.449,3.197,3.449C207.556,57.058,208.8,55.562,208.8,53.609z"/>
		<path style="fill:#FFFFFF;" d="M224.643,58.853l-5.008-6.85v6.85h-2.236V48.349h2.299l4.866,6.598v-6.598h2.236v10.503H224.643z"
			/>
		<path style="fill:#FFFFFF;" d="M240.862,58.853l-0.662-1.779h-4.503l-0.662,1.779H232.5l4.047-10.503h2.803l4.047,10.503H240.862z
			 M237.949,50.585l-1.638,4.519h3.275L237.949,50.585z"/>
		<path style="fill:#FFFFFF;" d="M249.004,58.853V48.349h2.252v8.535h4.44v1.968H249.004z"/>
		<path style="fill:#FFFFFF;" d="M270.704,58.853V48.349h7.433v1.968h-5.196v2.205h5.086v1.968h-5.086v2.394h5.196v1.968H270.704z"
			/>
		<path style="fill:#FFFFFF;" d="M284.609,58.853V48.349h7.433v1.968h-5.196v2.205h5.086v1.968h-5.086v4.362H284.609z"/>
		<path style="fill:#FFFFFF;" d="M298.311,58.853V48.349h7.433v1.968h-5.196v2.205h5.086v1.968h-5.086v4.362H298.311z"/>
		<path style="fill:#FFFFFF;" d="M312.011,58.853V48.349h2.236v10.503H312.011z"/>
		<path style="fill:#FFFFFF;" d="M320.546,53.609c0-3.244,2.441-5.433,5.606-5.433c2.299,0,3.638,1.244,4.377,2.567l-1.921,0.945
			c-0.44-0.85-1.386-1.527-2.456-1.527c-1.922,0-3.307,1.464-3.307,3.449c0,1.984,1.385,3.449,3.307,3.449
			c1.07,0,2.016-0.677,2.456-1.528l1.921,0.929c-0.739,1.307-2.078,2.583-4.377,2.583C322.987,59.042,320.546,56.837,320.546,53.609
			z"/>
		<path style="fill:#FFFFFF;" d="M336.577,58.853V48.349h2.236v10.503H336.577z"/>
		<path style="fill:#FFFFFF;" d="M345.616,58.853V48.349h7.433v1.968h-5.196v2.205h5.086v1.968h-5.086v2.394h5.196v1.968H345.616z"
			/>
		<path style="fill:#FFFFFF;" d="M366.766,58.853l-5.008-6.85v6.85h-2.236V48.349h2.299l4.866,6.598v-6.598h2.236v10.503H366.766z"
			/>
		<path style="fill:#FFFFFF;" d="M375.222,53.609c0-3.244,2.441-5.433,5.606-5.433c2.299,0,3.638,1.244,4.377,2.567l-1.921,0.945
			c-0.44-0.85-1.386-1.527-2.456-1.527c-1.922,0-3.307,1.464-3.307,3.449c0,1.984,1.385,3.449,3.307,3.449
			c1.07,0,2.016-0.677,2.456-1.528l1.921,0.929c-0.739,1.307-2.078,2.583-4.377,2.583C377.663,59.042,375.222,56.837,375.222,53.609
			z"/>
		<path style="fill:#FFFFFF;" d="M393.836,58.853v-4.299l-4.031-6.205h2.551l2.598,4.205l2.599-4.205h2.535l-4.016,6.205v4.299
			H393.836z"/>
	</g>
	<g style="display:inline;">
		<path style="fill:#6D6E71;" d="M66.85,254.134l0.942-1.299c0.642,0.699,1.683,1.327,3.01,1.327c1.37,0,1.897-0.671,1.897-1.313
			c0-1.997-5.536-0.756-5.536-4.252c0-1.583,1.37-2.796,3.467-2.796c1.47,0,2.682,0.485,3.553,1.341l-0.942,1.241
			c-0.756-0.756-1.769-1.099-2.768-1.099c-0.97,0-1.598,0.485-1.598,1.185c0,1.783,5.536,0.685,5.536,4.223
			c0,1.584-1.127,2.953-3.681,2.953C68.976,255.646,67.706,255.018,66.85,254.134z"/>
		<path style="fill:#6D6E71;" d="M79.977,255.475v-0.756c-0.514,0.599-1.327,0.927-2.24,0.927c-1.113,0-2.382-0.771-2.382-2.282
			c0-1.598,1.255-2.254,2.382-2.254c0.942,0,1.727,0.299,2.24,0.884v-1.027c0-0.799-0.671-1.283-1.612-1.283
			c-0.771,0-1.455,0.285-2.04,0.884l-0.628-1.041c0.799-0.771,1.798-1.113,2.896-1.113c1.541,0,2.882,0.643,2.882,2.482v4.58H79.977
			z M79.977,253.905v-1.056c-0.357-0.471-0.999-0.714-1.641-0.714c-0.841,0-1.483,0.5-1.483,1.241c0,0.757,0.642,1.241,1.483,1.241
			C78.978,254.618,79.62,254.376,79.977,253.905z"/>
		<path style="fill:#6D6E71;" d="M83.288,255.475v-9.516h1.498v9.516H83.288z"/>
		<path style="fill:#6D6E71;" d="M86.17,252.022c0-1.998,1.455-3.61,3.495-3.61c2.069,0,3.381,1.569,3.381,3.738v0.371h-5.307
			c0.114,1.027,0.884,1.897,2.183,1.897c0.685,0,1.47-0.271,1.969-0.771l0.685,0.984c-0.699,0.656-1.712,1.013-2.796,1.013
			C87.696,255.646,86.17,254.205,86.17,252.022z M89.651,249.64c-1.27,0-1.869,0.984-1.926,1.812h3.881
			C91.563,250.638,91.006,249.64,89.651,249.64z"/>
		<path style="fill:#6D6E71;" d="M93.818,254.562l0.685-1.07c0.485,0.5,1.441,0.956,2.326,0.956c0.899,0,1.37-0.371,1.37-0.913
			c0-1.355-4.166-0.385-4.166-3.039c0-1.127,0.97-2.083,2.711-2.083c1.17,0,2.054,0.414,2.668,0.956l-0.628,1.056
			c-0.414-0.456-1.17-0.827-2.04-0.827c-0.785,0-1.27,0.371-1.27,0.856c0,1.212,4.166,0.299,4.166,3.038
			c0,1.228-1.013,2.154-2.868,2.154C95.587,255.646,94.531,255.261,93.818,254.562z"/>
		<path style="fill:#6D6E71;" d="M104.176,250.724c0-2.938,2.183-4.922,4.994-4.922c1.912,0,3.11,0.984,3.809,2.126l-1.413,0.741
			c-0.456-0.799-1.384-1.384-2.396-1.384c-1.883,0-3.282,1.427-3.282,3.438c0,1.983,1.398,3.438,3.282,3.438
			c1.013,0,1.94-0.6,2.396-1.384l1.427,0.713c-0.728,1.142-1.912,2.154-3.823,2.154
			C106.359,255.646,104.176,253.648,104.176,250.724z"/>
		<path style="fill:#6D6E71;" d="M113.737,252.022c0-1.983,1.341-3.61,3.538-3.61c2.197,0,3.538,1.627,3.538,3.61
			c0,1.969-1.341,3.623-3.538,3.623C115.078,255.646,113.737,253.991,113.737,252.022z M119.258,252.022
			c0-1.213-0.699-2.283-1.983-2.283c-1.27,0-1.983,1.07-1.983,2.283c0,1.227,0.713,2.297,1.983,2.297
			C118.559,254.319,119.258,253.249,119.258,252.022z"/>
		<path style="fill:#6D6E71;" d="M126.877,255.475v-4.309c0-1.084-0.556-1.427-1.398-1.427c-0.756,0-1.413,0.457-1.769,0.913v4.822
			h-1.498v-6.891h1.498v0.927c0.457-0.542,1.355-1.099,2.439-1.099c1.484,0,2.226,0.799,2.226,2.212v4.851H126.877z"/>
		<path style="fill:#6D6E71;" d="M131.986,255.475l-2.811-6.891h1.612l2.012,5.164l2.012-5.164h1.598l-2.811,6.891H131.986z"/>
		<path style="fill:#6D6E71;" d="M136.809,252.022c0-1.998,1.455-3.61,3.495-3.61c2.069,0,3.381,1.569,3.381,3.738v0.371h-5.307
			c0.114,1.027,0.884,1.897,2.183,1.897c0.685,0,1.47-0.271,1.969-0.771l0.685,0.984c-0.699,0.656-1.712,1.013-2.796,1.013
			C138.335,255.646,136.809,254.205,136.809,252.022z M140.29,249.64c-1.27,0-1.869,0.984-1.926,1.812h3.881
			C142.202,250.638,141.646,249.64,140.29,249.64z"/>
		<path style="fill:#6D6E71;" d="M145.042,255.475v-6.891h1.498v0.998c0.528-0.656,1.355-1.17,2.24-1.17v1.484
			c-0.128-0.028-0.271-0.043-0.457-0.043c-0.642,0-1.484,0.428-1.783,0.928v4.693H145.042z"/>
		<path style="fill:#6D6E71;" d="M149.279,254.562l0.685-1.07c0.485,0.5,1.441,0.956,2.326,0.956c0.899,0,1.37-0.371,1.37-0.913
			c0-1.355-4.166-0.385-4.166-3.039c0-1.127,0.97-2.083,2.711-2.083c1.17,0,2.054,0.414,2.668,0.956l-0.628,1.056
			c-0.414-0.456-1.17-0.827-2.04-0.827c-0.785,0-1.27,0.371-1.27,0.856c0,1.212,4.166,0.299,4.166,3.038
			c0,1.228-1.013,2.154-2.868,2.154C151.048,255.646,149.993,255.261,149.279,254.562z"/>
		<path style="fill:#6D6E71;" d="M156.299,246.814c0-0.514,0.414-0.928,0.927-0.928c0.514,0,0.928,0.414,0.928,0.928
			s-0.414,0.928-0.928,0.928C156.713,247.742,156.299,247.328,156.299,246.814z M156.47,255.475v-6.891h1.498v6.891H156.47z"/>
		<path style="fill:#6D6E71;" d="M159.367,252.022c0-1.983,1.341-3.61,3.538-3.61c2.197,0,3.538,1.627,3.538,3.61
			c0,1.969-1.341,3.623-3.538,3.623C160.708,255.646,159.367,253.991,159.367,252.022z M164.888,252.022
			c0-1.213-0.699-2.283-1.983-2.283c-1.27,0-1.983,1.07-1.983,2.283c0,1.227,0.713,2.297,1.983,2.297
			C164.189,254.319,164.888,253.249,164.888,252.022z"/>
		<path style="fill:#6D6E71;" d="M172.507,255.475v-4.309c0-1.084-0.556-1.427-1.398-1.427c-0.756,0-1.413,0.457-1.769,0.913v4.822
			h-1.498v-6.891h1.498v0.927c0.457-0.542,1.355-1.099,2.439-1.099c1.484,0,2.226,0.799,2.226,2.212v4.851H172.507z"/>
	</g>
	<g style="display:inline;">
		<defs>
			<rect id="SVGID_3_" x="2.157" y="1" width="497" height="436.75"/>
		</defs>
		<clipPath id="SVGID_4_">
			<use xlink:href="#SVGID_3_"  style="overflow:visible;"/>
		</clipPath>
		<path style="clip-path:url(#SVGID_4_);fill:#C7C8CA;" d="M160.14,226.216h-14.935c0-13.547-11.021-24.568-24.569-24.568
			c-13.547,0-24.569,11.021-24.569,24.568H81.132c0-21.782,17.722-39.504,39.504-39.504S160.14,204.434,160.14,226.216"/>
		<path style="clip-path:url(#SVGID_4_);fill:#5FB35B;" d="M120.636,230.112c2.151,0,3.896-1.745,3.896-3.896
			c0-2.153-1.745-3.896-3.896-3.896s-3.896,1.743-3.896,3.896C116.74,228.367,118.485,230.112,120.636,230.112"/>
	</g>
	<g style="display:inline;">
		<path style="fill:#6D6E71;" d="M227.368,255.475v-9.516h1.669v8.046h4.195v1.47H227.368z"/>
		<path style="fill:#6D6E71;" d="M234.359,246.814c0-0.514,0.414-0.928,0.927-0.928c0.514,0,0.928,0.414,0.928,0.928
			s-0.414,0.928-0.928,0.928C234.773,247.742,234.359,247.328,234.359,246.814z M234.53,255.475v-6.891h1.498v6.891H234.53z"/>
		<path style="fill:#6D6E71;" d="M242.492,255.475v-4.309c0-1.084-0.556-1.427-1.398-1.427c-0.756,0-1.413,0.457-1.769,0.913v4.822
			h-1.498v-6.891h1.498v0.927c0.457-0.542,1.355-1.099,2.439-1.099c1.484,0,2.226,0.799,2.226,2.212v4.851H242.492z"/>
		<path style="fill:#6D6E71;" d="M245.389,252.022c0-1.998,1.455-3.61,3.495-3.61c2.069,0,3.381,1.569,3.381,3.738v0.371h-5.307
			c0.114,1.027,0.884,1.897,2.183,1.897c0.685,0,1.47-0.271,1.969-0.771l0.685,0.984c-0.699,0.656-1.712,1.013-2.796,1.013
			C246.916,255.646,245.389,254.205,245.389,252.022z M248.87,249.64c-1.27,0-1.869,0.984-1.926,1.812h3.881
			C250.782,250.638,250.226,249.64,248.87,249.64z"/>
		<path style="fill:#6D6E71;" d="M259.472,255.475v-8.047h-2.882v-1.469h7.434v1.469h-2.883v8.047H259.472z"/>
		<path style="fill:#6D6E71;" d="M265.094,246.814c0-0.514,0.414-0.928,0.928-0.928s0.927,0.414,0.927,0.928
			s-0.413,0.928-0.927,0.928S265.094,247.328,265.094,246.814z M265.265,255.475v-6.891h1.498v6.891H265.265z"/>
		<path style="fill:#6D6E71;" d="M277.021,255.475v-4.494c0-0.742-0.328-1.241-1.142-1.241c-0.671,0-1.298,0.457-1.598,0.913v4.822
			h-1.498v-4.494c0-0.742-0.314-1.241-1.127-1.241c-0.671,0-1.284,0.471-1.599,0.913v4.822h-1.498v-6.891h1.498v0.927
			c0.3-0.413,1.199-1.099,2.255-1.099c1.027,0,1.654,0.514,1.883,1.256c0.386-0.613,1.299-1.256,2.34-1.256
			c1.256,0,1.983,0.686,1.983,2.083v4.979H277.021z"/>
		<path style="fill:#6D6E71;" d="M279.905,252.022c0-1.998,1.455-3.61,3.495-3.61c2.068,0,3.381,1.569,3.381,3.738v0.371h-5.307
			c0.114,1.027,0.885,1.897,2.183,1.897c0.685,0,1.47-0.271,1.969-0.771l0.685,0.984c-0.698,0.656-1.712,1.013-2.796,1.013
			C281.432,255.646,279.905,254.205,279.905,252.022z M283.386,249.64c-1.27,0-1.868,0.984-1.926,1.812h3.881
			C285.298,250.638,284.741,249.64,283.386,249.64z"/>
	</g>
	<g style="display:inline;">
		<defs>
			<rect id="SVGID_5_" x="2.157" y="1" width="497" height="436.75"/>
		</defs>
		<clipPath id="SVGID_6_">
			<use xlink:href="#SVGID_5_"  style="overflow:visible;"/>
		</clipPath>
		<path style="clip-path:url(#SVGID_6_);fill:#C7C8CA;" d="M296.358,226.216h-14.935c0-13.547-11.022-24.568-24.571-24.568
			c-13.546,0-24.565,11.021-24.565,24.568H217.35c0-21.782,17.722-39.504,39.503-39.504
			C278.636,186.712,296.358,204.434,296.358,226.216"/>
		<path style="clip-path:url(#SVGID_6_);fill:#5FB35B;" d="M256.854,230.112c2.152,0,3.896-1.745,3.896-3.896
			c0-2.153-1.744-3.896-3.896-3.896c-2.149,0-3.896,1.743-3.896,3.896C252.957,228.367,254.704,230.112,256.854,230.112"/>
	</g>
	<g style="display:inline;">
		<path style="fill:#6D6E71;" d="M356.101,255.475l-0.698-1.841h-4.366l-0.699,1.841h-1.897l3.738-9.516h2.083l3.737,9.516H356.101z
			 M353.219,247.628l-1.712,4.537h3.424L353.219,247.628z"/>
		<path style="fill:#6D6E71;" d="M358.855,255.475v-9.516h1.498v3.58c0.557-0.741,1.355-1.127,2.212-1.127
			c1.783,0,3.067,1.384,3.067,3.61c0,2.282-1.299,3.623-3.067,3.623c-0.885,0-1.684-0.428-2.212-1.112v0.941H358.855z
			 M362.138,254.319c1.184,0,1.939-0.956,1.939-2.297c0-1.327-0.756-2.283-1.939-2.283c-0.714,0-1.441,0.414-1.784,0.928v2.739
			C360.696,253.92,361.424,254.319,362.138,254.319z"/>
		<path style="fill:#6D6E71;" d="M371.227,255.475v-0.756c-0.514,0.599-1.327,0.927-2.24,0.927c-1.112,0-2.383-0.771-2.383-2.282
			c0-1.598,1.256-2.254,2.383-2.254c0.941,0,1.727,0.299,2.24,0.884v-1.027c0-0.799-0.671-1.283-1.612-1.283
			c-0.771,0-1.455,0.285-2.04,0.884l-0.628-1.041c0.799-0.771,1.798-1.113,2.896-1.113c1.541,0,2.882,0.643,2.882,2.482v4.58
			H371.227z M371.227,253.905v-1.056c-0.356-0.471-0.999-0.714-1.641-0.714c-0.842,0-1.484,0.5-1.484,1.241
			c0,0.757,0.643,1.241,1.484,1.241C370.228,254.618,370.87,254.376,371.227,253.905z"/>
		<path style="fill:#6D6E71;" d="M379.202,255.475v-4.309c0-1.084-0.557-1.427-1.398-1.427c-0.756,0-1.412,0.457-1.77,0.913v4.822
			h-1.498v-6.891h1.498v0.927c0.457-0.542,1.355-1.099,2.44-1.099c1.483,0,2.226,0.799,2.226,2.212v4.851H379.202z"/>
		<path style="fill:#6D6E71;" d="M387.35,255.475v-0.941c-0.528,0.685-1.313,1.112-2.212,1.112c-1.755,0-3.053-1.341-3.053-3.623
			c0-2.227,1.284-3.61,3.053-3.61c0.87,0,1.669,0.386,2.212,1.127v-3.58h1.498v9.516H387.35z M387.35,253.392v-2.725
			c-0.328-0.514-1.07-0.928-1.77-0.928c-1.198,0-1.954,0.956-1.954,2.283c0,1.341,0.756,2.297,1.954,2.297
			C386.279,254.319,387.021,253.905,387.35,253.392z"/>
		<path style="fill:#6D6E71;" d="M390.232,252.022c0-1.983,1.341-3.61,3.538-3.61s3.538,1.627,3.538,3.61
			c0,1.969-1.341,3.623-3.538,3.623S390.232,253.991,390.232,252.022z M395.754,252.022c0-1.213-0.699-2.283-1.983-2.283
			c-1.27,0-1.983,1.07-1.983,2.283c0,1.227,0.714,2.297,1.983,2.297C395.055,254.319,395.754,253.249,395.754,252.022z"/>
		<path style="fill:#6D6E71;" d="M403.373,255.475v-4.309c0-1.084-0.557-1.427-1.398-1.427c-0.756,0-1.412,0.457-1.77,0.913v4.822
			h-1.498v-6.891h1.498v0.927c0.457-0.542,1.355-1.099,2.44-1.099c1.483,0,2.226,0.799,2.226,2.212v4.851H403.373z"/>
		<path style="fill:#6D6E71;" d="M415.13,255.475v-4.494c0-0.742-0.328-1.241-1.142-1.241c-0.671,0-1.298,0.457-1.598,0.913v4.822
			h-1.498v-4.494c0-0.742-0.314-1.241-1.127-1.241c-0.671,0-1.284,0.471-1.599,0.913v4.822h-1.498v-6.891h1.498v0.927
			c0.3-0.413,1.199-1.099,2.255-1.099c1.027,0,1.654,0.514,1.883,1.256c0.386-0.613,1.299-1.256,2.34-1.256
			c1.256,0,1.983,0.686,1.983,2.083v4.979H415.13z"/>
		<path style="fill:#6D6E71;" d="M418.027,252.022c0-1.998,1.455-3.61,3.495-3.61c2.068,0,3.381,1.569,3.381,3.738v0.371h-5.307
			c0.114,1.027,0.885,1.897,2.183,1.897c0.685,0,1.47-0.271,1.969-0.771l0.685,0.984c-0.698,0.656-1.712,1.013-2.796,1.013
			C419.554,255.646,418.027,254.205,418.027,252.022z M421.508,249.64c-1.27,0-1.868,0.984-1.926,1.812h3.881
			C423.42,250.638,422.863,249.64,421.508,249.64z"/>
		<path style="fill:#6D6E71;" d="M430.926,255.475v-4.309c0-1.084-0.557-1.427-1.398-1.427c-0.756,0-1.412,0.457-1.77,0.913v4.822
			h-1.498v-6.891h1.498v0.927c0.457-0.542,1.355-1.099,2.44-1.099c1.483,0,2.226,0.799,2.226,2.212v4.851H430.926z"/>
		<path style="fill:#6D6E71;" d="M434.536,253.862v-3.98h-1.142v-1.298h1.142V246.7h1.498v1.884h1.398v1.298h-1.398v3.609
			c0,0.471,0.229,0.828,0.656,0.828c0.285,0,0.542-0.129,0.656-0.257l0.356,1.141c-0.271,0.243-0.713,0.442-1.398,0.442
			C435.135,255.646,434.536,255.018,434.536,253.862z"/>
	</g>
	<g style="display:inline;">
		<defs>
			<rect id="SVGID_7_" x="2.157" y="1" width="497" height="436.75"/>
		</defs>
		<clipPath id="SVGID_8_">
			<use xlink:href="#SVGID_7_"  style="overflow:visible;"/>
		</clipPath>
		<path style="clip-path:url(#SVGID_8_);fill:#C7C8CA;" d="M432.577,226.216h-14.936c0-13.547-11.02-24.568-24.568-24.568
			c-13.55,0-24.569,11.021-24.569,24.568h-14.936c0-21.782,17.721-39.504,39.505-39.504
			C414.855,186.712,432.577,204.434,432.577,226.216"/>
		<path style="clip-path:url(#SVGID_8_);fill:#5FB35B;" d="M393.073,230.112c2.15,0,3.896-1.745,3.896-3.896
			c0-2.153-1.746-3.896-3.896-3.896c-2.152,0-3.895,1.743-3.895,3.896C389.179,228.367,390.921,230.112,393.073,230.112"/>
		<path style="clip-path:url(#SVGID_8_);fill:#C7C8CA;" d="M497.451,326.729c0,6.307-5.134,11.438-11.442,11.438H15.305
			c-6.308,0-11.44-5.132-11.44-11.438V14.146c0-6.307,5.132-11.438,11.44-11.438h470.704c6.309,0,11.442,5.131,11.442,11.438
			V326.729z M486.009,1H15.305C8.055,1,2.157,6.898,2.157,14.146v312.583c0,7.25,5.898,13.147,13.148,13.147h470.704
			c7.25,0,13.147-5.897,13.147-13.147V14.146C499.156,6.898,493.259,1,486.009,1"/>
	</g>
	<path style="display:inline;fill:#C7C8CA;" d="M34.67,29.079h431.974v256.679H34.67V29.079z M32.962,287.468h435.388V27.371H32.962
		V287.468z"/>
	<g style="display:inline;">
		<defs>
			<rect id="SVGID_9_" x="2.157" y="1" width="497" height="436.75"/>
		</defs>
		<clipPath id="SVGID_10_">
			<use xlink:href="#SVGID_9_"  style="overflow:visible;"/>
		</clipPath>
		<path style="clip-path:url(#SVGID_10_);fill:#C7C8CA;" d="M333.035,419.745c-24.121-11.146-24.55-46.966-24.551-47.322v-16.377
			h-1.709v16.38c0.002,0.371,0.43,37.266,25.615,48.899c8.499,3.044,20.245,8.611,19.749,11.466
			c-0.131,0.765-1.928,3.253-19.462,3.253H168.637c-17.535,0-19.33-2.488-19.462-3.253c-0.495-2.853,11.25-8.422,19.82-11.494
			c25.115-11.605,25.542-48.5,25.543-48.874v-16.377h-1.708v16.373c-0.002,0.36-0.413,36.172-24.482,47.298
			c-3.643,1.307-21.772,8.082-20.855,13.366c0.377,2.172,3.122,4.667,21.145,4.667h164.041c18.023,0,20.768-2.495,21.144-4.667
			C354.74,427.799,336.609,421.023,333.035,419.745"/>
		<path style="clip-path:url(#SVGID_10_);fill:#C7C8CA;" d="M250.657,307.955c-2.672,0-4.838,2.166-4.838,4.84
			c0,2.67,2.166,4.837,4.838,4.837c2.671,0,4.838-2.167,4.838-4.837C255.495,310.121,253.328,307.955,250.657,307.955"/>
		<path style="clip-path:url(#SVGID_10_);fill:#5FB35B;" d="M232.287,226.216H217.35c0-21.782,17.722-39.504,39.504-39.504
			c14.29,0,27.506,7.751,34.489,20.227l-13.031,7.297c-4.348-7.765-12.569-12.588-21.458-12.588
			C243.308,201.647,232.287,212.669,232.287,226.216"/>
		<path style="clip-path:url(#SVGID_10_);fill:#5FB35B;" d="M96.067,226.216H81.132c0-21.782,17.722-39.504,39.504-39.504
			c13.143,0,25.387,6.509,32.754,17.413l-12.377,8.36c-4.584-6.786-12.202-10.837-20.376-10.837
			C107.09,201.647,96.067,212.669,96.067,226.216"/>
		<path style="clip-path:url(#SVGID_10_);fill:#5FB35B;" d="M368.493,226.216h-14.926c0-21.768,17.71-39.479,39.48-39.479
			c9.059,0,17.911,3.147,24.922,8.861l-9.427,11.57c-4.423-3.601-9.78-5.505-15.495-5.505
			C379.509,201.663,368.493,212.678,368.493,226.216"/>
	</g>
</g>
<g id="Layer_2">
	<polyline style="fill:none;stroke:#EB9723;stroke-width:2.0285;" points="467.749,148.902 381.594,121.622 294.635,139.88 
		207.676,130.748 121.084,139.88 34.487,135.011 	"/>
	<polyline style="fill:none;stroke:#3793C0;stroke-width:2.0285;" points="467.749,123.437 381.594,105.179 294.635,153.675 
		207.676,144.343 121.084,123.437 34.487,144.343 	"/>
	<polyline style="fill:none;stroke:#D03E8C;stroke-width:2.0285;" points="467.749,139.372 381.594,141.977 294.635,118.59 
		207.676,158.02 121.084,131.765 34.487,158.02 	"/>
	<g>
		<defs>
			<rect id="SVGID_11_" x="2.157" y="0" width="497" height="436.75"/>
		</defs>
		<clipPath id="SVGID_12_">
			<use xlink:href="#SVGID_11_"  style="overflow:visible;"/>
		</clipPath>
		<path style="clip-path:url(#SVGID_12_);fill:#FFFFFF;" d="M382.104,117.981c-1.958,0-3.545,1.587-3.545,3.545
			c0,1.957,1.587,3.544,3.545,3.544s3.545-1.587,3.545-3.544C385.648,119.568,384.062,117.981,382.104,117.981"/>
		<circle style="clip-path:url(#SVGID_12_);fill:none;stroke:#EB9723;stroke-width:2.0285;" cx="382.104" cy="121.526" r="3.544"/>
		<path style="clip-path:url(#SVGID_12_);fill:#FFFFFF;" d="M382.104,138.268c-1.958,0-3.545,1.587-3.545,3.545
			c0,1.957,1.587,3.544,3.545,3.544s3.545-1.587,3.545-3.544C385.648,139.855,384.062,138.268,382.104,138.268"/>
		<circle style="clip-path:url(#SVGID_12_);fill:none;stroke:#D03E8C;stroke-width:2.0285;" cx="382.104" cy="141.813" r="3.544"/>
		<path style="clip-path:url(#SVGID_12_);fill:#FFFFFF;" d="M382.104,102.158c-1.958,0-3.545,1.587-3.545,3.545
			c0,1.957,1.587,3.544,3.545,3.544s3.545-1.587,3.545-3.544C385.648,103.745,384.062,102.158,382.104,102.158"/>
		<circle style="clip-path:url(#SVGID_12_);fill:none;stroke:#3793C0;stroke-width:2.0285;" cx="382.104" cy="105.702" r="3.544"/>
		<path style="clip-path:url(#SVGID_12_);fill:#FFFFFF;" d="M294.871,136.239c-1.958,0-3.545,1.587-3.545,3.545
			c0,1.957,1.587,3.544,3.545,3.544s3.545-1.587,3.545-3.544C298.416,137.826,296.829,136.239,294.871,136.239"/>
		<circle style="clip-path:url(#SVGID_12_);fill:none;stroke:#EB9723;stroke-width:2.0285;" cx="294.871" cy="139.784" r="3.544"/>
		<path style="clip-path:url(#SVGID_12_);fill:#FFFFFF;" d="M294.871,114.736c-1.958,0-3.545,1.587-3.545,3.545
			c0,1.957,1.587,3.544,3.545,3.544s3.545-1.587,3.545-3.544C298.416,116.323,296.829,114.736,294.871,114.736"/>
		<circle style="clip-path:url(#SVGID_12_);fill:none;stroke:#D03E8C;stroke-width:2.0285;" cx="294.871" cy="118.28" r="3.544"/>
		<path style="clip-path:url(#SVGID_12_);fill:#FFFFFF;" d="M294.871,149.917c-1.958,0-3.545,1.587-3.545,3.545
			c0,1.957,1.587,3.544,3.545,3.544s3.545-1.587,3.545-3.544C298.416,151.503,296.829,149.917,294.871,149.917"/>
		<circle style="clip-path:url(#SVGID_12_);fill:none;stroke:#3793C0;stroke-width:2.0285;" cx="294.871" cy="153.461" r="3.544"/>
		<path style="clip-path:url(#SVGID_12_);fill:#FFFFFF;" d="M207.019,127.122c-1.958,0-3.545,1.587-3.545,3.545
			c0,1.957,1.587,3.544,3.545,3.544s3.545-1.587,3.545-3.544C210.564,128.708,208.977,127.122,207.019,127.122"/>
		<circle style="clip-path:url(#SVGID_12_);fill:none;stroke:#EB9723;stroke-width:2.0285;" cx="207.019" cy="130.666" r="3.544"/>
		<path style="clip-path:url(#SVGID_12_);fill:#FFFFFF;" d="M207.019,154.475c-1.958,0-3.545,1.587-3.545,3.545
			c0,1.957,1.587,3.544,3.545,3.544s3.545-1.587,3.545-3.544C210.564,156.062,208.977,154.475,207.019,154.475"/>
		<circle style="clip-path:url(#SVGID_12_);fill:none;stroke:#D03E8C;stroke-width:2.0285;" cx="207.019" cy="158.02" r="3.544"/>
		<path style="clip-path:url(#SVGID_12_);fill:#FFFFFF;" d="M207.019,140.799c-1.958,0-3.545,1.586-3.545,3.544
			c0,1.957,1.587,3.544,3.545,3.544s3.545-1.587,3.545-3.544C210.564,142.385,208.977,140.799,207.019,140.799"/>
		<circle style="clip-path:url(#SVGID_12_);fill:none;stroke:#3793C0;stroke-width:2.0285;" cx="207.019" cy="144.343" r="3.544"/>
		<path style="clip-path:url(#SVGID_12_);fill:#FFFFFF;" d="M120.001,136.239c-1.958,0-3.545,1.587-3.545,3.545
			c0,1.957,1.587,3.544,3.545,3.544s3.545-1.587,3.545-3.544C123.546,137.826,121.959,136.239,120.001,136.239"/>
		<circle style="clip-path:url(#SVGID_12_);fill:none;stroke:#EB9723;stroke-width:2.0285;" cx="120.001" cy="139.784" r="3.544"/>
		<path style="clip-path:url(#SVGID_12_);fill:#FFFFFF;" d="M120.001,128.221c-1.958,0-3.545,1.587-3.545,3.545
			c0,1.957,1.587,3.544,3.545,3.544s3.545-1.587,3.545-3.544C123.546,129.808,121.959,128.221,120.001,128.221"/>
		<circle style="clip-path:url(#SVGID_12_);fill:none;stroke:#D03E8C;stroke-width:2.0285;" cx="120.001" cy="131.765" r="3.544"/>
		<path style="clip-path:url(#SVGID_12_);fill:#FFFFFF;" d="M120.001,119.604c-1.958,0-3.545,1.587-3.545,3.545
			c0,1.957,1.587,3.544,3.545,3.544s3.545-1.587,3.545-3.544C123.546,121.191,121.959,119.604,120.001,119.604"/>
		<circle style="clip-path:url(#SVGID_12_);fill:none;stroke:#3793C0;stroke-width:2.0285;" cx="120.001" cy="123.149" r="3.544"/>
	</g>
	<rect x="33.258" y="26.753" style="fill:#3793C0;" width="434.797" height="51.856"/>
	<g>
		<path style="fill:#FFFFFF;" d="M117.59,52.611c0-3.244,2.441-5.433,5.606-5.433c2.299,0,3.637,1.244,4.377,2.567l-1.921,0.945
			c-0.44-0.85-1.386-1.527-2.456-1.527c-1.921,0-3.307,1.464-3.307,3.449c0,1.984,1.386,3.449,3.307,3.449
			c1.07,0,2.016-0.677,2.456-1.528l1.921,0.929c-0.74,1.307-2.079,2.583-4.377,2.583C120.031,58.043,117.59,55.839,117.59,52.611z"
			/>
		<path style="fill:#FFFFFF;" d="M133.621,53.65v-6.299h2.268v6.236c0,1.465,0.851,2.473,2.473,2.473s2.457-1.008,2.457-2.473
			v-6.236h2.283v6.299c0,2.598-1.543,4.394-4.74,4.394C135.165,58.043,133.621,56.248,133.621,53.65z"/>
		<path style="fill:#FFFFFF;" d="M149.165,56.374l1.228-1.748c0.74,0.771,1.89,1.433,3.339,1.433c1.244,0,1.826-0.551,1.826-1.166
			c0-1.827-6.047-0.551-6.047-4.503c0-1.748,1.512-3.197,3.984-3.197c1.669,0,3.055,0.504,4.094,1.464l-1.244,1.669
			c-0.85-0.787-1.984-1.149-3.055-1.149c-0.944,0-1.48,0.41-1.48,1.04c0,1.653,6.031,0.535,6.031,4.457
			c0,1.921-1.386,3.37-4.205,3.37C151.605,58.043,150.157,57.366,149.165,56.374z"/>
		<path style="fill:#FFFFFF;" d="M166.282,57.854v-8.535h-3.071v-1.968h8.377v1.968h-3.055v8.535H166.282z"/>
		<path style="fill:#FFFFFF;" d="M176.864,52.611c0-3.166,2.315-5.433,5.496-5.433c3.165,0,5.48,2.268,5.48,5.433
			c0,3.165-2.315,5.433-5.48,5.433C179.179,58.043,176.864,55.776,176.864,52.611z M185.541,52.611c0-1.968-1.244-3.449-3.181-3.449
			c-1.953,0-3.197,1.48-3.197,3.449c0,1.953,1.244,3.449,3.197,3.449C184.297,56.06,185.541,54.563,185.541,52.611z"/>
		<path style="fill:#FFFFFF;" d="M203.273,57.854V50.28l-2.961,7.574h-0.976l-2.96-7.574v7.574h-2.236V47.351h3.134l2.551,6.567
			l2.551-6.567h3.149v10.503H203.273z"/>
		<path style="fill:#FFFFFF;" d="M212.313,57.854V47.351h7.433v1.968h-5.196v2.205h5.086v1.968h-5.086v2.394h5.196v1.968H212.313z"
			/>
		<path style="fill:#FFFFFF;" d="M232.139,57.854l-2.063-3.732h-1.638v3.732h-2.236V47.351h4.913c2.189,0,3.543,1.433,3.543,3.386
			c0,1.842-1.181,2.85-2.315,3.118l2.378,4H232.139z M232.359,50.721c0-0.866-0.677-1.402-1.559-1.402h-2.362v2.835h2.362
			C231.683,52.154,232.359,51.619,232.359,50.721z"/>
		<path style="fill:#FFFFFF;" d="M249.824,57.854V47.351h7.433v1.968h-5.196v2.205h5.086v1.968h-5.086v2.394h5.196v1.968H249.824z"
			/>
		<path style="fill:#FFFFFF;" d="M270.579,57.854l-2.63-3.842l-2.646,3.842h-2.661l3.811-5.386l-3.574-5.118h2.661l2.409,3.59
			l2.378-3.59h2.692l-3.574,5.102l3.811,5.401H270.579z"/>
		<path style="fill:#FFFFFF;" d="M278.957,57.854V47.351h4.913c2.283,0,3.527,1.543,3.527,3.386c0,1.827-1.26,3.37-3.527,3.37
			h-2.677v3.748H278.957z M285.114,50.737c0-0.882-0.677-1.417-1.559-1.417h-2.362v2.819h2.362
			C284.438,52.138,285.114,51.603,285.114,50.737z"/>
		<path style="fill:#FFFFFF;" d="M293.508,57.854V47.351h7.433v1.968h-5.196v2.205h5.086v1.968h-5.086v2.394h5.196v1.968H293.508z"
			/>
		<path style="fill:#FFFFFF;" d="M313.35,57.854l-2.063-3.732h-1.638v3.732h-2.236V47.351h4.913c2.189,0,3.543,1.433,3.543,3.386
			c0,1.842-1.181,2.85-2.314,3.118l2.378,4H313.35z M313.57,50.721c0-0.866-0.677-1.402-1.559-1.402h-2.362v2.835h2.362
			C312.894,52.154,313.57,51.619,313.57,50.721z"/>
		<path style="fill:#FFFFFF;" d="M322.264,57.854V47.351h2.236v10.503H322.264z"/>
		<path style="fill:#FFFFFF;" d="M331.303,57.854V47.351h7.433v1.968h-5.196v2.205h5.086v1.968h-5.086v2.394h5.196v1.968H331.303z"
			/>
		<path style="fill:#FFFFFF;" d="M352.437,57.854l-5.008-6.85v6.85h-2.236V47.351h2.3l4.865,6.598v-6.598h2.236v10.503H352.437z"/>
		<path style="fill:#FFFFFF;" d="M360.893,52.611c0-3.244,2.441-5.433,5.606-5.433c2.299,0,3.638,1.244,4.378,2.567l-1.922,0.945
			c-0.44-0.85-1.386-1.527-2.456-1.527c-1.921,0-3.308,1.464-3.308,3.449c0,1.984,1.387,3.449,3.308,3.449
			c1.07,0,2.016-0.677,2.456-1.528l1.922,0.929c-0.74,1.307-2.079,2.583-4.378,2.583C363.334,58.043,360.893,55.839,360.893,52.611z
			"/>
		<path style="fill:#FFFFFF;" d="M376.924,57.854V47.351h7.433v1.968h-5.196v2.205h5.086v1.968h-5.086v2.394h5.196v1.968H376.924z"
			/>
	</g>
	<g>
		<path style="fill:#6D6E71;" d="M69.083,254.477v-9.516h6.52v1.469h-4.851v2.454h4.751v1.47h-4.751v4.123H69.083z"/>
		<path style="fill:#6D6E71;" d="M76.945,254.477v-6.891h1.498v0.998c0.528-0.656,1.355-1.17,2.24-1.17v1.484
			c-0.128-0.028-0.271-0.043-0.457-0.043c-0.642,0-1.484,0.428-1.783,0.928v4.693H76.945z"/>
		<path style="fill:#6D6E71;" d="M81.354,251.024c0-1.983,1.341-3.61,3.538-3.61c2.197,0,3.538,1.627,3.538,3.61
			c0,1.969-1.341,3.623-3.538,3.623C82.695,254.647,81.354,252.993,81.354,251.024z M86.875,251.024
			c0-1.213-0.699-2.283-1.983-2.283c-1.27,0-1.983,1.07-1.983,2.283c0,1.227,0.713,2.297,1.983,2.297
			C86.176,253.321,86.875,252.251,86.875,251.024z"/>
		<path style="fill:#6D6E71;" d="M94.495,254.477v-4.309c0-1.084-0.556-1.427-1.398-1.427c-0.756,0-1.413,0.457-1.769,0.913v4.822
			H89.83v-6.891h1.498v0.927c0.457-0.542,1.355-1.099,2.439-1.099c1.484,0,2.226,0.799,2.226,2.212v4.851H94.495z"/>
		<path style="fill:#6D6E71;" d="M98.105,252.864v-3.98h-1.142v-1.298h1.142v-1.884h1.498v1.884h1.398v1.298h-1.398v3.609
			c0,0.471,0.228,0.828,0.656,0.828c0.285,0,0.542-0.129,0.656-0.257l0.356,1.141c-0.271,0.243-0.713,0.442-1.398,0.442
			C98.705,254.647,98.105,254.02,98.105,252.864z"/>
		<path style="fill:#6D6E71;" d="M105.796,254.477v-9.516h3.538c2.981,0,4.979,1.969,4.979,4.75c0,2.812-1.998,4.766-4.965,4.766
			H105.796z M112.601,249.711c0-1.826-1.142-3.281-3.253-3.281h-1.883v6.577h1.869C111.402,253.007,112.601,251.523,112.601,249.711
			z"/>
		<path style="fill:#6D6E71;" d="M115.342,251.024c0-1.983,1.341-3.61,3.538-3.61c2.197,0,3.538,1.627,3.538,3.61
			c0,1.969-1.341,3.623-3.538,3.623C116.683,254.647,115.342,252.993,115.342,251.024z M120.863,251.024
			c0-1.213-0.699-2.283-1.983-2.283c-1.27,0-1.983,1.07-1.983,2.283c0,1.227,0.713,2.297,1.983,2.297
			C120.164,253.321,120.863,252.251,120.863,251.024z"/>
		<path style="fill:#6D6E71;" d="M123.403,251.024c0-1.983,1.341-3.61,3.538-3.61c2.197,0,3.538,1.627,3.538,3.61
			c0,1.969-1.341,3.623-3.538,3.623C124.744,254.647,123.403,252.993,123.403,251.024z M128.924,251.024
			c0-1.213-0.699-2.283-1.983-2.283c-1.27,0-1.983,1.07-1.983,2.283c0,1.227,0.713,2.297,1.983,2.297
			C128.225,253.321,128.924,252.251,128.924,251.024z"/>
		<path style="fill:#6D6E71;" d="M131.879,254.477v-6.891h1.498v0.998c0.528-0.656,1.355-1.17,2.24-1.17v1.484
			c-0.128-0.028-0.271-0.043-0.457-0.043c-0.642,0-1.484,0.428-1.783,0.928v4.693H131.879z"/>
		<path style="fill:#6D6E71;" d="M142.565,254.477v-8.047h-2.882v-1.469h7.433v1.469h-2.882v8.047H142.565z"/>
		<path style="fill:#6D6E71;" d="M147.274,254.477v-6.891h1.498v0.998c0.528-0.656,1.355-1.17,2.24-1.17v1.484
			c-0.128-0.028-0.271-0.043-0.457-0.043c-0.642,0-1.484,0.428-1.783,0.928v4.693H147.274z"/>
		<path style="fill:#6D6E71;" d="M156.32,254.477v-0.756c-0.514,0.599-1.327,0.927-2.24,0.927c-1.113,0-2.382-0.771-2.382-2.282
			c0-1.598,1.255-2.254,2.382-2.254c0.942,0,1.727,0.299,2.24,0.884v-1.027c0-0.799-0.671-1.283-1.612-1.283
			c-0.771,0-1.455,0.285-2.04,0.884l-0.628-1.041c0.799-0.771,1.798-1.113,2.896-1.113c1.541,0,2.882,0.643,2.882,2.482v4.58H156.32
			z M156.32,252.907v-1.056c-0.357-0.471-0.999-0.714-1.641-0.714c-0.841,0-1.483,0.5-1.483,1.241c0,0.757,0.642,1.241,1.483,1.241
			C155.321,253.62,155.963,253.378,156.32,252.907z"/>
		<path style="fill:#6D6E71;" d="M159.046,253.563l0.685-1.07c0.485,0.5,1.441,0.956,2.326,0.956c0.899,0,1.37-0.371,1.37-0.913
			c0-1.355-4.166-0.385-4.166-3.039c0-1.127,0.97-2.083,2.711-2.083c1.17,0,2.054,0.414,2.668,0.956l-0.628,1.056
			c-0.414-0.456-1.17-0.827-2.04-0.827c-0.785,0-1.27,0.371-1.27,0.856c0,1.212,4.166,0.299,4.166,3.038
			c0,1.228-1.013,2.154-2.868,2.154C160.815,254.647,159.759,254.263,159.046,253.563z"/>
		<path style="fill:#6D6E71;" d="M170.902,254.477v-4.337c0-1.085-0.542-1.398-1.384-1.398c-0.771,0-1.427,0.457-1.769,0.913v4.822
			h-1.498v-9.516h1.498v3.552c0.457-0.542,1.341-1.099,2.425-1.099c1.484,0,2.226,0.771,2.226,2.184v4.879H170.902z"/>
	</g>
	<g>
		<defs>
			<rect id="SVGID_13_" x="2.157" y="0" width="497" height="436.75"/>
		</defs>
		<clipPath id="SVGID_14_">
			<use xlink:href="#SVGID_13_"  style="overflow:visible;"/>
		</clipPath>
		<path style="clip-path:url(#SVGID_14_);fill:#C7C8CA;" d="M160.14,225.216h-14.936c0-13.547-11.021-24.568-24.569-24.568
			c-13.547,0-24.568,11.021-24.568,24.568H81.132c0-21.783,17.722-39.505,39.504-39.505
			C142.418,185.711,160.14,203.433,160.14,225.216"/>
		<path style="clip-path:url(#SVGID_14_);fill:#DC3F28;" d="M120.636,229.112c2.151,0,3.896-1.744,3.896-3.896
			c0-2.151-1.745-3.896-3.896-3.896s-3.896,1.745-3.896,3.896C116.74,227.368,118.484,229.112,120.636,229.112"/>
	</g>
	<g>
		<path style="fill:#6D6E71;" d="M222.68,249.726c0-2.996,2.226-4.922,4.994-4.922c1.854,0,3.067,0.885,3.823,1.969l-1.355,0.784
			c-0.514-0.713-1.413-1.27-2.468-1.27c-1.883,0-3.282,1.427-3.282,3.438c0,1.983,1.398,3.438,3.282,3.438
			c0.97,0,1.826-0.442,2.254-0.856v-1.469h-2.853v-1.47h4.508v3.553c-0.928,1.041-2.269,1.74-3.909,1.74
			C224.906,254.662,222.68,252.707,222.68,249.726z"/>
		<path style="fill:#6D6E71;" d="M233.153,254.477v-6.891h1.498v0.998c0.528-0.656,1.355-1.17,2.24-1.17v1.484
			c-0.128-0.028-0.271-0.043-0.457-0.043c-0.642,0-1.484,0.428-1.783,0.928v4.693H233.153z"/>
		<path style="fill:#6D6E71;" d="M237.563,251.024c0-1.998,1.455-3.61,3.495-3.61c2.069,0,3.381,1.569,3.381,3.738v0.371h-5.307
			c0.114,1.027,0.884,1.897,2.183,1.897c0.685,0,1.47-0.271,1.969-0.771l0.685,0.984c-0.699,0.656-1.712,1.013-2.796,1.013
			C239.089,254.647,237.563,253.207,237.563,251.024z M241.043,248.642c-1.27,0-1.869,0.984-1.926,1.812h3.881
			C242.955,249.64,242.399,248.642,241.043,248.642z"/>
		<path style="fill:#6D6E71;" d="M245.382,251.024c0-1.998,1.455-3.61,3.495-3.61c2.069,0,3.381,1.569,3.381,3.738v0.371h-5.307
			c0.114,1.027,0.884,1.897,2.183,1.897c0.685,0,1.47-0.271,1.969-0.771l0.685,0.984c-0.698,0.656-1.712,1.013-2.796,1.013
			C246.908,254.647,245.382,253.207,245.382,251.024z M248.863,248.642c-1.27,0-1.869,0.984-1.926,1.812h3.881
			C250.774,249.64,250.218,248.642,248.863,248.642z"/>
		<path style="fill:#6D6E71;" d="M253.929,252.864v-3.98h-1.142v-1.298h1.142v-1.884h1.498v1.884h1.398v1.298h-1.398v3.609
			c0,0.471,0.229,0.828,0.656,0.828c0.285,0,0.542-0.129,0.656-0.257l0.356,1.141c-0.271,0.243-0.713,0.442-1.398,0.442
			C254.527,254.647,253.929,254.02,253.929,252.864z"/>
		<path style="fill:#6D6E71;" d="M263.901,254.477v-8.047h-2.882v-1.469h7.434v1.469h-2.883v8.047H263.901z"/>
		<path style="fill:#6D6E71;" d="M269.51,245.816c0-0.514,0.414-0.928,0.928-0.928s0.927,0.414,0.927,0.928
			s-0.413,0.928-0.927,0.928S269.51,246.33,269.51,245.816z M269.681,254.477v-6.891h1.498v6.891H269.681z"/>
		<path style="fill:#6D6E71;" d="M281.451,254.477v-4.494c0-0.742-0.328-1.241-1.142-1.241c-0.671,0-1.298,0.457-1.598,0.913v4.822
			h-1.498v-4.494c0-0.742-0.314-1.241-1.127-1.241c-0.671,0-1.284,0.471-1.599,0.913v4.822h-1.498v-6.891h1.498v0.927
			c0.3-0.413,1.199-1.099,2.255-1.099c1.027,0,1.654,0.514,1.883,1.256c0.386-0.613,1.299-1.256,2.34-1.256
			c1.256,0,1.983,0.686,1.983,2.083v4.979H281.451z"/>
		<path style="fill:#6D6E71;" d="M284.335,251.024c0-1.998,1.455-3.61,3.495-3.61c2.068,0,3.381,1.569,3.381,3.738v0.371h-5.307
			c0.114,1.027,0.885,1.897,2.183,1.897c0.685,0,1.47-0.271,1.969-0.771l0.685,0.984c-0.698,0.656-1.712,1.013-2.796,1.013
			C285.861,254.647,284.335,253.207,284.335,251.024z M287.815,248.642c-1.27,0-1.868,0.984-1.926,1.812h3.881
			C289.728,249.64,289.171,248.642,287.815,248.642z"/>
	</g>
	<g>
		<defs>
			<rect id="SVGID_15_" x="2.157" y="0" width="497" height="436.75"/>
		</defs>
		<clipPath id="SVGID_16_">
			<use xlink:href="#SVGID_15_"  style="overflow:visible;"/>
		</clipPath>
		<path style="clip-path:url(#SVGID_16_);fill:#C7C8CA;" d="M296.358,225.216h-14.936c0-13.547-11.021-24.568-24.569-24.568
			c-13.546,0-24.567,11.021-24.567,24.568H217.35c0-21.783,17.722-39.505,39.503-39.505
			C278.637,185.711,296.358,203.433,296.358,225.216"/>
		<path style="clip-path:url(#SVGID_16_);fill:#FFD100;" d="M256.854,229.112c2.151,0,3.896-1.744,3.896-3.896
			c0-2.151-1.744-3.896-3.896-3.896s-3.896,1.745-3.896,3.896C252.958,227.368,254.703,229.112,256.854,229.112"/>
	</g>
	<g>
		<path style="fill:#6D6E71;" d="M331.968,249.726c0-2.938,2.183-4.922,4.993-4.922c1.912,0,3.11,0.984,3.81,2.126l-1.413,0.741
			c-0.456-0.799-1.384-1.384-2.396-1.384c-1.884,0-3.281,1.427-3.281,3.438c0,1.983,1.397,3.438,3.281,3.438
			c1.013,0,1.94-0.6,2.396-1.384l1.427,0.713c-0.728,1.142-1.911,2.154-3.823,2.154C334.15,254.647,331.968,252.65,331.968,249.726z
			"/>
		<path style="fill:#6D6E71;" d="M346.164,254.477v-0.756c-0.514,0.599-1.327,0.927-2.24,0.927c-1.112,0-2.383-0.771-2.383-2.282
			c0-1.598,1.256-2.254,2.383-2.254c0.941,0,1.727,0.299,2.24,0.884v-1.027c0-0.799-0.671-1.283-1.612-1.283
			c-0.771,0-1.455,0.285-2.04,0.884l-0.628-1.041c0.799-0.771,1.798-1.113,2.896-1.113c1.541,0,2.882,0.643,2.882,2.482v4.58
			H346.164z M346.164,252.907v-1.056c-0.356-0.471-0.999-0.714-1.641-0.714c-0.842,0-1.484,0.5-1.484,1.241
			c0,0.757,0.643,1.241,1.484,1.241C345.165,253.62,345.808,253.378,346.164,252.907z"/>
		<path style="fill:#6D6E71;" d="M348.89,253.563l0.686-1.07c0.484,0.5,1.44,0.956,2.325,0.956c0.898,0,1.37-0.371,1.37-0.913
			c0-1.355-4.166-0.385-4.166-3.039c0-1.127,0.97-2.083,2.71-2.083c1.17,0,2.055,0.414,2.668,0.956l-0.627,1.056
			c-0.414-0.456-1.17-0.827-2.041-0.827c-0.784,0-1.27,0.371-1.27,0.856c0,1.212,4.166,0.299,4.166,3.038
			c0,1.228-1.013,2.154-2.867,2.154C350.659,254.647,349.604,254.263,348.89,253.563z"/>
		<path style="fill:#6D6E71;" d="M360.747,254.477v-4.337c0-1.085-0.542-1.398-1.384-1.398c-0.771,0-1.427,0.457-1.77,0.913v4.822
			h-1.498v-9.516h1.498v3.552c0.457-0.542,1.341-1.099,2.426-1.099c1.483,0,2.226,0.771,2.226,2.184v4.879H360.747z"/>
		<path style="fill:#6D6E71;" d="M363.886,245.816c0-0.514,0.414-0.928,0.928-0.928s0.927,0.414,0.927,0.928
			s-0.413,0.928-0.927,0.928S363.886,246.33,363.886,245.816z M364.057,254.477v-6.891h1.498v6.891H364.057z"/>
		<path style="fill:#6D6E71;" d="M366.939,251.024c0-1.998,1.455-3.61,3.495-3.61c2.068,0,3.381,1.569,3.381,3.738v0.371h-5.307
			c0.114,1.027,0.885,1.897,2.183,1.897c0.685,0,1.47-0.271,1.969-0.771l0.685,0.984c-0.698,0.656-1.712,1.013-2.796,1.013
			C368.466,254.647,366.939,253.207,366.939,251.024z M370.42,248.642c-1.27,0-1.868,0.984-1.926,1.812h3.881
			C372.332,249.64,371.775,248.642,370.42,248.642z"/>
		<path style="fill:#6D6E71;" d="M375.172,254.477v-6.891h1.498v0.998c0.528-0.656,1.355-1.17,2.24-1.17v1.484
			c-0.128-0.028-0.271-0.043-0.456-0.043c-0.643,0-1.484,0.428-1.784,0.928v4.693H375.172z"/>
		<path style="fill:#6D6E71;" d="M383.591,254.477v-9.516h6.521v1.469h-4.851v2.454h4.75v1.47h-4.75v4.123H383.591z"/>
		<path style="fill:#6D6E71;" d="M391.452,254.477v-6.891h1.498v0.998c0.528-0.656,1.355-1.17,2.24-1.17v1.484
			c-0.128-0.028-0.271-0.043-0.456-0.043c-0.643,0-1.484,0.428-1.784,0.928v4.693H391.452z"/>
		<path style="fill:#6D6E71;" d="M396.104,245.816c0-0.514,0.414-0.928,0.928-0.928s0.927,0.414,0.927,0.928
			s-0.413,0.928-0.927,0.928S396.104,246.33,396.104,245.816z M396.274,254.477v-6.891h1.498v6.891H396.274z"/>
		<path style="fill:#6D6E71;" d="M399.157,251.024c0-1.998,1.455-3.61,3.495-3.61c2.068,0,3.381,1.569,3.381,3.738v0.371h-5.307
			c0.114,1.027,0.885,1.897,2.183,1.897c0.685,0,1.47-0.271,1.969-0.771l0.685,0.984c-0.698,0.656-1.712,1.013-2.796,1.013
			C400.684,254.647,399.157,253.207,399.157,251.024z M402.638,248.642c-1.27,0-1.868,0.984-1.926,1.812h3.881
			C404.55,249.64,403.993,248.642,402.638,248.642z"/>
		<path style="fill:#6D6E71;" d="M412.056,254.477v-4.309c0-1.084-0.557-1.427-1.398-1.427c-0.756,0-1.412,0.457-1.77,0.913v4.822
			h-1.498v-6.891h1.498v0.927c0.457-0.542,1.355-1.099,2.44-1.099c1.483,0,2.226,0.799,2.226,2.212v4.851H412.056z"/>
		<path style="fill:#6D6E71;" d="M420.203,254.477v-0.941c-0.528,0.685-1.313,1.112-2.212,1.112c-1.755,0-3.053-1.341-3.053-3.623
			c0-2.227,1.284-3.61,3.053-3.61c0.87,0,1.669,0.386,2.212,1.127v-3.58h1.498v9.516H420.203z M420.203,252.394v-2.725
			c-0.328-0.514-1.07-0.928-1.77-0.928c-1.198,0-1.954,0.956-1.954,2.283c0,1.341,0.756,2.297,1.954,2.297
			C419.133,253.321,419.875,252.907,420.203,252.394z"/>
		<path style="fill:#6D6E71;" d="M423.499,254.477v-9.516h1.498v9.516H423.499z"/>
		<path style="fill:#6D6E71;" d="M431.476,254.477v-4.309c0-1.084-0.557-1.427-1.398-1.427c-0.756,0-1.412,0.457-1.77,0.913v4.822
			h-1.498v-6.891h1.498v0.927c0.457-0.542,1.355-1.099,2.44-1.099c1.483,0,2.226,0.799,2.226,2.212v4.851H431.476z"/>
		<path style="fill:#6D6E71;" d="M434.358,251.024c0-1.998,1.455-3.61,3.495-3.61c2.068,0,3.381,1.569,3.381,3.738v0.371h-5.307
			c0.114,1.027,0.885,1.897,2.183,1.897c0.685,0,1.47-0.271,1.969-0.771l0.685,0.984c-0.698,0.656-1.712,1.013-2.796,1.013
			C435.885,254.647,434.358,253.207,434.358,251.024z M437.839,248.642c-1.27,0-1.868,0.984-1.926,1.812h3.881
			C439.751,249.64,439.194,248.642,437.839,248.642z"/>
		<path style="fill:#6D6E71;" d="M442.006,253.563l0.686-1.07c0.484,0.5,1.44,0.956,2.325,0.956c0.898,0,1.37-0.371,1.37-0.913
			c0-1.355-4.166-0.385-4.166-3.039c0-1.127,0.97-2.083,2.71-2.083c1.17,0,2.055,0.414,2.668,0.956l-0.627,1.056
			c-0.414-0.456-1.17-0.827-2.041-0.827c-0.784,0-1.27,0.371-1.27,0.856c0,1.212,4.166,0.299,4.166,3.038
			c0,1.228-1.013,2.154-2.867,2.154C443.775,254.647,442.72,254.263,442.006,253.563z"/>
		<path style="fill:#6D6E71;" d="M448.611,253.563l0.686-1.07c0.484,0.5,1.44,0.956,2.325,0.956c0.898,0,1.37-0.371,1.37-0.913
			c0-1.355-4.166-0.385-4.166-3.039c0-1.127,0.97-2.083,2.71-2.083c1.17,0,2.055,0.414,2.668,0.956l-0.627,1.056
			c-0.414-0.456-1.17-0.827-2.041-0.827c-0.784,0-1.27,0.371-1.27,0.856c0,1.212,4.166,0.299,4.166,3.038
			c0,1.228-1.013,2.154-2.867,2.154C450.381,254.647,449.325,254.263,448.611,253.563z"/>
	</g>
	<g>
		<defs>
			<rect id="SVGID_17_" x="2.157" y="0" width="497" height="436.75"/>
		</defs>
		<clipPath id="SVGID_18_">
			<use xlink:href="#SVGID_17_"  style="overflow:visible;"/>
		</clipPath>
		<path style="clip-path:url(#SVGID_18_);fill:#C7C8CA;" d="M432.577,225.216h-14.937c0-13.547-11.021-24.568-24.568-24.568
			c-13.547,0-24.567,11.021-24.567,24.568h-14.937c0-21.783,17.722-39.505,39.504-39.505
			C414.855,185.711,432.577,203.433,432.577,225.216"/>
		<path style="clip-path:url(#SVGID_18_);fill:#5FB35B;" d="M393.072,229.112c2.152,0,3.896-1.744,3.896-3.896
			c0-2.151-1.744-3.896-3.896-3.896c-2.151,0-3.896,1.745-3.896,3.896C389.177,227.368,390.921,229.112,393.072,229.112"/>
		<path style="clip-path:url(#SVGID_18_);fill:#C7C8CA;" d="M497.449,325.729c0,6.307-5.132,11.439-11.44,11.439H15.305
			c-6.308,0-11.44-5.133-11.44-11.439V13.146c0-6.307,5.132-11.438,11.44-11.438h470.704c6.309,0,11.44,5.131,11.44,11.438V325.729z
			 M486.009,0H15.305C8.055,0,2.157,5.897,2.157,13.146v312.584c0,7.249,5.898,13.146,13.148,13.146h470.704
			c7.251,0,13.147-5.897,13.147-13.146V13.146C499.156,5.897,493.26,0,486.009,0"/>
	</g>
	<path style="fill:#C7C8CA;" d="M34.67,28.079h431.975v256.68H34.67V28.079z M32.962,286.467h435.389V26.372H32.962V286.467z"/>
	<g>
		<defs>
			<rect id="SVGID_19_" x="2.157" y="0" width="497" height="436.75"/>
		</defs>
		<clipPath id="SVGID_20_">
			<use xlink:href="#SVGID_19_"  style="overflow:visible;"/>
		</clipPath>
		<path style="clip-path:url(#SVGID_20_);fill:#C7C8CA;" d="M333.036,418.746c-24.122-11.147-24.551-46.968-24.552-47.324v-16.374
			h-1.708v16.376c0.002,0.372,0.429,37.268,25.612,48.901c8.501,3.043,20.246,8.611,19.751,11.467
			c-0.131,0.763-1.928,3.251-19.462,3.251H168.637c-17.534,0-19.33-2.488-19.462-3.251c-0.495-2.854,11.25-8.424,19.821-11.495
			c25.114-11.605,25.541-48.501,25.542-48.875v-16.374h-1.708v16.37c-0.002,0.36-0.414,36.173-24.482,47.3
			c-3.644,1.304-21.773,8.079-20.855,13.364c0.376,2.174,3.122,4.668,21.144,4.668h164.041c18.023,0,20.768-2.494,21.145-4.668
			C354.738,426.797,336.609,420.021,333.036,418.746"/>
		<path style="clip-path:url(#SVGID_20_);fill:#C7C8CA;" d="M250.657,306.956c-2.672,0-4.838,2.166-4.838,4.838
			c0,2.671,2.167,4.836,4.838,4.836s4.838-2.165,4.838-4.836C255.495,309.122,253.329,306.956,250.657,306.956"/>
		<path style="clip-path:url(#SVGID_20_);fill:#5FB35B;" d="M368.556,225.216h-14.987c0-21.858,17.783-39.643,39.642-39.643
			c9.095,0,17.981,3.16,25.023,8.896l-9.466,11.62c-4.439-3.616-9.819-5.528-15.558-5.528
			C379.616,200.562,368.556,211.622,368.556,225.216"/>
		<path style="clip-path:url(#SVGID_20_);fill:#FFD100;" d="M232.285,225.216H217.35c0-21.782,17.722-39.505,39.505-39.505
			c2.203,0,4.413,0.184,6.573,0.546l-2.472,14.73c-1.345-0.225-2.724-0.339-4.102-0.339
			C243.308,200.648,232.285,211.669,232.285,225.216"/>
		<path style="clip-path:url(#SVGID_20_);fill:#DC3F28;" d="M96.092,225.216h-14.96c0-12.319,5.587-23.719,15.33-31.278l9.171,11.82
			C99.569,210.462,96.092,217.554,96.092,225.216"/>
	</g>
</g>
</svg>
