<?xml version="1.0" encoding="iso-8859-1"?>
<!-- Generator: Adobe Illustrator 14.0.0, SVG Export Plug-In . SVG Version: 6.00 Build 43363)  -->
<!DOCTYPE svg PUBLIC "-//W3C//DTD SVG 1.1//EN" "http://www.w3.org/Graphics/SVG/1.1/DTD/svg11.dtd">
<svg version="1.1" id="Layer_1" xmlns="http://www.w3.org/2000/svg" xmlns:xlink="http://www.w3.org/1999/xlink" x="0px" y="0px"
	 width="57.004px" height="54.666px" viewBox="0 0 57.004 54.666" style="enable-background:new 0 0 57.004 54.666;"
	 xml:space="preserve">
<g>
	<defs>
		<rect id="SVGID_1_" width="57.005" height="54.666"/>
	</defs>
	<clipPath id="SVGID_2_">
		<use xlink:href="#SVGID_1_"  style="overflow:visible;"/>
	</clipPath>
	<path style="clip-path:url(#SVGID_2_);fill:#789C48;" d="M36.251,7.236v5.962h-2.526v-1.77
		c-3.554,3.054-11.376,8.667-23.307,11.269l-0.538-2.471c11.083-2.409,18.442-7.555,21.895-10.462H30.29V7.236H36.251z
		 M44.343,30.843c6.154,0,11.161,5.009,11.161,11.162c0,6.154-5.007,11.161-11.161,11.161c-6.153,0-11.159-5.007-11.159-11.161
		C33.184,35.852,38.19,30.843,44.343,30.843 M10.513,27.367h5.048v14.046h-5.048V27.367z M42.05,14.818v14.744
		c-1.854,0.342-3.567,1.089-5.048,2.146V14.818H42.05z M19.343,23.184h5.048v18.228h-5.048V23.184z M28.173,19.002h5.047v16.96
		c-0.891,1.632-1.415,3.485-1.508,5.449h-3.54V19.002z M47.258,36.893c-0.409-0.323-0.89-0.563-1.442-0.721
		c-0.299-0.083-0.527-0.125-0.684-0.125v-1.069h-1.275v1.023c-0.977,0-1.811,0.285-2.506,0.859c-0.74,0.609-1.11,1.402-1.11,2.377
		c0,0.663,0.15,1.229,0.452,1.696s0.803,0.875,1.506,1.219c0.312,0.155,0.637,0.266,0.975,0.333
		c0.338,0.063,0.565,0.118,0.684,0.164v3.296c-0.539,0-1.02-0.195-1.434-0.585c-0.377-0.358-0.647-0.823-0.81-1.395l-1.832,0.399
		c0.227,0.956,0.695,1.719,1.403,2.291c0.507,0.409,1.103,0.696,1.783,0.858c0.353,0.085,0.648,0.126,0.889,0.126v1.54h1.275v-1.54
		c1,0,1.86-0.285,2.574-0.858c0.8-0.636,1.199-1.495,1.199-2.574c0-1.058-0.38-1.9-1.14-2.523c-0.64-0.521-1.515-0.864-2.634-1.033
		v-2.954c0.508,0.065,0.901,0.253,1.181,0.565c0.155,0.175,0.308,0.454,0.459,0.839l1.772-0.36
		C48.28,37.977,47.85,37.36,47.258,36.893 M42.754,37.979c0.284-0.227,0.654-0.341,1.103-0.341v2.798
		c-0.438-0.098-0.755-0.204-0.956-0.321c-0.416-0.247-0.623-0.612-0.623-1.092C42.278,38.581,42.436,38.233,42.754,37.979
		 M46.475,45.433c-0.316,0.29-0.765,0.479-1.343,0.57v-3.188c0.371,0,0.744,0.12,1.121,0.359c0.461,0.292,0.693,0.664,0.693,1.112
		C46.947,44.761,46.789,45.144,46.475,45.433 M53.306,33.071C53.753,31.118,54,29.088,54,27C54,12.088,41.911,0,27,0
		C12.088,0,0,12.088,0,27c0,14.911,12.088,27,27,27c3.461,0,6.768-0.659,9.809-1.845c2.107,1.569,4.712,2.511,7.535,2.511
		c6.982,0,12.661-5.68,12.661-12.661C57.004,38.522,55.589,35.363,53.306,33.071"/>
</g>
</svg>
