<?xml version="1.0" encoding="iso-8859-1"?>
<!-- Generator: Adobe Illustrator 14.0.0, SVG Export Plug-In . SVG Version: 6.00 Build 43363)  -->
<!DOCTYPE svg PUBLIC "-//W3C//DTD SVG 1.1//EN" "http://www.w3.org/Graphics/SVG/1.1/DTD/svg11.dtd">
<svg version="1.1" id="Layer_1" xmlns="http://www.w3.org/2000/svg" xmlns:xlink="http://www.w3.org/1999/xlink" x="0px" y="0px"
	 width="57.965px" height="54px" viewBox="0 0 57.965 54" style="enable-background:new 0 0 57.965 54;" xml:space="preserve">
<g>
	<defs>
		<rect id="SVGID_1_" width="57.966" height="54"/>
	</defs>
	<clipPath id="SVGID_2_">
		<use xlink:href="#SVGID_1_"  style="overflow:visible;"/>
	</clipPath>
	<path style="clip-path:url(#SVGID_2_);fill:#00827B;" d="M26.034,33.348c-3.075,0-5.568-2.496-5.568-5.574
		c0-3.077,2.493-5.57,5.568-5.57c3.077,0,5.573,2.494,5.573,5.57C31.607,30.852,29.111,33.348,26.034,33.348 M40.651,25.609
		c0.583,0.137,0.987,0.655,0.987,1.256v2.148c0,0.629-0.453,1.162-1.077,1.27l-2.133,0.365l-0.527,0.09l-0.153,0.512
		c-0.282,0.951-0.685,1.865-1.191,2.719l-0.261,0.447l0.265,0.439l1.036,1.693c0.314,0.513,0.236,1.166-0.185,1.592l-1.52,1.521
		c-0.244,0.242-0.568,0.375-0.914,0.375c-0.271,0-0.526-0.078-0.75-0.238L32.6,38.644l-0.434-0.306l-0.468,0.244
		c-0.702,0.369-1.478,0.672-2.309,0.908l-0.529,0.145l-0.089,0.537l-0.388,2.297c-0.107,0.619-0.646,1.072-1.277,1.072h-2.145
		c-0.601,0-1.121-0.404-1.257-0.98l-0.617-2.529l-0.114-0.479l-0.473-0.145c-0.738-0.223-1.45-0.518-2.126-0.875l-0.468-0.248
		l-0.434,0.309l-2.299,1.631c-0.222,0.154-0.483,0.236-0.749,0.236c-0.346,0-0.675-0.135-0.92-0.381l-1.513-1.52
		c-0.424-0.424-0.5-1.083-0.193-1.584l1.553-2.551l0.261-0.424l-0.236-0.438c-0.385-0.709-0.701-1.465-0.942-2.254l-0.154-0.512
		l-0.523-0.088l-2.5-0.426c-0.624-0.107-1.075-0.642-1.075-1.271v-2.151c0-0.601,0.405-1.119,0.989-1.26l2.605-0.636l0.486-0.115
		l0.138-0.479c0.216-0.744,0.489-1.449,0.816-2.094l0.234-0.463l-0.301-0.423l-1.644-2.319c-0.358-0.506-0.303-1.219,0.136-1.664
		l1.52-1.514c0.246-0.248,0.574-0.38,0.917-0.38c0.234,0,0.466,0.066,0.669,0.185l2.439,1.483l0.432,0.269l0.442-0.254
		c0.783-0.447,1.609-0.801,2.458-1.064l0.47-0.147l0.12-0.476l0.592-2.438c0.14-0.582,0.66-0.984,1.258-0.984h2.15
		c0.629,0,1.172,0.451,1.275,1.078l0.374,2.203l0.091,0.539l0.53,0.149c0.938,0.267,1.849,0.642,2.688,1.119l0.44,0.25l0.43-0.26
		l1.708-1.037c0.21-0.127,0.444-0.192,0.678-0.192c0.345,0,0.666,0.133,0.909,0.377l1.524,1.518c0.45,0.451,0.506,1.148,0.143,1.664
		l-1.086,1.525l-0.312,0.438l0.26,0.475c0.432,0.791,0.781,1.638,1.027,2.521l0.14,0.48l0.483,0.12L40.651,25.609 M47.041,4.359
		h0.013l1.221,0.012c0.368,0.004,0.667,0.268,0.725,0.621l0.2,1.26l0.046,0.309l0.298,0.089c0.54,0.159,1.054,0.377,1.529,0.653
		l0.248,0.142l0.251-0.144l0.979-0.58c0.121-0.069,0.254-0.104,0.391-0.104c0.193,0.002,0.376,0.08,0.512,0.219l0.858,0.877
		c0.25,0.26,0.282,0.654,0.067,0.951l-0.625,0.861L53.57,9.771l0.149,0.272c0.244,0.451,0.431,0.941,0.568,1.443l0.073,0.278
		l0.276,0.072l1.272,0.322c0.333,0.086,0.564,0.383,0.556,0.725l-0.012,1.219c-0.003,0.363-0.267,0.667-0.621,0.72l-1.22,0.194
		l-0.302,0.05l-0.092,0.287c-0.163,0.545-0.401,1.063-0.694,1.549l-0.149,0.252l0.148,0.25l0.579,0.969
		c0.176,0.299,0.125,0.674-0.117,0.908l-0.873,0.86c-0.142,0.132-0.328,0.209-0.526,0.209c-0.151-0.004-0.298-0.053-0.423-0.143
		l-0.919-0.668l-0.248-0.178l-0.27,0.139c-0.399,0.205-0.847,0.369-1.321,0.504l-0.298,0.076l-0.057,0.303l-0.236,1.303
		c-0.064,0.355-0.374,0.609-0.726,0.609h-0.007l-1.228-0.014c-0.336-0.004-0.631-0.238-0.707-0.568l-0.336-1.442l-0.062-0.273
		l-0.269-0.09c-0.418-0.131-0.828-0.299-1.207-0.506l-0.265-0.148l-0.248,0.174l-1.325,0.914c-0.123,0.088-0.267,0.135-0.418,0.135
		h-0.006c-0.2-0.004-0.381-0.084-0.523-0.223l-0.851-0.881c-0.238-0.24-0.285-0.613-0.097-0.902l0.896-1.444l0.152-0.24l-0.133-0.25
		c-0.213-0.406-0.392-0.842-0.522-1.293l-0.084-0.287L40.55,14.9l-1.417-0.257c-0.356-0.063-0.61-0.37-0.607-0.731l0.014-1.23
		c0.004-0.336,0.237-0.629,0.571-0.709l1.49-0.344l0.278-0.065l0.08-0.273c0.129-0.42,0.289-0.818,0.476-1.182l0.137-0.267
		l-0.164-0.244l-0.926-1.325c-0.203-0.295-0.164-0.705,0.088-0.947l0.873-0.857c0.144-0.141,0.326-0.217,0.523-0.217h0.003
		c0.134,0.004,0.267,0.047,0.382,0.115l1.179,0.861l0.247,0.155l0.449-0.139c0.453-0.25,0.924-0.449,1.409-0.594l0.27-0.08
		l0.068-0.267l0.359-1.387C46.414,4.59,46.705,4.359,47.041,4.359 M47.497,16.977c2.046,0,3.705-1.657,3.705-3.704
		c0-2.043-1.659-3.709-3.705-3.709c-2.045,0-3.701,1.666-3.701,3.709C43.795,15.32,45.452,16.977,47.497,16.977 M56.283,10.707
		l-0.725-0.186c-0.072-0.207-0.15-0.41-0.236-0.607l0.271-0.369c0.64-0.883,0.554-2.092-0.205-2.875l-0.865-0.883
		c-0.409-0.422-0.964-0.66-1.558-0.67c-0.421,0-0.814,0.106-1.161,0.303l-0.511,0.303c-0.23-0.112-0.466-0.213-0.706-0.305
		L50.48,4.756c-0.177-1.086-1.099-1.875-2.193-1.885l-1.219-0.012H47.06h-0.02c-1.026,0-1.915,0.696-2.164,1.694l-0.219,0.845
		c-0.233,0.088-0.464,0.186-0.688,0.293l-0.732-0.535l-0.054-0.039l-0.058-0.035c-0.233-0.139-0.488-0.219-0.747-0.27
		C38.013,1.781,32.716,0,27,0C12.088,0,0,12.088,0,27c0,14.91,12.088,27,27,27s27-12.09,27-27c0-1.826-0.185-3.611-0.53-5.336
		c0.249-0.103,0.477-0.248,0.674-0.436l0.894-0.876c0.737-0.715,0.888-1.846,0.356-2.743l-0.283-0.472
		c0.123-0.243,0.233-0.487,0.33-0.733l0.625-0.099c1.081-0.162,1.879-1.086,1.888-2.194l0.012-1.213
		C57.994,11.881,57.301,10.969,56.283,10.707"/>
</g>
</svg>
