<?xml version="1.0" encoding="iso-8859-1"?>
<!-- Generator: Adobe Illustrator 14.0.0, SVG Export Plug-In . SVG Version: 6.00 Build 43363)  -->
<!DOCTYPE svg PUBLIC "-//W3C//DTD SVG 1.1//EN" "http://www.w3.org/Graphics/SVG/1.1/DTD/svg11.dtd">
<svg version="1.1" id="Layer_1" xmlns="http://www.w3.org/2000/svg" xmlns:xlink="http://www.w3.org/1999/xlink" x="0px" y="0px"
	 width="54px" height="62.76px" viewBox="0 0 54 62.76" style="enable-background:new 0 0 54 62.76;" xml:space="preserve">
<g>
	<defs>
		<rect id="SVGID_1_" width="54" height="62.76"/>
	</defs>
	<clipPath id="SVGID_2_">
		<use xlink:href="#SVGID_1_"  style="overflow:visible;"/>
	</clipPath>
	<path style="clip-path:url(#SVGID_2_);fill:#877773;" d="M49.047,25.257l-0.148,5.617l-5.884-0.091l0.032-2.092l2.338,0.036
		L34.061,16.971l-8.572,4.288L12.814,10.024l1.388-1.566l11.614,10.295l8.686-4.341l12.399,12.877l0.056-2.086L49.047,25.257z
		 M25.763,35.873c0.069,0,0.135,0.005,0.198,0.015l7.459,1.129c0.506,0.076,1.042,0.562,1.165,1.062l1.822,7.323
		c0.019,0.082,0.033,0.173,0.037,0.267c0.023,0.491-0.168,1.076-0.455,1.391L23.322,60.97c-0.174,0.192-0.416,0.29-0.657,0.29
		c-0.214,0-0.427-0.077-0.597-0.23l-10.33-9.405c-0.17-0.153-0.273-0.377-0.283-0.614c-0.01-0.238,0.07-0.473,0.223-0.64
		l12.667-13.91C24.658,36.118,25.267,35.873,25.763,35.873 M13.814,14.327l6.145,5.501v17.971h-6.145V14.327z M25.077,24.411
		l4.427-2.214v12.71l-3.319-0.502c-0.134-0.021-0.276-0.032-0.422-0.032c-0.87,0-1.807,0.391-2.404,0.973V22.872L25.077,24.411z
		 M39.049,25.883v11.916h-2.986l-0.021-0.084c-0.269-1.079-1.3-2.017-2.399-2.181l-0.738-0.112V20.497l0.646-0.323L39.049,25.883z
		 M54,27C54,12.088,41.912,0,27,0C12.088,0,0,12.088,0,27c0,8.956,4.364,16.89,11.078,21.802L10.57,49.36
		c-0.415,0.455-0.639,1.077-0.615,1.708c0.03,0.646,0.314,1.252,0.779,1.671l10.324,9.399c0.44,0.4,1.011,0.621,1.607,0.621
		c0.672,0,1.315-0.285,1.766-0.78l7.719-8.477C44.598,51.099,54,40.15,54,27 M31.949,40.938c-0.029-0.611-0.551-1.086-1.16-1.059
		c-0.613,0.029-1.087,0.551-1.059,1.162c0.029,0.61,0.551,1.086,1.162,1.057C31.504,42.071,31.979,41.55,31.949,40.938
		 M28.975,47.14c-0.078-0.474-0.258-0.934-0.534-1.383c-0.151-0.24-0.28-0.41-0.386-0.508l0.662-0.727l-0.868-0.79l-0.631,0.695
		c-0.665-0.604-1.408-0.926-2.235-0.968c-0.881-0.044-1.623,0.264-2.226,0.927c-0.411,0.45-0.659,0.928-0.743,1.433
		c-0.084,0.506,0.004,1.092,0.269,1.759c0.114,0.3,0.267,0.577,0.456,0.83c0.189,0.252,0.31,0.43,0.361,0.535l-2.039,2.237
		c-0.366-0.334-0.57-0.762-0.611-1.285c-0.035-0.476,0.07-0.958,0.313-1.445l-1.492-0.866c-0.436,0.79-0.593,1.599-0.466,2.426
		c0.092,0.591,0.319,1.155,0.682,1.688c0.186,0.273,0.361,0.485,0.524,0.635l-0.953,1.046l0.868,0.79l0.953-1.046
		c0.678,0.62,1.438,0.957,2.279,1.012c0.935,0.063,1.739-0.273,2.407-1.007c0.655-0.719,0.918-1.526,0.787-2.419
		c-0.111-0.749-0.492-1.525-1.147-2.332l1.827-2.005c0.306,0.358,0.456,0.728,0.453,1.114c-0.003,0.216-0.072,0.499-0.209,0.853
		l1.428,0.853C28.996,48.508,29.086,47.822,28.975,47.14 M25.242,45.089c0.335,0.023,0.655,0.174,0.959,0.451l-1.731,1.901
		c-0.236-0.338-0.384-0.608-0.451-0.812c-0.128-0.425-0.045-0.802,0.254-1.127C24.547,45.204,24.869,45.063,25.242,45.089
		 M23.156,52.454c-0.395,0.001-0.815-0.147-1.266-0.443l1.973-2.164c0.253,0.229,0.434,0.541,0.539,0.938
		c0.133,0.482,0.061,0.878-0.217,1.182C23.891,52.29,23.547,52.451,23.156,52.454"/>
</g>
</svg>
