<?xml version="1.0" encoding="iso-8859-1"?>
<!-- Generator: Adobe Illustrator 14.0.0, SVG Export Plug-In . SVG Version: 6.00 Build 43363)  -->
<!DOCTYPE svg PUBLIC "-//W3C//DTD SVG 1.1//EN" "http://www.w3.org/Graphics/SVG/1.1/DTD/svg11.dtd">
<svg version="1.1" id="Layer_1" xmlns="http://www.w3.org/2000/svg" xmlns:xlink="http://www.w3.org/1999/xlink" x="0px" y="0px"
	 width="54px" height="60.162px" viewBox="0 0 54 60.162" style="enable-background:new 0 0 54 60.162;" xml:space="preserve">
<g>
	<defs>
		<rect id="SVGID_1_" y="0" width="54" height="60.161"/>
	</defs>
	<clipPath id="SVGID_2_">
		<use xlink:href="#SVGID_1_"  style="overflow:visible;"/>
	</clipPath>
	<path style="clip-path:url(#SVGID_2_);fill:#B52172;" d="M21.523,34.867c-3.218,1.888-5.404,5.342-5.404,9.345V55.89
		c3.236,1.767,6.943,2.771,10.881,2.771c3.939,0,7.648-1.007,10.884-2.774V44.211c0-4.003-2.187-7.458-5.408-9.344
		c-1.552,1.09-3.438,1.735-5.475,1.735C24.963,36.603,23.077,35.957,21.523,34.867 M39.384,50.984v4.903v0.89l-0.781,0.427
		C35.062,59.138,31.05,60.162,27,60.162c-4.049,0-8.06-1.021-11.6-2.955l-0.781-0.427v-0.89v-4.904C5.945,46.489,0,37.431,0,27.003
		C0,12.114,12.111,0,27,0c14.886,0,27,12.114,27,27.003C54,37.429,48.057,46.486,39.384,50.984 M14.258,26.376
		c0.154-3.033,1.369-5.79,3.274-7.903l-7.018-7.019c-3.698,3.918-6.016,9.148-6.181,14.922H14.258z M18.472,17.532
		c2.251-2.034,5.057-3.128,7.902-3.274V4.33c-5.388,0.159-10.724,2.215-14.923,6.183L18.472,17.532z M35.527,17.532l7.021-7.019
		c-4.198-3.968-9.535-6.024-14.924-6.183v9.928C30.471,14.404,33.275,15.498,35.527,17.532 M43.485,11.452l-7.02,7.02
		c0.42,0.464,0.788,0.958,1.127,1.464l7.738-2.432c0.484-0.151,0.996-0.012,1.337,0.329c0.114,0.113,0.209,0.25,0.277,0.406
		c0.271,0.62,0.03,1.346-0.556,1.682l-7.019,4.029c0.197,0.797,0.326,1.609,0.368,2.426h9.927
		C49.51,20.989,47.451,15.653,43.485,11.452 M35.482,21.991c0.394,0.661,0.719,1.367,0.949,2.116l9.296-5.336L35.482,21.991z
		 M27.001,18.8c-4.55,0-8.239,3.689-8.239,8.239c0,4.551,3.689,8.239,8.239,8.239s8.238-3.688,8.238-8.239
		C35.239,22.489,31.551,18.8,27.001,18.8"/>
</g>
</svg>
