<?xml version="1.0" encoding="iso-8859-1"?>
<!-- Generator: Adobe Illustrator 14.0.0, SVG Export Plug-In . SVG Version: 6.00 Build 43363)  -->
<!DOCTYPE svg PUBLIC "-//W3C//DTD SVG 1.1//EN" "http://www.w3.org/Graphics/SVG/1.1/DTD/svg11.dtd">
<svg version="1.1" id="Layer_1" xmlns="http://www.w3.org/2000/svg" xmlns:xlink="http://www.w3.org/1999/xlink" x="0px" y="0px"
	 width="57px" height="54.514px" viewBox="0 0 57 54.514" style="enable-background:new 0 0 57 54.514;" xml:space="preserve">
<g>
	<defs>
		<rect id="SVGID_1_" y="-0.001" width="57" height="54.515"/>
	</defs>
	<clipPath id="SVGID_2_">
		<use xlink:href="#SVGID_1_"  style="overflow:visible;"/>
	</clipPath>
	<path style="clip-path:url(#SVGID_2_);fill:#484F59;" d="M35.348,19.725c0.881,0.595,1.94,0.944,3.086,0.944
		c3.039,0,5.504-2.461,5.504-5.501c0-3.04-2.465-5.507-5.504-5.507c-2.596,0-4.754,1.801-5.338,4.216
		c1.4,1.3,2.283,3.153,2.283,5.21C35.379,19.303,35.367,19.512,35.348,19.725 M42.133,20.837c-1.041,0.73-2.309,1.164-3.674,1.164
		c-1.197,0-2.309-0.347-3.268-0.923c-0.326,1.295-1.008,2.45-1.934,3.35c2.346,1.543,3.811,4.002,4.039,6.747
		c0.086,0.006,0.172,0.006,0.258,0.011c1.963-1.253,4.287-1.99,6.785-1.99c0.48,0,0.953,0.032,1.42,0.085v-2.175
		C45.76,24.421,44.295,22.102,42.133,20.837 M25.593,23.022c0,0.545-0.058,1.075-0.168,1.587c0.791,0.379,1.67,0.595,2.602,0.595
		c3.326,0,6.025-2.698,6.025-6.023c0-3.33-2.699-6.025-6.025-6.025c-2.5,0-4.643,1.521-5.557,3.69
		C24.361,18.252,25.593,20.492,25.593,23.022 M22.003,29.798c-1.246,0.875-2.757,1.392-4.392,1.392
		c-1.633,0-3.147-0.517-4.391-1.392c-2.582,1.514-4.336,4.282-4.336,7.492v2.749c2.606,1.38,5.572,2.167,8.727,2.167
		c3.152,0,6.119-0.787,8.724-2.167v-2.749C26.335,34.081,24.583,31.312,22.003,29.798 M17.611,29.757
		c3.662,0,6.629-2.969,6.629-6.628c0-3.663-2.967-6.629-6.629-6.629c-3.662,0-6.631,2.966-6.631,6.629
		C10.98,26.789,13.95,29.757,17.611,29.757 M32.156,25.277c-1.159,0.822-2.568,1.31-4.092,1.31c-1.033,0-2.008-0.24-2.895-0.644
		c-0.414,1.144-1.086,2.161-1.953,2.98c2.633,1.688,4.295,4.487,4.502,7.592c0.115,0.002,0.229,0.009,0.346,0.009
		c1.822,0,3.576-0.291,5.221-0.822c0.711-1.271,1.639-2.404,2.729-3.359v-0.296C36.014,29.16,34.456,26.667,32.156,25.277
		 M44.34,30.695c-6.164,0-11.16,4.997-11.16,11.157c0,6.162,4.996,11.162,11.16,11.162s11.159-5,11.159-11.162
		C55.499,35.692,50.504,30.695,44.34,30.695 M56.999,41.852c0,6.982-5.679,12.662-12.659,12.662c-2.764,0-5.316-0.901-7.402-2.411
		C33.861,53.323,30.51,54,27,54C12.087,54,0,41.912,0,27C0,12.088,12.087,0,27,0c14.911,0,27,12.088,27,27
		c0,2.047-0.235,4.038-0.668,5.956C55.598,35.243,56.999,38.387,56.999,41.852 M38.438,48.766c-3.82-3.262-4.27-9.002-1.012-12.816
		c3.258-3.818,8.996-4.271,12.816-1.009c3.818,3.262,4.27,9.002,1.012,12.821C47.994,51.578,42.256,52.029,38.438,48.766
		 M50.385,47.02c2.85-3.336,2.453-8.357-0.886-11.213c-3.339-2.851-8.356-2.456-11.206,0.882c-2.85,3.336-2.453,8.359,0.885,11.21
		C42.518,50.752,47.535,50.358,50.385,47.02 M45.518,41.489c0.037,0.118,0.072,0.236,0.072,0.363c0,0.693-0.561,1.252-1.252,1.252
		c-0.689,0-1.25-0.559-1.25-1.252c0-0.689,0.561-1.25,1.25-1.25c0.061,0,0.111,0.027,0.172,0.035l4.5-4.257L45.518,41.489z"/>
</g>
</svg>
