<?xml version="1.0" encoding="utf-8"?>
<!-- Generator: Adobe Illustrator 14.0.0, SVG Export Plug-In . SVG Version: 6.00 Build 43363)  -->
<!DOCTYPE svg PUBLIC "-//W3C//DTD SVG 1.1//EN" "http://www.w3.org/Graphics/SVG/1.1/DTD/svg11.dtd">
<svg version="1.1" id="Layer_1" xmlns="http://www.w3.org/2000/svg" xmlns:xlink="http://www.w3.org/1999/xlink" x="0px" y="0px"
	 width="63.746px" height="62.729px" viewBox="0 0 63.746 62.729" enable-background="new 0 0 63.746 62.729" xml:space="preserve">
<g id="Layer_1_1_" display="none">
	<g display="inline">
		<g>
			<g>
				<defs>
					<rect id="SVGID_1_" x="4.506" y="5.111" width="54.733" height="52.507"/>
				</defs>
				<clipPath id="SVGID_2_">
					<use xlink:href="#SVGID_1_"  overflow="visible"/>
				</clipPath>
				<path clip-path="url(#SVGID_2_)" fill="#80CCC7" d="M55.903,30.81c0-14.192-11.506-25.698-25.698-25.698
					c-14.193,0-25.699,11.506-25.699,25.698s11.506,25.697,25.699,25.697C44.397,56.507,55.903,45.002,55.903,30.81"/>
			</g>
		</g>
		<rect x="14.512" y="31.158" fill="#FFFFFF" width="4.804" height="13.367"/>
		<rect x="22.917" y="27.177" fill="#FFFFFF" width="4.804" height="17.35"/>
		<rect x="31.321" y="23.196" fill="#FFFFFF" width="4.806" height="21.33"/>
		<rect x="39.726" y="19.215" fill="#FFFFFF" width="4.805" height="25.313"/>
		<g>
			<g>
				<defs>
					<rect id="SVGID_3_" x="4.506" y="5.111" width="54.733" height="52.507"/>
				</defs>
				<clipPath id="SVGID_4_">
					<use xlink:href="#SVGID_3_"  overflow="visible"/>
				</clipPath>
				<path clip-path="url(#SVGID_4_)" fill="#FFFFFF" d="M33.335,11.998v2.405h1.414c-3.287,2.767-10.291,7.664-20.838,9.958
					l0.512,2.353c11.354-2.478,18.801-7.818,22.181-10.727v1.685h2.407v-5.674H33.335z"/>
			</g>
			<g>
				<defs>
					<rect id="SVGID_5_" x="4.506" y="5.111" width="54.733" height="52.507"/>
				</defs>
				<clipPath id="SVGID_6_">
					<use xlink:href="#SVGID_5_"  overflow="visible"/>
				</clipPath>
				<path clip-path="url(#SVGID_6_)" fill="#FFFFFF" d="M46.712,56.665c-6.381,0-11.573-5.191-11.573-11.573
					c0-6.384,5.192-11.576,11.573-11.576c6.383,0,11.576,5.192,11.576,11.576C58.289,51.474,53.095,56.665,46.712,56.665"/>
			</g>
			<g>
				<defs>
					<rect id="SVGID_7_" x="4.506" y="5.111" width="54.733" height="52.507"/>
				</defs>
				<clipPath id="SVGID_8_">
					<use xlink:href="#SVGID_7_"  overflow="visible"/>
				</clipPath>
				<path clip-path="url(#SVGID_8_)" fill="#80CCC7" d="M46.712,32.563c-6.906,0-12.525,5.62-12.525,12.528
					c0,6.905,5.619,12.525,12.525,12.525c6.908,0,12.527-5.62,12.527-12.525C59.24,38.184,53.621,32.563,46.712,32.563
					 M46.712,34.468c5.858,0,10.623,4.766,10.623,10.624c0,5.856-4.765,10.622-10.623,10.622c-5.857,0-10.623-4.766-10.623-10.622
					C36.089,39.233,40.855,34.468,46.712,34.468"/>
			</g>
			<g>
				<defs>
					<rect id="SVGID_9_" x="4.506" y="5.111" width="54.733" height="52.507"/>
				</defs>
				<clipPath id="SVGID_10_">
					<use xlink:href="#SVGID_9_"  overflow="visible"/>
				</clipPath>
				<path clip-path="url(#SVGID_10_)" fill="#80CCC7" d="M49.189,47.264c0-0.428-0.219-0.78-0.659-1.059
					c-0.358-0.229-0.713-0.344-1.067-0.344v3.034c0.552-0.086,0.977-0.269,1.277-0.543C49.041,48.077,49.189,47.714,49.189,47.264
					 M44.748,42.252c0,0.457,0.196,0.806,0.592,1.039c0.193,0.111,0.494,0.214,0.91,0.307v-2.662c-0.426,0-0.777,0.107-1.049,0.323
					C44.896,41.5,44.748,41.832,44.748,42.252 M50.71,41.984l-1.688,0.344c-0.143-0.365-0.288-0.633-0.436-0.799
					c-0.268-0.297-0.642-0.477-1.125-0.537v2.811c1.065,0.161,1.899,0.489,2.507,0.984c0.723,0.592,1.085,1.395,1.085,2.401
					c0,1.026-0.379,1.845-1.141,2.448c-0.681,0.547-1.498,0.817-2.451,0.817v1.466H46.25v-1.466c-0.229,0-0.511-0.039-0.845-0.119
					c-0.649-0.154-1.216-0.428-1.698-0.816c-0.674-0.545-1.119-1.271-1.336-2.182l1.744-0.38c0.154,0.544,0.412,0.985,0.771,1.327
					c0.395,0.37,0.851,0.556,1.363,0.556v-3.136c-0.112-0.044-0.328-0.096-0.649-0.157c-0.322-0.063-0.631-0.169-0.929-0.316
					c-0.668-0.327-1.146-0.714-1.434-1.16c-0.287-0.444-0.431-0.982-0.431-1.613c0-0.928,0.353-1.683,1.058-2.264
					c0.662-0.546,1.457-0.816,2.385-0.816v-0.976h1.215v1.02c0.149,0,0.365,0.04,0.649,0.119c0.526,0.148,0.984,0.378,1.374,0.687
					C50.048,40.669,50.458,41.256,50.71,41.984"/>
			</g>
		</g>
	</g>
</g>
<g id="Layer_2" display="none">
	<g display="inline">
		<g>
			<g>
				<defs>
					<rect id="SVGID_11_" x="4.049" y="5.666" width="55.647" height="51.396"/>
				</defs>
				<clipPath id="SVGID_12_">
					<use xlink:href="#SVGID_11_"  overflow="visible"/>
				</clipPath>
				<path clip-path="url(#SVGID_12_)" fill="#58A5DB" d="M55.446,31.365c0-14.193-11.506-25.698-25.698-25.698
					c-14.193,0-25.699,11.505-25.699,25.698c0,14.191,11.506,25.697,25.699,25.697C43.94,57.063,55.446,45.557,55.446,31.365"/>
			</g>
			<g>
				<defs>
					<rect id="SVGID_13_" x="4.049" y="5.666" width="55.647" height="51.396"/>
				</defs>
				<clipPath id="SVGID_14_">
					<use xlink:href="#SVGID_13_"  overflow="visible"/>
				</clipPath>
				<path clip-path="url(#SVGID_14_)" fill="#FFFFFF" d="M42.742,30.042l-2.131-0.526l-0.46-0.113l-0.135-0.457
					c-0.233-0.84-0.565-1.646-0.978-2.399l-0.246-0.452l0.297-0.415l1.033-1.453c0.346-0.489,0.291-1.152-0.137-1.584l-1.451-1.442
					c-0.23-0.232-0.537-0.358-0.863-0.358c-0.223,0-0.446,0.061-0.646,0.182L35.4,22.006l-0.408,0.248l-0.42-0.238
					c-0.799-0.453-1.664-0.811-2.561-1.064l-0.503-0.142l-0.088-0.513L31.065,18.2c-0.098-0.598-0.614-1.026-1.213-1.026h-2.047
					c-0.569,0-1.064,0.384-1.196,0.938l-0.564,2.319l-0.114,0.454l-0.447,0.14c-0.808,0.25-1.596,0.587-2.339,1.015l-0.422,0.242
					l-0.41-0.259l-2.322-1.411c-0.193-0.112-0.413-0.176-0.636-0.176c-0.327,0-0.64,0.126-0.873,0.361l-1.446,1.442
					c-0.418,0.424-0.47,1.101-0.13,1.584l1.563,2.205l0.287,0.402l-0.222,0.44c-0.313,0.614-0.572,1.285-0.777,1.993l-0.132,0.455
					l-0.462,0.109l-2.48,0.605c-0.556,0.134-0.94,0.628-0.94,1.198v2.048c0,0.6,0.429,1.106,1.022,1.211l2.381,0.402l0.497,0.085
					l0.147,0.486c0.228,0.751,0.529,1.471,0.896,2.146l0.224,0.417l-0.248,0.402l-1.479,2.429c-0.292,0.479-0.218,1.104,0.185,1.509
					l1.439,1.444c0.234,0.234,0.548,0.363,0.876,0.363c0.254,0,0.503-0.079,0.713-0.225l2.189-1.555l0.412-0.293l0.446,0.236
					c0.643,0.34,1.32,0.62,2.022,0.832l0.451,0.138l0.108,0.455l0.587,2.408c0.129,0.548,0.624,0.933,1.195,0.933h2.043
					c0.601,0,1.113-0.43,1.215-1.021l0.37-2.186l0.084-0.512l0.504-0.139c0.79-0.225,1.528-0.514,2.197-0.863l0.444-0.231
					l0.414,0.291l1.549,1.099c0.211,0.154,0.455,0.227,0.713,0.227c0.33,0,0.64-0.127,0.871-0.355l1.444-1.448
					c0.4-0.405,0.476-1.025,0.177-1.515l-0.986-1.612l-0.252-0.418l0.248-0.425c0.484-0.813,0.865-1.685,1.135-2.588l0.146-0.488
					l0.5-0.085l2.031-0.349c0.594-0.102,1.024-0.608,1.024-1.208v-2.045C43.68,30.665,43.296,30.172,42.742,30.042 M28.829,37.407
					c-2.926,0-5.3-2.376-5.3-5.307c0-2.928,2.374-5.301,5.3-5.301c2.928,0,5.305,2.373,5.305,5.301
					C34.132,35.031,31.756,37.407,28.829,37.407"/>
			</g>
			<g>
				<defs>
					<rect id="SVGID_15_" x="4.049" y="5.666" width="55.647" height="51.396"/>
				</defs>
				<clipPath id="SVGID_16_">
					<use xlink:href="#SVGID_15_"  overflow="visible"/>
				</clipPath>
				<path clip-path="url(#SVGID_16_)" fill="#FFFFFF" d="M49.255,15.722c-1.418,0-2.57,1.157-2.57,2.578
					c0,1.419,1.152,2.574,2.57,2.574c1.42,0,2.574-1.155,2.574-2.574C51.832,16.879,50.675,15.722,49.255,15.722 M48.636,27.827
					c-0.766-0.011-1.417-0.534-1.592-1.278l-0.26-1.114c-0.27-0.094-0.533-0.205-0.783-0.327l-1.02,0.704
					c-0.273,0.192-0.602,0.296-0.939,0.296c-0.451-0.008-0.857-0.179-1.168-0.48l-0.83-0.857c-0.531-0.538-0.623-1.397-0.205-2.04
					l0.699-1.129c-0.136-0.284-0.252-0.573-0.351-0.865l-1.063-0.192c-0.793-0.141-1.365-0.83-1.357-1.643l0.012-1.171
					c0.01-0.758,0.533-1.412,1.271-1.591l1.158-0.267c0.095-0.27,0.195-0.521,0.308-0.763L41.8,14.088
					c-0.459-0.664-0.369-1.579,0.203-2.132l0.824-0.812c0.312-0.308,0.726-0.478,1.164-0.478c0.313,0.006,0.603,0.091,0.858,0.246
					l1,0.727c0.354-0.186,0.726-0.344,1.101-0.472l0.274-1.062c0.183-0.729,0.839-1.242,1.596-1.242l1.187,0.013
					c0.806,0.006,1.486,0.59,1.617,1.389l0.146,0.912c0.383,0.129,0.758,0.29,1.116,0.479l0.691-0.41
					c0.271-0.154,0.563-0.232,0.858-0.232c0.454,0.007,0.862,0.184,1.168,0.496l0.815,0.833c0.563,0.583,0.629,1.477,0.152,2.13
					l-0.418,0.576c0.156,0.325,0.29,0.669,0.402,1.03l0.938,0.237c0.756,0.194,1.269,0.867,1.246,1.639l-0.011,1.145
					c-0.006,0.814-0.595,1.496-1.401,1.617l-0.861,0.137c-0.133,0.381-0.305,0.764-0.512,1.138l0.403,0.677
					c0.396,0.667,0.284,1.503-0.267,2.036l-0.826,0.813c-0.326,0.31-0.736,0.473-1.169,0.473c-0.361-0.009-0.685-0.116-0.957-0.313
					l-0.647-0.47c-0.269,0.121-0.563,0.232-0.877,0.334l-0.171,0.938c-0.146,0.791-0.829,1.363-1.628,1.363L48.636,27.827z"/>
			</g>
			<g>
				<defs>
					<rect id="SVGID_17_" x="4.049" y="5.666" width="55.647" height="51.396"/>
				</defs>
				<clipPath id="SVGID_18_">
					<use xlink:href="#SVGID_17_"  overflow="visible"/>
				</clipPath>
				<path clip-path="url(#SVGID_18_)" fill="#58A5DB" d="M49.255,19.921c-0.894,0-1.619-0.728-1.619-1.622
					c0-0.896,0.727-1.625,1.619-1.625c0.896,0,1.623,0.729,1.623,1.625C50.878,19.195,50.151,19.921,49.255,19.921 M48.822,7.912
					c-1.195,0-2.232,0.812-2.521,1.973l-0.146,0.566c-0.067,0.025-0.134,0.055-0.2,0.084l-0.471-0.345l-0.068-0.051l-0.072-0.043
					c-0.398-0.239-0.85-0.373-1.305-0.383h-0.002c-0.736,0-1.388,0.27-1.881,0.756l-0.824,0.813
					c-0.893,0.859-1.033,2.302-0.317,3.341l0.329,0.47l-0.493,0.114c-1.185,0.288-2.007,1.315-2.022,2.506l-0.012,1.176
					c-0.013,1.28,0.893,2.369,2.15,2.59l0.476,0.088l-0.421,0.679c-0.639,0.979-0.496,2.342,0.357,3.204l0.791,0.817l0.021,0.021
					l0.02,0.02c0.484,0.474,1.121,0.739,1.791,0.752h0.002c0.578,0,1.095-0.163,1.535-0.473l0.465-0.322l0.117,0.502
					c0.272,1.17,1.303,1.998,2.506,2.014l1.168,0.013c1.285,0,2.363-0.9,2.59-2.141l0.058-0.312l0.14,0.102
					c0.438,0.313,0.943,0.484,1.472,0.498l0.024,0.001H54.1c0.677,0,1.319-0.257,1.812-0.723l0.856-0.841
					c0.856-0.832,1.032-2.148,0.416-3.191l-0.14-0.229c0.039-0.082,0.076-0.164,0.111-0.247l0.331-0.052
					c1.259-0.19,2.188-1.267,2.197-2.556l0.011-1.152c0.033-1.185-0.771-2.246-1.957-2.554l-0.447-0.111
					c-0.015-0.039-0.029-0.077-0.045-0.115l0.1-0.137c0.746-1.028,0.646-2.438-0.237-3.349l-0.823-0.842
					c-0.477-0.491-1.125-0.77-1.818-0.78h-0.002c-0.487,0-0.942,0.121-1.344,0.352l-0.277,0.165
					c-0.072-0.033-0.146-0.064-0.219-0.096l-0.059-0.362c-0.206-1.266-1.279-2.186-2.555-2.194l-1.157-0.012l-0.011-0.001h-0.021
					V7.912z M49.255,21.826c1.947,0,3.527-1.577,3.527-3.526c0-1.942-1.58-3.529-3.527-3.529c-1.945,0-3.522,1.587-3.522,3.529
					C45.733,20.249,47.31,21.826,49.255,21.826 M48.822,9.816c0.004,0,0.008,0,0.012,0l1.164,0.013
					c0.35,0.003,0.633,0.254,0.688,0.59l0.19,1.199l0.043,0.294l0.283,0.086c0.514,0.149,1.002,0.358,1.457,0.621l0.235,0.136
					l0.237-0.137l0.933-0.553c0.115-0.065,0.241-0.101,0.372-0.101c0.184,0.003,0.355,0.076,0.484,0.208l0.818,0.836
					c0.239,0.246,0.268,0.623,0.063,0.904l-0.595,0.819l-0.174,0.233l0.143,0.259c0.232,0.43,0.41,0.896,0.541,1.374l0.07,0.264
					l0.262,0.068l1.212,0.31c0.317,0.081,0.538,0.362,0.528,0.688l-0.012,1.161c-0.002,0.345-0.252,0.634-0.591,0.687l-1.159,0.184
					l-0.287,0.049l-0.088,0.273c-0.156,0.519-0.382,1.011-0.66,1.474l-0.144,0.239l0.142,0.238l0.551,0.922
					c0.168,0.284,0.119,0.642-0.109,0.863l-0.832,0.818c-0.135,0.127-0.313,0.199-0.502,0.199c-0.145-0.003-0.283-0.051-0.402-0.136
					l-0.875-0.637l-0.234-0.169l-0.256,0.131c-0.381,0.195-0.808,0.354-1.259,0.48l-0.282,0.072l-0.056,0.287l-0.226,1.24
					c-0.062,0.337-0.354,0.58-0.69,0.58h-0.006l-1.167-0.013c-0.32-0.004-0.602-0.229-0.674-0.542l-0.32-1.372l-0.059-0.26
					l-0.256-0.086c-0.396-0.124-0.789-0.284-1.147-0.481l-0.254-0.141l-0.235,0.166l-1.26,0.869
					c-0.118,0.083-0.255,0.127-0.398,0.127h-0.004c-0.19-0.003-0.365-0.079-0.5-0.212l-0.81-0.837
					c-0.228-0.229-0.271-0.585-0.095-0.858l0.854-1.375l0.144-0.229l-0.125-0.238c-0.202-0.387-0.373-0.801-0.498-1.229
					l-0.078-0.272l-0.287-0.055l-1.35-0.246c-0.338-0.059-0.58-0.352-0.578-0.694l0.014-1.171c0.004-0.32,0.227-0.6,0.544-0.677
					l1.419-0.325l0.264-0.063l0.076-0.26c0.123-0.399,0.276-0.779,0.454-1.125l0.13-0.254l-0.156-0.233l-0.881-1.261
					c-0.193-0.28-0.156-0.67,0.084-0.901l0.83-0.815c0.137-0.134,0.313-0.205,0.498-0.205h0.004
					c0.127,0.003,0.254,0.044,0.363,0.108l1.122,0.82l0.233,0.146l0.43-0.132c0.432-0.238,0.879-0.428,1.341-0.564l0.257-0.077
					l0.064-0.254l0.341-1.32C48.225,10.035,48.501,9.816,48.822,9.816"/>
			</g>
		</g>
	</g>
</g>
<g id="Layer_3" display="none">
	<g display="inline">
		<g>
			<g>
				<defs>
					<rect id="SVGID_19_" x="6.174" y="2.496" width="51.397" height="57.736"/>
				</defs>
				<clipPath id="SVGID_20_">
					<use xlink:href="#SVGID_19_"  overflow="visible"/>
				</clipPath>
				<path clip-path="url(#SVGID_20_)" fill="#D03E8C" d="M31.873,2.497c-14.171,0-25.698,11.528-25.698,25.701
					c0,14.171,11.527,25.696,25.698,25.696c14.167,0,25.698-11.525,25.698-25.696C57.571,14.026,46.041,2.497,31.873,2.497"/>
			</g>
			<g>
				<defs>
					<rect id="SVGID_21_" x="6.174" y="2.496" width="51.397" height="57.736"/>
				</defs>
				<clipPath id="SVGID_22_">
					<use xlink:href="#SVGID_21_"  overflow="visible"/>
				</clipPath>
				<path clip-path="url(#SVGID_22_)" fill="#FFFFFF" d="M31.873,59.281c-3.774,0-7.513-0.951-10.812-2.756l-0.496-0.27v-11.68
					c0-4.022,2.099-7.654,5.614-9.717l0.528-0.309l0.5,0.352c1.38,0.97,2.994,1.479,4.667,1.479c1.672,0,3.286-0.511,4.665-1.479
					l0.5-0.351l0.528,0.309c3.517,2.062,5.617,5.691,5.617,9.716v11.678l-0.495,0.271C39.388,58.327,35.647,59.281,31.873,59.281"/>
			</g>
			<g>
				<defs>
					<rect id="SVGID_23_" x="6.174" y="2.496" width="51.397" height="57.736"/>
				</defs>
				<clipPath id="SVGID_24_">
					<use xlink:href="#SVGID_23_"  overflow="visible"/>
				</clipPath>
				<path clip-path="url(#SVGID_24_)" fill="#D03E8C" d="M26.752,33.42l-1.055,0.619c-3.81,2.233-6.084,6.173-6.084,10.536v11.115
					v1.129l0.991,0.542c3.439,1.879,7.335,2.87,11.268,2.87c3.934,0,7.833-0.992,11.272-2.873l0.99-0.542v-1.129V44.576
					c0-4.365-2.275-8.304-6.088-10.536l-1.055-0.618l-1,0.703c-1.218,0.854-2.642,1.306-4.119,1.306
					c-1.476,0-2.901-0.452-4.12-1.307L26.752,33.42z M26.661,35.681c1.478,1.037,3.273,1.653,5.213,1.653
					c1.939,0,3.734-0.615,5.211-1.652c3.065,1.795,5.146,5.083,5.146,8.895v11.112c-3.08,1.684-6.609,2.642-10.359,2.642
					c-3.748,0-7.277-0.957-10.356-2.639V44.576C21.517,40.765,23.597,37.478,26.661,35.681"/>
			</g>
			<g>
				<defs>
					<rect id="SVGID_25_" x="6.174" y="2.496" width="51.397" height="57.736"/>
				</defs>
				<clipPath id="SVGID_26_">
					<use xlink:href="#SVGID_25_"  overflow="visible"/>
				</clipPath>
				<path clip-path="url(#SVGID_26_)" fill="#FFFFFF" d="M19.744,27.601c0.148-2.888,1.303-5.512,3.117-7.521l-6.68-6.681
					c-3.52,3.729-5.726,8.706-5.883,14.202H19.744z"/>
			</g>
			<g>
				<defs>
					<rect id="SVGID_27_" x="6.174" y="2.496" width="51.397" height="57.736"/>
				</defs>
				<clipPath id="SVGID_28_">
					<use xlink:href="#SVGID_27_"  overflow="visible"/>
				</clipPath>
				<path clip-path="url(#SVGID_28_)" fill="#FFFFFF" d="M23.755,19.182c2.143-1.935,4.814-2.977,7.521-3.116V6.618
					c-5.128,0.15-10.207,2.106-14.203,5.885L23.755,19.182z"/>
			</g>
			<g>
				<defs>
					<rect id="SVGID_29_" x="6.174" y="2.496" width="51.397" height="57.736"/>
				</defs>
				<clipPath id="SVGID_30_">
					<use xlink:href="#SVGID_29_"  overflow="visible"/>
				</clipPath>
				<path clip-path="url(#SVGID_30_)" fill="#FFFFFF" d="M39.989,19.182c-2.143-1.935-4.813-2.977-7.521-3.116V6.618
					c5.128,0.15,10.207,2.106,14.203,5.885L39.989,19.182z"/>
			</g>
			<g>
				<defs>
					<rect id="SVGID_31_" x="6.174" y="2.496" width="51.397" height="57.736"/>
				</defs>
				<clipPath id="SVGID_32_">
					<use xlink:href="#SVGID_31_"  overflow="visible"/>
				</clipPath>
				<path clip-path="url(#SVGID_32_)" fill="#FFFFFF" d="M47.563,13.396l-6.681,6.683c0.4,0.44,0.75,0.911,1.072,1.393l7.365-2.313
					c0.461-0.145,0.948-0.012,1.271,0.313c0.109,0.108,0.199,0.238,0.265,0.386c0.258,0.59,0.03,1.282-0.528,1.604l-6.681,3.834
					c0.188,0.759,0.312,1.53,0.351,2.309h9.448C53.296,22.473,51.337,17.394,47.563,13.396"/>
			</g>
			<g>
				<defs>
					<rect id="SVGID_33_" x="6.174" y="2.496" width="51.397" height="57.736"/>
				</defs>
				<clipPath id="SVGID_34_">
					<use xlink:href="#SVGID_33_"  overflow="visible"/>
				</clipPath>
				<path clip-path="url(#SVGID_34_)" fill="#FFFFFF" d="M39.947,23.426c0.374,0.629,0.684,1.301,0.903,2.014l8.849-5.079
					L39.947,23.426z"/>
			</g>
			<g>
				<defs>
					<rect id="SVGID_35_" x="6.174" y="2.496" width="51.397" height="57.736"/>
				</defs>
				<clipPath id="SVGID_36_">
					<use xlink:href="#SVGID_35_"  overflow="visible"/>
				</clipPath>
				<path clip-path="url(#SVGID_36_)" fill="#FFFFFF" d="M31.874,20.39c4.331,0,7.84,3.51,7.84,7.842c0,4.331-3.51,7.842-7.84,7.842
					c-4.331,0-7.842-3.511-7.842-7.842C24.032,23.9,27.542,20.39,31.874,20.39"/>
			</g>
		</g>
	</g>
</g>
<g id="Layer_4" display="none">
	<g display="inline">
		<g>
			<g>
				<defs>
					<rect id="SVGID_37_" x="3.319" y="0" width="57.106" height="62.729"/>
				</defs>
				<clipPath id="SVGID_38_">
					<use xlink:href="#SVGID_37_"  overflow="visible"/>
				</clipPath>
				<path clip-path="url(#SVGID_38_)" fill="#FAA41A" d="M60.425,34.175c0-15.77-12.783-28.554-28.552-28.554
					c-15.77,0-28.553,12.784-28.553,28.554s12.783,28.554,28.554,28.554C47.642,62.729,60.425,49.944,60.425,34.175"/>
			</g>
			<g>
				<defs>
					<rect id="SVGID_39_" x="3.319" y="0" width="57.106" height="62.729"/>
				</defs>
				<clipPath id="SVGID_40_">
					<use xlink:href="#SVGID_39_"  overflow="visible"/>
				</clipPath>
				<path clip-path="url(#SVGID_40_)" fill="#FFFFFF" d="M38.38,20.277v-8.033c0-2.77-2.25-5.021-5.018-5.021h-3.149
					c-2.767,0-5.019,2.251-5.019,5.021v8.033H38.38z M32.748,40.27l-0.603-6.563l0.567-0.342c0.554-0.333,0.885-0.912,0.885-1.549
					c0-0.996-0.811-1.807-1.807-1.807c-0.997,0-1.807,0.811-1.807,1.807c0,0.637,0.331,1.216,0.884,1.549l0.568,0.342l-0.604,6.563
					H32.748z M15.047,49.217v-28.94h3.984v-8.033c0-6.167,5.016-11.188,11.183-11.188h3.149c6.167,0,11.186,5.021,11.186,11.188
					v8.033h3.981v28.939L15.047,49.217L15.047,49.217z"/>
			</g>
			<g>
				<defs>
					<rect id="SVGID_41_" x="3.319" y="0" width="57.106" height="62.729"/>
				</defs>
				<clipPath id="SVGID_42_">
					<use xlink:href="#SVGID_41_"  overflow="visible"/>
				</clipPath>
				<path clip-path="url(#SVGID_42_)" fill="#FAA41A" d="M31.79,32.685l-0.376-0.227c-0.112-0.067-0.372-0.267-0.372-0.644
					c0-0.413,0.336-0.749,0.749-0.749s0.75,0.336,0.75,0.749c0,0.377-0.261,0.574-0.373,0.644L31.79,32.685z M26.253,19.22v-6.977
					c0-2.186,1.777-3.961,3.961-3.961h3.149c2.184,0,3.961,1.775,3.961,3.961v6.977H26.253z M33.364,0h-3.149
					c-6.749,0-12.241,5.492-12.241,12.243v6.977h-1.867H13.99v2.115V48.16v2.113h2.116h31.367h2.114V48.16V21.335V19.22h-2.114
					h-1.867v-6.977C45.606,5.492,40.114,0,33.364,0 M29.673,41.328h2.117h2.115l-0.647-7.06c0.836-0.503,1.396-1.406,1.396-2.454
					c0-1.583-1.283-2.862-2.864-2.862c-1.581,0-2.864,1.279-2.864,2.862c0,1.048,0.562,1.951,1.396,2.454L29.673,41.328z
					 M47.473,48.16H16.106V21.335h31.367V48.16z M33.364,2.115c5.583,0,10.128,4.545,10.128,10.128v7.96h-4.053v-7.96
					c0-3.354-2.727-6.076-6.075-6.076h-3.149c-3.349,0-6.076,2.723-6.076,6.076v7.96h-4.05v-7.96
					c0-5.583,4.544-10.128,10.126-10.128H33.364z"/>
			</g>
		</g>
	</g>
</g>
<g id="Layer_6" display="none">
	<g display="inline">
		<g>
			<g>
				<defs>
					<rect id="SVGID_43_" x="3.042" y="2.534" width="57.661" height="57.66"/>
				</defs>
				<clipPath id="SVGID_44_">
					<use xlink:href="#SVGID_43_"  overflow="visible"/>
				</clipPath>
				<path clip-path="url(#SVGID_44_)" fill="#829D50" d="M60.705,31.365c0,15.921-12.91,28.828-28.831,28.828
					c-15.925,0-28.831-12.907-28.831-28.828c0-15.925,12.906-28.83,28.831-28.83C47.794,2.535,60.705,15.441,60.705,31.365"/>
			</g>
			<g>
				<defs>
					<rect id="SVGID_45_" x="3.042" y="2.534" width="57.661" height="57.66"/>
				</defs>
				<clipPath id="SVGID_46_">
					<use xlink:href="#SVGID_45_"  overflow="visible"/>
				</clipPath>
				<path clip-path="url(#SVGID_46_)" fill="#FFFFFF" d="M45.347,37.907c-1.563-2.415-3.984-4.225-6.84-4.979
					c-1.799,1.677-4.204,2.715-6.854,2.715c-2.647,0-5.054-1.038-6.854-2.715c-2.599,0.688-4.841,2.25-6.404,4.347
					c2.063,1.094,7.004,3.257,13.813,3.257C36.566,40.531,40.974,39.649,45.347,37.907"/>
			</g>
			<g>
				<defs>
					<rect id="SVGID_47_" x="3.042" y="2.534" width="57.661" height="57.66"/>
				</defs>
				<clipPath id="SVGID_48_">
					<use xlink:href="#SVGID_47_"  overflow="visible"/>
				</clipPath>
				<path clip-path="url(#SVGID_48_)" fill="#FFFFFF" d="M47.222,45.862v-1.639c0-0.347-0.016-0.691-0.043-1.031l-0.385-1.898
					c-4.904,1.979-9.834,2.98-14.7,2.98c-7.476,0-12.945-2.396-15.411-3.729c-0.386,1.158-0.601,2.392-0.601,3.678v0.778
					c2.699,1.155,8.499,3.151,16.388,3.151C37.371,48.154,42.313,47.385,47.222,45.862"/>
			</g>
			<g>
				<defs>
					<rect id="SVGID_49_" x="3.042" y="2.534" width="57.661" height="57.66"/>
				</defs>
				<clipPath id="SVGID_50_">
					<use xlink:href="#SVGID_49_"  overflow="visible"/>
				</clipPath>
				<path clip-path="url(#SVGID_50_)" fill="#FFFFFF" d="M31.653,33.917c5.075,0,9.187-4.744,9.187-10.597
					c0-0.94-0.105-1.854-0.309-2.726l-1.688,2.724c-0.406,1.366-1.895,2.355-3.723,2.355c-1.16,0-2.178-0.399-2.877-1.039h-1.186
					c-0.697,0.64-1.719,1.039-2.876,1.039c-1.817,0-3.299-0.977-3.718-2.329l-1.691-2.736c-0.2,0.867-0.307,1.776-0.307,2.712
					C22.466,29.173,26.58,33.917,31.653,33.917"/>
			</g>
			<g>
				<defs>
					<rect id="SVGID_51_" x="3.042" y="2.534" width="57.661" height="57.66"/>
				</defs>
				<clipPath id="SVGID_52_">
					<use xlink:href="#SVGID_51_"  overflow="visible"/>
				</clipPath>
				<path clip-path="url(#SVGID_52_)" fill="#FFFFFF" d="M39.02,17.001c-1.672-2.593-4.349-4.275-7.368-4.275
					c-3.698,0-6.884,2.524-8.34,6.155l2.351,1.311l-0.002,0.012c0.669-0.469,1.546-0.751,2.521-0.751
					c1.091,0,2.062,0.353,2.751,0.926h1.438c0.691-0.573,1.664-0.926,2.751-0.926c0.971,0,1.842,0.277,2.512,0.742l-0.002-0.003
					l2.242-1.249c0.135-0.027,0.104-0.103,0.256-0.132"/>
			</g>
			<g>
				<defs>
					<rect id="SVGID_53_" x="3.042" y="2.534" width="57.661" height="57.66"/>
				</defs>
				<clipPath id="SVGID_54_">
					<use xlink:href="#SVGID_53_"  overflow="visible"/>
				</clipPath>
				<path clip-path="url(#SVGID_54_)" fill="#FFFFFF" d="M29.809,22.534c0,0.717-0.79,1.298-1.763,1.298
					c-0.975,0-1.764-0.581-1.764-1.298c0-0.718,0.789-1.299,1.764-1.299C29.019,21.236,29.809,21.817,29.809,22.534"/>
			</g>
			<g>
				<defs>
					<rect id="SVGID_55_" x="3.042" y="2.534" width="57.661" height="57.66"/>
				</defs>
				<clipPath id="SVGID_56_">
					<use xlink:href="#SVGID_55_"  overflow="visible"/>
				</clipPath>
				<path clip-path="url(#SVGID_56_)" fill="#FFFFFF" d="M36.828,22.534c0,0.717-0.789,1.298-1.763,1.298S33.3,23.251,33.3,22.534
					c0-0.718,0.791-1.299,1.765-1.299S36.828,21.817,36.828,22.534"/>
			</g>
		</g>
	</g>
</g>
<g>
	<path fill="#00958F" d="M56.903,31.378c0-15.649-12.686-28.335-28.336-28.335c-15.649,0-28.335,12.687-28.335,28.335
		c0,15.649,12.686,28.335,28.335,28.335C44.217,59.713,56.903,47.028,56.903,31.378"/>
	<path fill="#FFFFFF" d="M59.471,47.679c-0.586,0-1.145-0.184-1.611-0.534L33.821,29.196l-4.447,5.965
		c-0.511,0.68-1.322,1.086-2.177,1.086c-0.588,0-1.148-0.185-1.618-0.535l-6.636-4.95c-0.578-0.43-0.956-1.062-1.06-1.782
		c-0.104-0.718,0.076-1.432,0.507-2.012l12.499-16.755c0.507-0.679,1.322-1.088,2.178-1.088c0.59,0,1.15,0.185,1.617,0.535
		l6.635,4.95c1.199,0.893,1.447,2.596,0.555,3.793l-4.555,6.106l24.029,17.949c1.199,0.895,1.447,2.597,0.557,3.792l-0.256,0.341
		C61.143,47.273,60.329,47.679,59.471,47.679"/>
	<path fill="#00958F" d="M33.067,8.076c-1.188,0-2.316,0.564-3.021,1.511L17.549,26.34c-0.599,0.804-0.848,1.794-0.705,2.791
		c0.146,0.996,0.668,1.874,1.474,2.473l6.632,4.949c0.655,0.487,1.43,0.744,2.245,0.744c1.185,0,2.312-0.566,3.019-1.509
		l3.822-5.124l23.189,17.318c0.66,0.49,1.436,0.747,2.246,0.747c1.188,0,2.316-0.565,3.018-1.512l0.258-0.347
		c1.232-1.655,0.893-4.016-0.768-5.256l-23.195-17.32l3.93-5.265c1.24-1.663,0.893-4.024-0.77-5.264l-6.631-4.95
		C34.665,8.331,33.885,8.076,33.067,8.076 M33.067,10.175c0.346,0,0.693,0.103,0.99,0.324l6.635,4.953
		c0.732,0.544,0.885,1.592,0.338,2.324l-5.182,6.946l24.875,18.576c0.73,0.547,0.885,1.592,0.336,2.326l-0.254,0.343
		c-0.326,0.436-0.824,0.664-1.334,0.664c-0.346,0-0.695-0.11-0.99-0.328L33.608,27.725l-5.075,6.806
		c-0.327,0.437-0.83,0.667-1.337,0.667c-0.344,0-0.692-0.105-0.989-0.328l-6.636-4.949c-0.734-0.544-0.886-1.592-0.338-2.326
		l12.5-16.755C32.055,10.404,32.558,10.175,33.067,10.175"/>
	<path fill="#FFFFFF" d="M37.84,40.875c0.539,0,0.979,0.437,0.979,0.978v0.883h1.746c0.545,0,0.982,0.436,0.982,0.979v3.102H12.44
		v-3.102c0-0.543,0.438-0.979,0.981-0.979h1.747v-0.883c0-0.541,0.437-0.978,0.98-0.978H37.84z"/>
</g>
</svg>
