<?xml version="1.0" encoding="utf-8"?>
<!-- Generator: Adobe Illustrator 14.0.0, SVG Export Plug-In . SVG Version: 6.00 Build 43363)  -->
<!DOCTYPE svg PUBLIC "-//W3C//DTD SVG 1.1//EN" "http://www.w3.org/Graphics/SVG/1.1/DTD/svg11.dtd">
<svg version="1.1" id="Layer_1" xmlns="http://www.w3.org/2000/svg" xmlns:xlink="http://www.w3.org/1999/xlink" x="0px" y="0px"
	 width="63.746px" height="62.729px" viewBox="0 0 63.746 62.729" enable-background="new 0 0 63.746 62.729" xml:space="preserve">
<g id="Layer_1_1_" display="none">
	<g display="inline">
		<g>
			<g>
				<defs>
					<rect id="SVGID_1_" x="4.506" y="5.111" width="54.733" height="52.507"/>
				</defs>
				<clipPath id="SVGID_2_">
					<use xlink:href="#SVGID_1_"  overflow="visible"/>
				</clipPath>
				<path clip-path="url(#SVGID_2_)" fill="#80CCC7" d="M55.903,30.81c0-14.192-11.506-25.698-25.698-25.698
					c-14.193,0-25.699,11.506-25.699,25.698s11.506,25.697,25.699,25.697C44.397,56.507,55.903,45.002,55.903,30.81"/>
			</g>
		</g>
		<rect x="14.512" y="31.158" fill="#FFFFFF" width="4.804" height="13.367"/>
		<rect x="22.917" y="27.177" fill="#FFFFFF" width="4.804" height="17.35"/>
		<rect x="31.321" y="23.196" fill="#FFFFFF" width="4.806" height="21.33"/>
		<rect x="39.726" y="19.215" fill="#FFFFFF" width="4.805" height="25.313"/>
		<g>
			<g>
				<defs>
					<rect id="SVGID_3_" x="4.506" y="5.111" width="54.733" height="52.507"/>
				</defs>
				<clipPath id="SVGID_4_">
					<use xlink:href="#SVGID_3_"  overflow="visible"/>
				</clipPath>
				<path clip-path="url(#SVGID_4_)" fill="#FFFFFF" d="M33.335,11.998v2.405h1.414c-3.287,2.767-10.291,7.664-20.838,9.958
					l0.512,2.353c11.354-2.478,18.801-7.818,22.181-10.727v1.685h2.407v-5.674H33.335z"/>
			</g>
			<g>
				<defs>
					<rect id="SVGID_5_" x="4.506" y="5.111" width="54.733" height="52.507"/>
				</defs>
				<clipPath id="SVGID_6_">
					<use xlink:href="#SVGID_5_"  overflow="visible"/>
				</clipPath>
				<path clip-path="url(#SVGID_6_)" fill="#FFFFFF" d="M46.712,56.665c-6.381,0-11.573-5.191-11.573-11.573
					c0-6.384,5.192-11.576,11.573-11.576c6.383,0,11.576,5.192,11.576,11.576C58.289,51.474,53.095,56.665,46.712,56.665"/>
			</g>
			<g>
				<defs>
					<rect id="SVGID_7_" x="4.506" y="5.111" width="54.733" height="52.507"/>
				</defs>
				<clipPath id="SVGID_8_">
					<use xlink:href="#SVGID_7_"  overflow="visible"/>
				</clipPath>
				<path clip-path="url(#SVGID_8_)" fill="#80CCC7" d="M46.712,32.563c-6.906,0-12.525,5.62-12.525,12.528
					c0,6.905,5.619,12.525,12.525,12.525c6.908,0,12.527-5.62,12.527-12.525C59.24,38.184,53.621,32.563,46.712,32.563
					 M46.712,34.468c5.858,0,10.623,4.766,10.623,10.624c0,5.856-4.765,10.622-10.623,10.622c-5.857,0-10.623-4.766-10.623-10.622
					C36.089,39.233,40.855,34.468,46.712,34.468"/>
			</g>
			<g>
				<defs>
					<rect id="SVGID_9_" x="4.506" y="5.111" width="54.733" height="52.507"/>
				</defs>
				<clipPath id="SVGID_10_">
					<use xlink:href="#SVGID_9_"  overflow="visible"/>
				</clipPath>
				<path clip-path="url(#SVGID_10_)" fill="#80CCC7" d="M49.189,47.264c0-0.428-0.219-0.78-0.659-1.059
					c-0.358-0.229-0.713-0.344-1.067-0.344v3.034c0.552-0.086,0.977-0.269,1.277-0.543C49.041,48.077,49.189,47.714,49.189,47.264
					 M44.748,42.252c0,0.457,0.196,0.806,0.592,1.039c0.193,0.111,0.494,0.214,0.91,0.307v-2.662c-0.426,0-0.777,0.107-1.049,0.323
					C44.896,41.5,44.748,41.832,44.748,42.252 M50.71,41.984l-1.688,0.344c-0.143-0.365-0.288-0.633-0.436-0.799
					c-0.268-0.297-0.642-0.477-1.125-0.537v2.811c1.065,0.161,1.899,0.489,2.507,0.984c0.723,0.592,1.085,1.395,1.085,2.401
					c0,1.026-0.379,1.845-1.141,2.448c-0.681,0.547-1.498,0.817-2.451,0.817v1.466H46.25v-1.466c-0.229,0-0.511-0.039-0.845-0.119
					c-0.649-0.154-1.216-0.428-1.698-0.816c-0.674-0.545-1.119-1.271-1.336-2.182l1.744-0.38c0.154,0.544,0.412,0.985,0.771,1.327
					c0.395,0.37,0.851,0.556,1.363,0.556v-3.136c-0.112-0.044-0.328-0.096-0.649-0.157c-0.322-0.063-0.631-0.169-0.929-0.316
					c-0.668-0.327-1.146-0.714-1.434-1.16c-0.287-0.444-0.431-0.982-0.431-1.613c0-0.928,0.353-1.683,1.058-2.264
					c0.662-0.546,1.457-0.816,2.385-0.816v-0.976h1.215v1.02c0.149,0,0.365,0.04,0.649,0.119c0.526,0.148,0.984,0.378,1.374,0.687
					C50.048,40.669,50.458,41.256,50.71,41.984"/>
			</g>
		</g>
	</g>
</g>
<g id="Layer_3" display="none">
	<g display="inline">
		<g>
			<g>
				<defs>
					<rect id="SVGID_11_" x="6.174" y="2.496" width="51.397" height="57.736"/>
				</defs>
				<clipPath id="SVGID_12_">
					<use xlink:href="#SVGID_11_"  overflow="visible"/>
				</clipPath>
				<path clip-path="url(#SVGID_12_)" fill="#D03E8C" d="M31.873,2.497c-14.171,0-25.698,11.528-25.698,25.701
					c0,14.171,11.527,25.696,25.698,25.696c14.167,0,25.698-11.525,25.698-25.696C57.571,14.026,46.041,2.497,31.873,2.497"/>
			</g>
			<g>
				<defs>
					<rect id="SVGID_13_" x="6.174" y="2.496" width="51.397" height="57.736"/>
				</defs>
				<clipPath id="SVGID_14_">
					<use xlink:href="#SVGID_13_"  overflow="visible"/>
				</clipPath>
				<path clip-path="url(#SVGID_14_)" fill="#FFFFFF" d="M31.873,59.281c-3.774,0-7.513-0.951-10.812-2.756l-0.496-0.27v-11.68
					c0-4.022,2.099-7.654,5.614-9.717l0.528-0.309l0.5,0.352c1.38,0.97,2.994,1.479,4.667,1.479c1.672,0,3.286-0.511,4.665-1.479
					l0.5-0.351l0.528,0.309c3.517,2.062,5.617,5.691,5.617,9.716v11.678l-0.495,0.271C39.388,58.327,35.647,59.281,31.873,59.281"/>
			</g>
			<g>
				<defs>
					<rect id="SVGID_15_" x="6.174" y="2.496" width="51.397" height="57.736"/>
				</defs>
				<clipPath id="SVGID_16_">
					<use xlink:href="#SVGID_15_"  overflow="visible"/>
				</clipPath>
				<path clip-path="url(#SVGID_16_)" fill="#D03E8C" d="M26.752,33.42l-1.055,0.619c-3.81,2.233-6.084,6.173-6.084,10.536v11.115
					v1.129l0.991,0.542c3.439,1.879,7.335,2.87,11.268,2.87c3.934,0,7.833-0.992,11.272-2.873l0.99-0.542v-1.129V44.576
					c0-4.365-2.275-8.304-6.088-10.536l-1.055-0.618l-1,0.703c-1.218,0.854-2.642,1.306-4.119,1.306
					c-1.476,0-2.901-0.452-4.12-1.307L26.752,33.42z M26.661,35.681c1.478,1.037,3.273,1.653,5.213,1.653
					c1.939,0,3.734-0.615,5.211-1.652c3.065,1.795,5.146,5.083,5.146,8.895v11.112c-3.08,1.684-6.609,2.642-10.359,2.642
					c-3.748,0-7.277-0.957-10.356-2.639V44.576C21.517,40.765,23.597,37.478,26.661,35.681"/>
			</g>
			<g>
				<defs>
					<rect id="SVGID_17_" x="6.174" y="2.496" width="51.397" height="57.736"/>
				</defs>
				<clipPath id="SVGID_18_">
					<use xlink:href="#SVGID_17_"  overflow="visible"/>
				</clipPath>
				<path clip-path="url(#SVGID_18_)" fill="#FFFFFF" d="M19.744,27.601c0.148-2.888,1.303-5.512,3.117-7.521l-6.68-6.681
					c-3.52,3.729-5.726,8.706-5.883,14.202H19.744z"/>
			</g>
			<g>
				<defs>
					<rect id="SVGID_19_" x="6.174" y="2.496" width="51.397" height="57.736"/>
				</defs>
				<clipPath id="SVGID_20_">
					<use xlink:href="#SVGID_19_"  overflow="visible"/>
				</clipPath>
				<path clip-path="url(#SVGID_20_)" fill="#FFFFFF" d="M23.755,19.182c2.143-1.935,4.814-2.977,7.521-3.116V6.618
					c-5.128,0.15-10.207,2.106-14.203,5.885L23.755,19.182z"/>
			</g>
			<g>
				<defs>
					<rect id="SVGID_21_" x="6.174" y="2.496" width="51.397" height="57.736"/>
				</defs>
				<clipPath id="SVGID_22_">
					<use xlink:href="#SVGID_21_"  overflow="visible"/>
				</clipPath>
				<path clip-path="url(#SVGID_22_)" fill="#FFFFFF" d="M39.989,19.182c-2.143-1.935-4.813-2.977-7.521-3.116V6.618
					c5.128,0.15,10.207,2.106,14.203,5.885L39.989,19.182z"/>
			</g>
			<g>
				<defs>
					<rect id="SVGID_23_" x="6.174" y="2.496" width="51.397" height="57.736"/>
				</defs>
				<clipPath id="SVGID_24_">
					<use xlink:href="#SVGID_23_"  overflow="visible"/>
				</clipPath>
				<path clip-path="url(#SVGID_24_)" fill="#FFFFFF" d="M47.563,13.396l-6.681,6.683c0.4,0.44,0.75,0.911,1.072,1.393l7.365-2.313
					c0.461-0.145,0.948-0.012,1.271,0.313c0.109,0.108,0.199,0.238,0.265,0.386c0.258,0.59,0.03,1.282-0.528,1.604l-6.681,3.834
					c0.188,0.759,0.312,1.53,0.351,2.309h9.448C53.296,22.473,51.337,17.394,47.563,13.396"/>
			</g>
			<g>
				<defs>
					<rect id="SVGID_25_" x="6.174" y="2.496" width="51.397" height="57.736"/>
				</defs>
				<clipPath id="SVGID_26_">
					<use xlink:href="#SVGID_25_"  overflow="visible"/>
				</clipPath>
				<path clip-path="url(#SVGID_26_)" fill="#FFFFFF" d="M39.947,23.426c0.374,0.629,0.684,1.301,0.903,2.014l8.849-5.079
					L39.947,23.426z"/>
			</g>
			<g>
				<defs>
					<rect id="SVGID_27_" x="6.174" y="2.496" width="51.397" height="57.736"/>
				</defs>
				<clipPath id="SVGID_28_">
					<use xlink:href="#SVGID_27_"  overflow="visible"/>
				</clipPath>
				<path clip-path="url(#SVGID_28_)" fill="#FFFFFF" d="M31.874,20.39c4.331,0,7.84,3.51,7.84,7.842c0,4.331-3.51,7.842-7.84,7.842
					c-4.331,0-7.842-3.511-7.842-7.842C24.032,23.9,27.542,20.39,31.874,20.39"/>
			</g>
		</g>
	</g>
</g>
<g id="Layer_4" display="none">
	<g display="inline">
		<g>
			<g>
				<defs>
					<rect id="SVGID_29_" x="3.319" y="0" width="57.106" height="62.729"/>
				</defs>
				<clipPath id="SVGID_30_">
					<use xlink:href="#SVGID_29_"  overflow="visible"/>
				</clipPath>
				<path clip-path="url(#SVGID_30_)" fill="#FAA41A" d="M60.425,34.175c0-15.77-12.783-28.554-28.552-28.554
					c-15.77,0-28.553,12.784-28.553,28.554s12.783,28.554,28.554,28.554C47.642,62.729,60.425,49.944,60.425,34.175"/>
			</g>
			<g>
				<defs>
					<rect id="SVGID_31_" x="3.319" y="0" width="57.106" height="62.729"/>
				</defs>
				<clipPath id="SVGID_32_">
					<use xlink:href="#SVGID_31_"  overflow="visible"/>
				</clipPath>
				<path clip-path="url(#SVGID_32_)" fill="#FFFFFF" d="M38.38,20.277v-8.033c0-2.77-2.25-5.021-5.018-5.021h-3.149
					c-2.767,0-5.019,2.251-5.019,5.021v8.033H38.38z M32.748,40.27l-0.603-6.563l0.567-0.342c0.554-0.333,0.885-0.912,0.885-1.549
					c0-0.996-0.811-1.807-1.807-1.807c-0.997,0-1.807,0.811-1.807,1.807c0,0.637,0.331,1.216,0.884,1.549l0.568,0.342l-0.604,6.563
					H32.748z M15.047,49.217v-28.94h3.984v-8.033c0-6.167,5.016-11.188,11.183-11.188h3.149c6.167,0,11.186,5.021,11.186,11.188
					v8.033h3.981v28.939L15.047,49.217L15.047,49.217z"/>
			</g>
			<g>
				<defs>
					<rect id="SVGID_33_" x="3.319" y="0" width="57.106" height="62.729"/>
				</defs>
				<clipPath id="SVGID_34_">
					<use xlink:href="#SVGID_33_"  overflow="visible"/>
				</clipPath>
				<path clip-path="url(#SVGID_34_)" fill="#FAA41A" d="M31.79,32.685l-0.376-0.227c-0.112-0.067-0.372-0.267-0.372-0.644
					c0-0.413,0.336-0.749,0.749-0.749s0.75,0.336,0.75,0.749c0,0.377-0.261,0.574-0.373,0.644L31.79,32.685z M26.253,19.22v-6.977
					c0-2.186,1.777-3.961,3.961-3.961h3.149c2.184,0,3.961,1.775,3.961,3.961v6.977H26.253z M33.364,0h-3.149
					c-6.749,0-12.241,5.492-12.241,12.243v6.977h-1.867H13.99v2.115V48.16v2.113h2.116h31.367h2.114V48.16V21.335V19.22h-2.114
					h-1.867v-6.977C45.606,5.492,40.114,0,33.364,0 M29.673,41.328h2.117h2.115l-0.647-7.06c0.836-0.503,1.396-1.406,1.396-2.454
					c0-1.583-1.283-2.862-2.864-2.862c-1.581,0-2.864,1.279-2.864,2.862c0,1.048,0.562,1.951,1.396,2.454L29.673,41.328z
					 M47.473,48.16H16.106V21.335h31.367V48.16z M33.364,2.115c5.583,0,10.128,4.545,10.128,10.128v7.96h-4.053v-7.96
					c0-3.354-2.727-6.076-6.075-6.076h-3.149c-3.349,0-6.076,2.723-6.076,6.076v7.96h-4.05v-7.96
					c0-5.583,4.544-10.128,10.126-10.128H33.364z"/>
			</g>
		</g>
	</g>
</g>
<g id="Layer_5" display="none">
	<g display="inline">
		<g>
			<g>
				<defs>
					<rect id="SVGID_35_" y="2.811" width="63.746" height="57.107"/>
				</defs>
				<clipPath id="SVGID_36_">
					<use xlink:href="#SVGID_35_"  overflow="visible"/>
				</clipPath>
				<path clip-path="url(#SVGID_36_)" fill="#887677" d="M57.107,31.365c0-15.77-12.783-28.555-28.554-28.555
					C12.784,2.811,0,15.596,0,31.365c0,15.768,12.784,28.554,28.553,28.554C44.324,59.918,57.107,47.133,57.107,31.365"/>
			</g>
			<g>
				<defs>
					<rect id="SVGID_37_" y="2.811" width="63.746" height="57.107"/>
				</defs>
				<clipPath id="SVGID_38_">
					<use xlink:href="#SVGID_37_"  overflow="visible"/>
				</clipPath>
				<path clip-path="url(#SVGID_38_)" fill="#FFFFFF" d="M59.699,47.791c-0.59,0-1.152-0.187-1.629-0.538L33.849,29.164l-4.482,6.01
					c-0.513,0.688-1.333,1.098-2.194,1.098c-0.592,0-1.156-0.188-1.63-0.54l-6.686-4.987c-0.583-0.434-0.964-1.072-1.069-1.797
					c-0.105-0.724,0.077-1.443,0.511-2.026l12.596-16.885c0.511-0.687,1.331-1.097,2.192-1.097c0.597,0,1.16,0.186,1.632,0.538
					l6.686,4.988c1.207,0.9,1.457,2.614,0.558,3.822l-4.59,6.151l24.219,18.088c1.205,0.901,1.455,2.616,0.555,3.823l-0.253,0.342
					C61.38,47.383,60.56,47.791,59.699,47.791"/>
			</g>
			<g>
				<defs>
					<rect id="SVGID_39_" y="2.811" width="63.746" height="57.107"/>
				</defs>
				<clipPath id="SVGID_40_">
					<use xlink:href="#SVGID_39_"  overflow="visible"/>
				</clipPath>
				<path clip-path="url(#SVGID_40_)" fill="#887677" d="M33.087,7.882c-1.194,0-2.332,0.569-3.042,1.523L17.452,26.286
					c-0.604,0.812-0.856,1.811-0.71,2.813c0.146,1.005,0.673,1.892,1.485,2.494l6.683,4.985c0.66,0.49,1.442,0.75,2.263,0.75
					c1.193,0,2.33-0.568,3.041-1.521l3.85-5.162l23.369,17.453c0.667,0.494,1.447,0.751,2.266,0.751c1.193,0,2.33-0.567,3.04-1.521
					l0.259-0.351c1.246-1.668,0.899-4.047-0.774-5.297L38.852,24.226l3.958-5.304c1.249-1.677,0.902-4.056-0.773-5.305l-6.686-4.988
					C34.699,8.141,33.914,7.882,33.087,7.882 M33.087,9.996c0.349,0,0.701,0.104,0.998,0.327l6.687,4.989
					c0.739,0.55,0.892,1.606,0.343,2.344l-5.222,6.999l25.065,18.721c0.737,0.551,0.892,1.604,0.34,2.343l-0.256,0.345
					c-0.328,0.44-0.832,0.67-1.344,0.67c-0.349,0-0.701-0.107-1-0.33l-25.064-18.72l-5.115,6.857
					c-0.328,0.438-0.835,0.673-1.346,0.673c-0.349,0-0.699-0.108-0.998-0.331l-6.686-4.987c-0.739-0.549-0.892-1.604-0.342-2.344
					l12.596-16.884C32.07,10.228,32.576,9.996,33.087,9.996"/>
			</g>
			<g>
				<defs>
					<rect id="SVGID_41_" y="2.811" width="63.746" height="57.107"/>
				</defs>
				<clipPath id="SVGID_42_">
					<use xlink:href="#SVGID_41_"  overflow="visible"/>
				</clipPath>
				<path clip-path="url(#SVGID_42_)" fill="#FFFFFF" d="M37.897,40.934c0.545,0,0.987,0.441,0.987,0.987v0.89h1.762
					c0.545,0,0.988,0.438,0.988,0.985v3.124h-29.33v-3.124c0-0.547,0.442-0.985,0.988-0.985h1.761v-0.89
					c0-0.546,0.441-0.987,0.987-0.987H37.897z"/>
			</g>
		</g>
	</g>
</g>
<g id="Layer_6" display="none">
	<g display="inline">
		<g>
			<g>
				<defs>
					<rect id="SVGID_43_" x="3.042" y="2.534" width="57.661" height="57.66"/>
				</defs>
				<clipPath id="SVGID_44_">
					<use xlink:href="#SVGID_43_"  overflow="visible"/>
				</clipPath>
				<path clip-path="url(#SVGID_44_)" fill="#829D50" d="M60.705,31.365c0,15.921-12.91,28.828-28.831,28.828
					c-15.925,0-28.831-12.907-28.831-28.828c0-15.925,12.906-28.83,28.831-28.83C47.794,2.535,60.705,15.441,60.705,31.365"/>
			</g>
			<g>
				<defs>
					<rect id="SVGID_45_" x="3.042" y="2.534" width="57.661" height="57.66"/>
				</defs>
				<clipPath id="SVGID_46_">
					<use xlink:href="#SVGID_45_"  overflow="visible"/>
				</clipPath>
				<path clip-path="url(#SVGID_46_)" fill="#FFFFFF" d="M45.347,37.907c-1.563-2.415-3.984-4.225-6.84-4.979
					c-1.799,1.677-4.204,2.715-6.854,2.715c-2.647,0-5.054-1.038-6.854-2.715c-2.599,0.688-4.841,2.25-6.404,4.347
					c2.063,1.094,7.004,3.257,13.813,3.257C36.566,40.531,40.974,39.649,45.347,37.907"/>
			</g>
			<g>
				<defs>
					<rect id="SVGID_47_" x="3.042" y="2.534" width="57.661" height="57.66"/>
				</defs>
				<clipPath id="SVGID_48_">
					<use xlink:href="#SVGID_47_"  overflow="visible"/>
				</clipPath>
				<path clip-path="url(#SVGID_48_)" fill="#FFFFFF" d="M47.222,45.862v-1.639c0-0.347-0.016-0.691-0.043-1.031l-0.385-1.898
					c-4.904,1.979-9.834,2.98-14.7,2.98c-7.476,0-12.945-2.396-15.411-3.729c-0.386,1.158-0.601,2.392-0.601,3.678v0.778
					c2.699,1.155,8.499,3.151,16.388,3.151C37.371,48.154,42.313,47.385,47.222,45.862"/>
			</g>
			<g>
				<defs>
					<rect id="SVGID_49_" x="3.042" y="2.534" width="57.661" height="57.66"/>
				</defs>
				<clipPath id="SVGID_50_">
					<use xlink:href="#SVGID_49_"  overflow="visible"/>
				</clipPath>
				<path clip-path="url(#SVGID_50_)" fill="#FFFFFF" d="M31.653,33.917c5.075,0,9.187-4.744,9.187-10.597
					c0-0.94-0.105-1.854-0.309-2.726l-1.688,2.724c-0.406,1.366-1.895,2.355-3.723,2.355c-1.16,0-2.178-0.399-2.877-1.039h-1.186
					c-0.697,0.64-1.719,1.039-2.876,1.039c-1.817,0-3.299-0.977-3.718-2.329l-1.691-2.736c-0.2,0.867-0.307,1.776-0.307,2.712
					C22.466,29.173,26.58,33.917,31.653,33.917"/>
			</g>
			<g>
				<defs>
					<rect id="SVGID_51_" x="3.042" y="2.534" width="57.661" height="57.66"/>
				</defs>
				<clipPath id="SVGID_52_">
					<use xlink:href="#SVGID_51_"  overflow="visible"/>
				</clipPath>
				<path clip-path="url(#SVGID_52_)" fill="#FFFFFF" d="M39.02,17.001c-1.672-2.593-4.349-4.275-7.368-4.275
					c-3.698,0-6.884,2.524-8.34,6.155l2.351,1.311l-0.002,0.012c0.669-0.469,1.546-0.751,2.521-0.751
					c1.091,0,2.062,0.353,2.751,0.926h1.438c0.691-0.573,1.664-0.926,2.751-0.926c0.971,0,1.842,0.277,2.512,0.742l-0.002-0.003
					l2.242-1.249c0.135-0.027,0.104-0.103,0.256-0.132"/>
			</g>
			<g>
				<defs>
					<rect id="SVGID_53_" x="3.042" y="2.534" width="57.661" height="57.66"/>
				</defs>
				<clipPath id="SVGID_54_">
					<use xlink:href="#SVGID_53_"  overflow="visible"/>
				</clipPath>
				<path clip-path="url(#SVGID_54_)" fill="#FFFFFF" d="M29.809,22.534c0,0.717-0.79,1.298-1.763,1.298
					c-0.975,0-1.764-0.581-1.764-1.298c0-0.718,0.789-1.299,1.764-1.299C29.019,21.236,29.809,21.817,29.809,22.534"/>
			</g>
			<g>
				<defs>
					<rect id="SVGID_55_" x="3.042" y="2.534" width="57.661" height="57.66"/>
				</defs>
				<clipPath id="SVGID_56_">
					<use xlink:href="#SVGID_55_"  overflow="visible"/>
				</clipPath>
				<path clip-path="url(#SVGID_56_)" fill="#FFFFFF" d="M36.828,22.534c0,0.717-0.789,1.298-1.763,1.298S33.3,23.251,33.3,22.534
					c0-0.718,0.791-1.299,1.765-1.299S36.828,21.817,36.828,22.534"/>
			</g>
		</g>
	</g>
</g>
<g>
	<path fill="#00958F" d="M55.193,31.237c0-14.123-11.448-25.57-25.572-25.57c-14.123,0-25.572,11.448-25.572,25.57
		c0,14.122,11.449,25.571,25.572,25.571C43.745,56.808,55.193,45.359,55.193,31.237"/>
	<path fill="#FFFFFF" d="M42.55,29.92l-2.12-0.523l-0.458-0.112l-0.135-0.457c-0.231-0.835-0.561-1.638-0.971-2.389l-0.247-0.448
		l0.298-0.415l1.028-1.445c0.345-0.487,0.289-1.148-0.139-1.576l-1.44-1.438c-0.231-0.229-0.535-0.357-0.86-0.357
		c-0.224,0-0.445,0.063-0.643,0.184l-1.618,0.979l-0.407,0.249l-0.417-0.239c-0.794-0.45-1.659-0.806-2.547-1.061l-0.501-0.138
		l-0.088-0.51l-0.354-2.089c-0.096-0.592-0.61-1.021-1.207-1.021h-2.036c-0.567,0-1.06,0.381-1.191,0.933l-0.56,2.307l-0.114,0.453
		l-0.447,0.139c-0.802,0.25-1.585,0.584-2.327,1.008l-0.42,0.241l-0.408-0.253l-2.311-1.406c-0.19-0.114-0.41-0.176-0.633-0.176
		c-0.326,0-0.635,0.125-0.869,0.36l-1.437,1.434c-0.418,0.422-0.469,1.096-0.131,1.577l1.557,2.197l0.286,0.399l-0.223,0.437
		c-0.309,0.612-0.568,1.28-0.771,1.984l-0.13,0.456l-0.463,0.107l-2.465,0.602c-0.555,0.134-0.938,0.626-0.938,1.193v2.038
		c0,0.598,0.428,1.103,1.018,1.207l2.367,0.4l0.497,0.084l0.146,0.485c0.229,0.746,0.526,1.461,0.892,2.134l0.223,0.412L18.59,38.27
		l-1.473,2.418c-0.29,0.474-0.217,1.097,0.183,1.497l1.434,1.44c0.231,0.233,0.543,0.363,0.871,0.363c0.251,0,0.5-0.08,0.71-0.225
		l2.179-1.547l0.41-0.291l0.442,0.234c0.641,0.339,1.315,0.618,2.014,0.828l0.451,0.137l0.105,0.454l0.585,2.393
		c0.128,0.548,0.622,0.931,1.189,0.931h2.033c0.598,0,1.108-0.428,1.208-1.016l0.368-2.174l0.085-0.508l0.5-0.139
		c0.789-0.223,1.523-0.511,2.189-0.857l0.44-0.233l0.412,0.291l1.54,1.093c0.213,0.154,0.455,0.226,0.712,0.226
		c0.329,0,0.634-0.127,0.866-0.357l1.438-1.441c0.398-0.402,0.474-1.018,0.177-1.505l-0.981-1.602l-0.251-0.419l0.248-0.423
		c0.479-0.81,0.859-1.676,1.127-2.574l0.147-0.486l0.497-0.084l2.021-0.346c0.589-0.101,1.021-0.607,1.021-1.203v-2.036
		C43.487,30.542,43.104,30.052,42.55,29.92 M28.707,37.249c-2.912,0-5.274-2.364-5.274-5.28c0-2.914,2.362-5.275,5.274-5.275
		c2.915,0,5.277,2.361,5.277,5.275C33.984,34.885,31.621,37.249,28.707,37.249"/>
	<path fill="#FFFFFF" d="M49.032,15.672c-1.409,0-2.559,1.15-2.559,2.565c0,1.413,1.149,2.562,2.559,2.562
		c1.413,0,2.563-1.148,2.563-2.562C51.595,16.822,50.445,15.672,49.032,15.672 M48.417,27.716c-0.762-0.01-1.412-0.531-1.584-1.272
		l-0.257-1.107c-0.271-0.094-0.533-0.204-0.782-0.328l-1.016,0.701c-0.269,0.192-0.596,0.296-0.934,0.296
		c-0.449-0.009-0.854-0.181-1.164-0.481l-0.822-0.853c-0.531-0.536-0.621-1.392-0.207-2.03l0.7-1.125
		c-0.139-0.281-0.253-0.569-0.351-0.86l-1.06-0.192c-0.79-0.14-1.359-0.827-1.351-1.633l0.013-1.166
		c0.01-0.754,0.528-1.405,1.263-1.582l1.156-0.266c0.091-0.268,0.19-0.52,0.304-0.759l-0.711-1.018c-0.457-0.66-0.37-1.57,0.2-2.121
		l0.819-0.806c0.311-0.307,0.722-0.476,1.158-0.476c0.313,0.007,0.599,0.093,0.855,0.245l0.995,0.724
		c0.353-0.186,0.721-0.342,1.098-0.469l0.271-1.056c0.18-0.725,0.834-1.238,1.588-1.238l1.181,0.013
		c0.803,0.007,1.479,0.588,1.608,1.383l0.146,0.909c0.381,0.127,0.755,0.286,1.109,0.475l0.691-0.408
		c0.267-0.154,0.559-0.232,0.854-0.232c0.449,0.009,0.857,0.183,1.162,0.495l0.81,0.829c0.563,0.58,0.626,1.469,0.154,2.12
		L55.9,15.002c0.155,0.323,0.287,0.666,0.4,1.023l0.932,0.238c0.754,0.193,1.264,0.863,1.242,1.629l-0.011,1.139
		c-0.005,0.81-0.595,1.488-1.396,1.608l-0.855,0.138c-0.132,0.378-0.304,0.76-0.511,1.131l0.401,0.672
		c0.393,0.664,0.283,1.495-0.264,2.026l-0.822,0.809c-0.324,0.309-0.731,0.472-1.163,0.472c-0.359-0.01-0.681-0.118-0.953-0.314
		l-0.644-0.466c-0.269,0.121-0.56,0.232-0.872,0.33l-0.17,0.935c-0.144,0.788-0.825,1.357-1.621,1.357L48.417,27.716z"/>
	<path fill="#00958F" d="M49.032,19.852c-0.888,0-1.611-0.726-1.611-1.616s0.724-1.616,1.611-1.616c0.892,0,1.615,0.726,1.615,1.616
		S49.923,19.852,49.032,19.852 M48.601,7.9c-1.189,0-2.221,0.808-2.507,1.963l-0.146,0.562c-0.068,0.027-0.135,0.056-0.201,0.086
		l-0.468-0.344l-0.066-0.049l-0.073-0.042c-0.396-0.238-0.846-0.372-1.299-0.381h-0.001c-0.733,0-1.383,0.268-1.871,0.751
		l-0.82,0.807c-0.888,0.856-1.031,2.291-0.314,3.324l0.327,0.468l-0.493,0.113c-1.179,0.288-1.996,1.309-2.01,2.496l-0.014,1.17
		c-0.013,1.273,0.889,2.358,2.141,2.577l0.471,0.086l-0.418,0.673c-0.635,0.976-0.492,2.332,0.358,3.19l0.785,0.813l0.021,0.021
		l0.021,0.02c0.481,0.469,1.115,0.734,1.781,0.749h0.002c0.574,0,1.089-0.164,1.526-0.472l0.462-0.319l0.118,0.498
		c0.269,1.165,1.295,1.989,2.491,2.004l1.163,0.012c1.281,0,2.352-0.896,2.579-2.129l0.056-0.311l0.139,0.101
		c0.435,0.313,0.936,0.483,1.464,0.497h0.023h0.025c0.674,0,1.313-0.254,1.803-0.717l0.853-0.838
		c0.854-0.828,1.027-2.137,0.413-3.175l-0.139-0.229c0.038-0.082,0.077-0.163,0.111-0.246l0.33-0.052
		c1.252-0.188,2.178-1.259,2.187-2.541l0.012-1.148c0.031-1.179-0.77-2.235-1.948-2.54l-0.446-0.113
		c-0.014-0.039-0.027-0.076-0.044-0.113l0.1-0.137c0.742-1.022,0.643-2.423-0.237-3.33l-0.82-0.839
		c-0.474-0.487-1.117-0.765-1.81-0.775c-0.485,0-0.94,0.121-1.338,0.348l-0.275,0.165c-0.074-0.031-0.145-0.064-0.218-0.095
		l-0.059-0.36c-0.205-1.258-1.272-2.175-2.541-2.184L48.632,7.9h-0.011H48.601z M49.032,21.745c1.938,0,3.511-1.569,3.511-3.51
		c0-1.932-1.573-3.51-3.511-3.51c-1.936,0-3.505,1.578-3.505,3.51C45.527,20.177,47.096,21.745,49.032,21.745 M48.601,9.795
		c0.004,0,0.007,0,0.011,0l1.159,0.011c0.349,0.004,0.628,0.252,0.686,0.587l0.188,1.193l0.044,0.292l0.28,0.086
		c0.513,0.15,0.998,0.357,1.451,0.619l0.232,0.134l0.239-0.137l0.927-0.551c0.114-0.064,0.24-0.097,0.372-0.097
		c0.18,0.002,0.352,0.075,0.482,0.207l0.813,0.832c0.24,0.245,0.267,0.62,0.063,0.899l-0.591,0.816l-0.173,0.233l0.143,0.257
		c0.229,0.428,0.409,0.892,0.537,1.369l0.071,0.262l0.261,0.067L57,17.182c0.315,0.08,0.537,0.364,0.527,0.685l-0.012,1.155
		c-0.001,0.344-0.251,0.633-0.589,0.683l-1.154,0.183l-0.284,0.048l-0.088,0.271c-0.154,0.518-0.378,1.006-0.657,1.469l-0.143,0.237
		l0.143,0.239l0.547,0.917c0.167,0.283,0.119,0.639-0.109,0.86l-0.828,0.813c-0.134,0.125-0.311,0.197-0.5,0.197
		c-0.143-0.003-0.28-0.049-0.401-0.133l-0.867-0.634l-0.236-0.167l-0.254,0.128c-0.38,0.195-0.805,0.351-1.254,0.479l-0.281,0.072
		l-0.053,0.287l-0.222,1.234c-0.063,0.337-0.357,0.577-0.691,0.577h-0.006l-1.161-0.013c-0.317-0.002-0.598-0.225-0.671-0.538
		l-0.318-1.364l-0.057-0.261l-0.253-0.082c-0.396-0.125-0.786-0.286-1.144-0.481l-0.253-0.14l-0.235,0.165l-1.254,0.865
		c-0.115,0.083-0.255,0.127-0.396,0.127H43.84c-0.19-0.003-0.362-0.079-0.495-0.212l-0.806-0.833
		c-0.227-0.226-0.271-0.581-0.093-0.854l0.851-1.366l0.143-0.227l-0.126-0.239c-0.204-0.382-0.372-0.794-0.493-1.221l-0.08-0.274
		l-0.288-0.053l-1.341-0.243c-0.338-0.06-0.577-0.35-0.573-0.693l0.012-1.165c0.003-0.319,0.224-0.597,0.54-0.672l1.414-0.324
		l0.26-0.062l0.075-0.261c0.124-0.395,0.276-0.775,0.454-1.118l0.13-0.253l-0.156-0.231l-0.878-1.255
		c-0.191-0.279-0.153-0.665,0.086-0.896l0.825-0.812c0.135-0.134,0.311-0.205,0.493-0.205h0.005
		c0.128,0.001,0.254,0.043,0.362,0.109l1.113,0.814l0.237,0.146l0.428-0.13c0.426-0.237,0.872-0.426,1.33-0.563l0.258-0.076
		l0.062-0.253l0.343-1.314C48.01,10.012,48.284,9.795,48.601,9.795"/>
</g>
</svg>
