<?xml version="1.0" encoding="iso-8859-1"?>
<!-- Generator: Adobe Illustrator 14.0.0, SVG Export Plug-In . SVG Version: 6.00 Build 43363)  -->
<!DOCTYPE svg PUBLIC "-//W3C//DTD SVG 1.1//EN" "http://www.w3.org/Graphics/SVG/1.1/DTD/svg11.dtd">
<svg version="1.1" id="Layer_1" xmlns="http://www.w3.org/2000/svg" xmlns:xlink="http://www.w3.org/1999/xlink" x="0px" y="0px"
	 width="100%" height="100%" viewBox="0 0 42.026 42.027" style="enable-background:new 0 0 42.026 42.027;"
	 xml:space="preserve">
<g>
	<defs>
		<rect id="SVGID_1_" y="0" width="42.026" height="42.027"/>
	</defs>
	<clipPath id="SVGID_2_">
		<use xlink:href="#SVGID_1_"  style="overflow:visible;"/>
	</clipPath>
	<path style="clip-path:url(#SVGID_2_);fill:#ffffff;" d="M27.604,23.679c0,0.073-0.008,0.145-0.022,0.216v9.06
		c0,0.441-0.357,0.799-0.8,0.799h-1.36c-0.443,0-0.802-0.357-0.802-0.799V21.338c-0.727-1.254-1.807-3.187-1.807-5.781v-0.525
		c0-4.987,2.88-6.584,2.88-6.584c0.959-0.534,1.91-0.368,1.911,0.244V23.679z M19.654,16.525c0,0.398-1.233,1.369-2.058,1.975v2.203
		c0.425,0.147,0.731,0.546,0.731,1.021v10.947c0,0.6-0.485,1.082-1.084,1.082h-0.756c-0.599,0-1.083-0.482-1.083-1.082V21.724
		c0-0.474,0.307-0.873,0.73-1.021v-2.179c-0.875-0.603-2.22-1.596-2.22-1.999V9.053c0-0.599,0.29-1.084,0.936-1.084h0.388v6.558
		c0,0.185,0.235,0.335,0.527,0.335c0.29,0,0.527-0.15,0.527-0.335v-2.385c0-0.011-0.006-0.02-0.006-0.031V8.466
		c0-0.011,0.006-0.02,0.006-0.03V8.373h0.013c0.046-0.228,0.237-0.404,0.479-0.404c0.242,0,0.434,0.176,0.479,0.404h0.004v0.021
		c0.005,0.025,0.015,0.048,0.015,0.073v3.645c0,0.026-0.01,0.048-0.015,0.073v2.343c0,0.185,0.237,0.335,0.529,0.335
		c0.29,0,0.525-0.15,0.525-0.335V7.969h0.161c0.648,0,1.172,0.485,1.172,1.084V16.525z M21.013,0C9.407,0,0,9.407,0,21.013
		c0,11.605,9.407,21.014,21.013,21.014c11.604,0,21.013-9.409,21.013-21.014C42.026,9.407,32.617,0,21.013,0"/>
</g>
</svg>
