<?xml version="1.0" encoding="utf-8"?>
<!-- Generator: Adobe Illustrator 14.0.0, SVG Export Plug-In . SVG Version: 6.00 Build 43363)  -->
<!DOCTYPE svg PUBLIC "-//W3C//DTD SVG 1.1//EN" "http://www.w3.org/Graphics/SVG/1.1/DTD/svg11.dtd">
<svg version="1.1" id="Layer_1" xmlns="http://www.w3.org/2000/svg" xmlns:xlink="http://www.w3.org/1999/xlink" x="0px" y="0px"
	 width="42.025px" height="42.027px" viewBox="0 0 42.025 42.027" enable-background="new 0 0 42.025 42.027" xml:space="preserve">
<g>
	<g>
		<defs>
			<rect id="SVGID_1_" x="0" y="0" width="42.025" height="42.027"/>
		</defs>
		<clipPath id="SVGID_2_">
			<use xlink:href="#SVGID_1_"  overflow="visible"/>
		</clipPath>
		<path clip-path="url(#SVGID_2_)" fill="#43B2DD" d="M27.604,23.679c0,0.072-0.008,0.145-0.021,0.216v9.06
			c0,0.441-0.357,0.799-0.8,0.799h-1.36c-0.443,0-0.802-0.356-0.802-0.799V21.338c-0.728-1.254-1.808-3.187-1.808-5.78v-0.525
			c0-4.987,2.88-6.584,2.88-6.584c0.959-0.534,1.91-0.368,1.911,0.244V23.679z M19.654,16.525c0,0.397-1.232,1.369-2.058,1.975
			v2.203c0.425,0.147,0.731,0.546,0.731,1.021v10.946c0,0.601-0.485,1.082-1.084,1.082h-0.757c-0.599,0-1.083-0.481-1.083-1.082
			V21.724c0-0.475,0.308-0.873,0.73-1.021v-2.179c-0.875-0.604-2.22-1.597-2.22-1.999V9.052c0-0.599,0.29-1.084,0.936-1.084h0.388
			v6.559c0,0.185,0.235,0.335,0.527,0.335c0.29,0,0.527-0.15,0.527-0.335v-2.385c0-0.012-0.006-0.021-0.006-0.031V8.466
			c0-0.011,0.006-0.02,0.006-0.029V8.373h0.013c0.046-0.228,0.237-0.404,0.479-0.404c0.241,0,0.434,0.177,0.479,0.404h0.004v0.021
			c0.005,0.024,0.016,0.048,0.016,0.072v3.646c0,0.026-0.011,0.048-0.016,0.073v2.343c0,0.185,0.237,0.335,0.529,0.335
			c0.29,0,0.524-0.15,0.524-0.335v-6.56h0.161c0.648,0,1.172,0.485,1.172,1.084V16.525z M21.013,0C9.407,0,0,9.407,0,21.013
			c0,11.604,9.407,21.014,21.013,21.014c11.604,0,21.013-9.409,21.013-21.014C42.026,9.407,32.617,0,21.013,0"/>
	</g>
</g>
</svg>
