<?xml version="1.0" encoding="utf-8"?>
<!-- Generator: Adobe Illustrator 14.0.0, SVG Export Plug-In . SVG Version: 6.00 Build 43363)  -->
<!DOCTYPE svg PUBLIC "-//W3C//DTD SVG 1.1//EN" "http://www.w3.org/Graphics/SVG/1.1/DTD/svg11.dtd">
<svg version="1.1" id="Layer_1" xmlns="http://www.w3.org/2000/svg" xmlns:xlink="http://www.w3.org/1999/xlink" x="0px" y="0px"
	 width="42.066px" height="42.066px" viewBox="0 0 42.066 42.066" enable-background="new 0 0 42.066 42.066" xml:space="preserve">
<g>
	<g>
		<defs>
			<rect id="SVGID_1_" x="0" y="0" width="42.066" height="42.066"/>
		</defs>
		<clipPath id="SVGID_2_">
			<use xlink:href="#SVGID_1_"  overflow="visible"/>
		</clipPath>
		<path clip-path="url(#SVGID_2_)" fill="#43B2DD" d="M21.033,0C9.416,0,0,9.417,0,21.033C0,32.65,9.416,42.066,21.033,42.066
			c11.616,0,21.033-9.416,21.033-21.033C42.066,9.417,32.649,0,21.033,0 M23.15,7.398h1.526c2.351,0.001,4.259,1.909,4.263,4.261
			v0.879h-0.671v-0.879c-0.003-1.981-1.61-3.59-3.592-3.593H23.15c-0.106,0-0.206,0.022-0.312,0.032
			c-0.212-0.213-0.442-0.404-0.689-0.576C22.471,7.443,22.805,7.398,23.15,7.398 M13.477,11.659c0.002-2.352,1.911-4.26,4.262-4.261
			h1.528c2.351,0.001,4.26,1.909,4.26,4.261l0.002,3.809c0,0.186-0.151,0.337-0.336,0.337c-0.186,0-0.333-0.151-0.333-0.337v-3.809
			c-0.004-1.981-1.614-3.59-3.593-3.593h-1.528c-1.98,0.003-3.589,1.611-3.592,3.593v3.809c0,0.186-0.151,0.337-0.334,0.337
			c-0.186,0-0.336-0.151-0.336-0.337V11.659z M20.56,9.185c-0.617,0.645-1.002,1.515-1.004,2.475v0.879h-0.669V11.66
			c0.001-1.04,0.376-1.993,0.995-2.734C20.123,8.98,20.348,9.072,20.56,9.185 M27.619,31.873H9.469V13.395h3.223v2.074
			c0,0.618,0.502,1.118,1.121,1.118c0.617,0,1.119-0.5,1.119-1.118v-2.074h7.142v2.074c0,0.618,0.502,1.118,1.119,1.118
			c0.618,0,1.12-0.5,1.12-1.118v-2.074h3.306V31.873z M33.454,31.873H28.16V13.395h5.294V31.873z"/>
	</g>
	<g>
		<defs>
			<rect id="SVGID_3_" x="0" y="0" width="42.066" height="42.066"/>
		</defs>
		<clipPath id="SVGID_4_">
			<use xlink:href="#SVGID_3_"  overflow="visible"/>
		</clipPath>
		<path clip-path="url(#SVGID_4_)" fill="#43B2DD" d="M19.178,21.76v-2.086c0.357,0.047,0.636,0.18,0.833,0.398
			c0.109,0.124,0.217,0.323,0.323,0.595l1.252-0.255c-0.187-0.541-0.49-0.976-0.908-1.306c-0.289-0.229-0.629-0.399-1.018-0.51
			c-0.213-0.059-0.372-0.085-0.482-0.085v-0.76h-0.901v0.726c-0.689,0-1.278,0.198-1.771,0.606c-0.521,0.43-0.783,0.988-0.783,1.679
			c0,0.467,0.105,0.868,0.319,1.198s0.567,0.617,1.063,0.861c0.221,0.108,0.451,0.188,0.688,0.232
			c0.239,0.045,0.399,0.086,0.483,0.116v2.327c-0.382,0-0.72-0.137-1.013-0.413c-0.266-0.253-0.457-0.58-0.572-0.982l-1.294,0.28
			c0.161,0.675,0.491,1.214,0.991,1.617c0.358,0.287,0.778,0.49,1.26,0.605c0.248,0.061,0.457,0.089,0.628,0.089v1.087h0.901v-1.087
			c0.706,0,1.313-0.2,1.817-0.605c0.564-0.449,0.846-1.056,0.846-1.817c0-0.746-0.267-1.341-0.805-1.782
			C20.588,22.122,19.968,21.881,19.178,21.76 M18.277,21.608c-0.31-0.068-0.533-0.147-0.675-0.227
			c-0.294-0.175-0.44-0.431-0.44-0.772c0-0.313,0.111-0.557,0.336-0.737c0.201-0.157,0.462-0.241,0.779-0.241V21.608z
			 M20.125,25.139c-0.223,0.201-0.539,0.338-0.946,0.399V23.29c0.261,0,0.525,0.083,0.792,0.255
			c0.325,0.204,0.488,0.465,0.488,0.783C20.459,24.664,20.348,24.934,20.125,25.139"/>
	</g>
</g>
</svg>
