<?xml version="1.0" encoding="iso-8859-1"?>
<!-- Generator: Adobe Illustrator 14.0.0, SVG Export Plug-In . SVG Version: 6.00 Build 43363)  -->
<!DOCTYPE svg PUBLIC "-//W3C//DTD SVG 1.1//EN" "http://www.w3.org/Graphics/SVG/1.1/DTD/svg11.dtd">
<svg version="1.1" id="Layer_1" xmlns="http://www.w3.org/2000/svg" xmlns:xlink="http://www.w3.org/1999/xlink" x="0px" y="0px"
	 width="42.066px" height="42.066px" viewBox="0 0 42.066 42.066" style="enable-background:new 0 0 42.066 42.066;"
	 xml:space="preserve">
<g>
	<defs>
		<rect id="SVGID_1_" y="0" width="42.066" height="42.066"/>
	</defs>
	<clipPath id="SVGID_2_">
		<use xlink:href="#SVGID_1_"  style="overflow:visible;"/>
	</clipPath>
	<path style="clip-path:url(#SVGID_2_);fill:#FFFFFF;" d="M21.033,0C9.416,0,0,9.417,0,21.033C0,32.65,9.416,42.066,21.033,42.066
		c11.616,0,21.033-9.416,21.033-21.033C42.066,9.417,32.649,0,21.033,0 M23.15,7.398h1.527c2.35,0.001,4.258,1.909,4.262,4.261
		v0.879h-0.671v-0.879c-0.003-1.981-1.61-3.59-3.591-3.593H23.15c-0.106,0-0.206,0.023-0.311,0.032
		c-0.212-0.212-0.443-0.404-0.69-0.576C22.471,7.443,22.805,7.398,23.15,7.398 M13.477,11.659c0.002-2.352,1.911-4.26,4.262-4.261
		h1.528c2.351,0.001,4.26,1.909,4.26,4.261l0.002,3.809c0,0.185-0.151,0.336-0.336,0.336s-0.333-0.151-0.333-0.336v-3.809
		c-0.004-1.981-1.614-3.59-3.593-3.593h-1.528c-1.98,0.003-3.589,1.612-3.592,3.593v3.809c0,0.185-0.151,0.336-0.334,0.336
		c-0.185,0-0.336-0.151-0.336-0.336V11.659z M20.56,9.185c-0.617,0.645-1.002,1.515-1.004,2.475v0.879h-0.669v-0.879
		c0.001-1.04,0.376-1.993,0.996-2.734C20.123,8.98,20.348,9.072,20.56,9.185 M27.619,31.873H9.469V13.395h3.223v2.075
		c0,0.618,0.502,1.118,1.121,1.118c0.617,0,1.119-0.5,1.119-1.118v-2.075h7.142v2.075c0,0.618,0.502,1.118,1.119,1.118
		c0.618,0,1.12-0.5,1.12-1.118v-2.075h3.306V31.873z M33.454,31.873H28.16V13.395h5.294V31.873z"/>
	<path style="clip-path:url(#SVGID_2_);fill:#FFFFFF;" d="M19.178,21.761v-2.086c0.358,0.046,0.636,0.179,0.833,0.398
		c0.11,0.124,0.217,0.323,0.324,0.595l1.252-0.255c-0.187-0.541-0.491-0.976-0.909-1.306c-0.289-0.229-0.628-0.399-1.017-0.51
		c-0.213-0.058-0.372-0.085-0.483-0.085v-0.759h-0.901v0.725c-0.689,0-1.278,0.199-1.771,0.607
		c-0.522,0.429-0.784,0.988-0.784,1.678c0,0.467,0.106,0.869,0.32,1.199s0.567,0.617,1.063,0.861
		c0.221,0.108,0.451,0.188,0.689,0.232c0.239,0.045,0.399,0.086,0.483,0.117v2.327c-0.382,0-0.72-0.137-1.013-0.413
		c-0.265-0.253-0.457-0.58-0.572-0.983l-1.294,0.281c0.161,0.674,0.491,1.213,0.991,1.617c0.359,0.287,0.779,0.49,1.26,0.605
		c0.248,0.061,0.457,0.089,0.628,0.089v1.087h0.901v-1.087c0.707,0,1.313-0.2,1.818-0.605c0.564-0.45,0.846-1.056,0.846-1.818
		c0-0.746-0.267-1.341-0.805-1.782C20.588,22.122,19.968,21.881,19.178,21.761 M18.277,21.608c-0.309-0.068-0.533-0.147-0.675-0.226
		c-0.294-0.175-0.44-0.431-0.44-0.773c0-0.313,0.111-0.556,0.336-0.737c0.201-0.157,0.462-0.241,0.779-0.241V21.608z M20.125,25.139
		c-0.223,0.202-0.539,0.338-0.947,0.4V23.29c0.261,0,0.526,0.083,0.792,0.255c0.326,0.204,0.489,0.465,0.489,0.783
		C20.459,24.664,20.348,24.934,20.125,25.139"/>
</g>
</svg>
