<?xml version="1.0" encoding="utf-8"?>
<!-- Generator: Adobe Illustrator 14.0.0, SVG Export Plug-In . SVG Version: 6.00 Build 43363)  -->
<!DOCTYPE svg PUBLIC "-//W3C//DTD SVG 1.1//EN" "http://www.w3.org/Graphics/SVG/1.1/DTD/svg11.dtd">
<svg version="1.1" id="Layer_1" xmlns="http://www.w3.org/2000/svg" xmlns:xlink="http://www.w3.org/1999/xlink" x="0px" y="0px"
	 width="63.746px" height="62.729px" viewBox="0 0 63.746 62.729" enable-background="new 0 0 63.746 62.729" xml:space="preserve">
<g id="Layer_1_1_" display="none">
	<g display="inline">
		<g>
			<g>
				<g>
					<defs>
						<rect id="SVGID_1_" x="4.506" y="5.111" width="54.732" height="52.508"/>
					</defs>
					<clipPath id="SVGID_2_">
						<use xlink:href="#SVGID_1_"  overflow="visible"/>
					</clipPath>
					<path clip-path="url(#SVGID_2_)" fill="#80CCC7" d="M55.902,30.81c0-14.191-11.506-25.698-25.697-25.698
						c-14.193,0-25.699,11.507-25.699,25.698c0,14.192,11.506,25.697,25.699,25.697C44.396,56.507,55.902,45.002,55.902,30.81"/>
				</g>
			</g>
		</g>
		<rect x="14.512" y="31.158" fill="#FFFFFF" width="4.804" height="13.366"/>
		<rect x="22.917" y="27.177" fill="#FFFFFF" width="4.804" height="17.35"/>
		<rect x="31.321" y="23.196" fill="#FFFFFF" width="4.806" height="21.33"/>
		<rect x="39.727" y="19.215" fill="#FFFFFF" width="4.805" height="25.313"/>
		<g>
			<g>
				<g>
					<defs>
						<rect id="SVGID_3_" x="4.506" y="5.111" width="54.732" height="52.508"/>
					</defs>
					<clipPath id="SVGID_4_">
						<use xlink:href="#SVGID_3_"  overflow="visible"/>
					</clipPath>
					<path clip-path="url(#SVGID_4_)" fill="#FFFFFF" d="M33.335,11.998v2.404h1.414c-3.287,2.768-10.291,7.664-20.838,9.958
						l0.512,2.354c11.354-2.479,18.802-7.818,22.181-10.728v1.686h2.408v-5.674H33.335z"/>
				</g>
			</g>
			<g>
				<g>
					<defs>
						<rect id="SVGID_5_" x="4.506" y="5.111" width="54.732" height="52.508"/>
					</defs>
					<clipPath id="SVGID_6_">
						<use xlink:href="#SVGID_5_"  overflow="visible"/>
					</clipPath>
					<path clip-path="url(#SVGID_6_)" fill="#FFFFFF" d="M46.712,56.665c-6.381,0-11.573-5.191-11.573-11.573
						c0-6.384,5.192-11.576,11.573-11.576c6.384,0,11.576,5.192,11.576,11.576C58.289,51.474,53.096,56.665,46.712,56.665"/>
				</g>
			</g>
			<g>
				<g>
					<defs>
						<rect id="SVGID_7_" x="4.506" y="5.111" width="54.732" height="52.508"/>
					</defs>
					<clipPath id="SVGID_8_">
						<use xlink:href="#SVGID_7_"  overflow="visible"/>
					</clipPath>
					<path clip-path="url(#SVGID_8_)" fill="#80CCC7" d="M46.712,32.563c-6.905,0-12.524,5.62-12.524,12.528
						c0,6.905,5.619,12.525,12.524,12.525c6.908,0,12.526-5.62,12.526-12.525C59.24,38.184,53.621,32.563,46.712,32.563
						 M46.712,34.468c5.858,0,10.623,4.766,10.623,10.624c0,5.856-4.765,10.622-10.623,10.622c-5.856,0-10.623-4.766-10.623-10.622
						C36.089,39.233,40.855,34.468,46.712,34.468"/>
				</g>
			</g>
			<g>
				<g>
					<defs>
						<rect id="SVGID_9_" x="4.506" y="5.111" width="54.732" height="52.508"/>
					</defs>
					<clipPath id="SVGID_10_">
						<use xlink:href="#SVGID_9_"  overflow="visible"/>
					</clipPath>
					<path clip-path="url(#SVGID_10_)" fill="#80CCC7" d="M49.189,47.264c0-0.428-0.219-0.78-0.66-1.059
						c-0.357-0.229-0.713-0.345-1.066-0.345v3.034c0.553-0.086,0.977-0.269,1.277-0.543S49.189,47.714,49.189,47.264 M44.748,42.252
						c0,0.457,0.195,0.806,0.592,1.039c0.193,0.11,0.494,0.214,0.91,0.307v-2.662c-0.426,0-0.777,0.107-1.049,0.323
						C44.896,41.5,44.748,41.832,44.748,42.252 M50.71,41.984l-1.688,0.345c-0.143-0.365-0.287-0.634-0.436-0.8
						c-0.268-0.297-0.643-0.477-1.125-0.536v2.811c1.064,0.161,1.898,0.489,2.507,0.984c0.724,0.592,1.085,1.395,1.085,2.4
						c0,1.026-0.379,1.846-1.141,2.448c-0.682,0.547-1.498,0.817-2.451,0.817v1.466H46.25v-1.466c-0.229,0-0.512-0.039-0.846-0.119
						c-0.648-0.154-1.215-0.428-1.697-0.816c-0.674-0.545-1.119-1.271-1.336-2.182l1.744-0.38c0.154,0.544,0.412,0.984,0.771,1.327
						c0.395,0.369,0.85,0.556,1.362,0.556v-3.136c-0.112-0.044-0.328-0.097-0.649-0.157c-0.322-0.063-0.631-0.169-0.929-0.316
						c-0.668-0.327-1.146-0.714-1.435-1.16c-0.286-0.443-0.43-0.981-0.43-1.612c0-0.929,0.353-1.684,1.057-2.265
						c0.662-0.546,1.457-0.815,2.386-0.815v-0.977h1.215v1.021c0.149,0,0.365,0.04,0.649,0.119c0.525,0.147,0.984,0.378,1.373,0.687
						C50.048,40.669,50.458,41.256,50.71,41.984"/>
				</g>
			</g>
		</g>
	</g>
</g>
<g id="Layer_2" display="none">
	<g display="inline">
		<g>
			<g>
				<g>
					<defs>
						<rect id="SVGID_11_" x="4.049" y="5.666" width="55.646" height="51.396"/>
					</defs>
					<clipPath id="SVGID_12_">
						<use xlink:href="#SVGID_11_"  overflow="visible"/>
					</clipPath>
					<path clip-path="url(#SVGID_12_)" fill="#58A5DB" d="M55.445,31.365c0-14.193-11.506-25.698-25.697-25.698
						c-14.193,0-25.699,11.505-25.699,25.698c0,14.19,11.506,25.696,25.699,25.696C43.939,57.063,55.445,45.557,55.445,31.365"/>
				</g>
			</g>
			<g>
				<g>
					<defs>
						<rect id="SVGID_13_" x="4.049" y="5.666" width="55.646" height="51.396"/>
					</defs>
					<clipPath id="SVGID_14_">
						<use xlink:href="#SVGID_13_"  overflow="visible"/>
					</clipPath>
					<path clip-path="url(#SVGID_14_)" fill="#FFFFFF" d="M42.742,30.042l-2.131-0.526l-0.461-0.113l-0.135-0.457
						c-0.232-0.84-0.564-1.646-0.978-2.398l-0.246-0.452l0.297-0.415l1.033-1.453c0.346-0.489,0.291-1.151-0.138-1.584l-1.45-1.441
						c-0.229-0.232-0.537-0.358-0.863-0.358c-0.223,0-0.446,0.061-0.646,0.182L35.4,22.006l-0.408,0.248l-0.42-0.238
						c-0.799-0.453-1.664-0.811-2.561-1.063l-0.503-0.143l-0.088-0.513L31.065,18.2c-0.098-0.599-0.614-1.026-1.213-1.026h-2.047
						c-0.569,0-1.064,0.384-1.196,0.938l-0.564,2.319l-0.114,0.454l-0.447,0.14c-0.808,0.25-1.596,0.587-2.339,1.016l-0.422,0.242
						l-0.41-0.26l-2.322-1.411c-0.193-0.111-0.413-0.176-0.636-0.176c-0.327,0-0.64,0.126-0.873,0.361l-1.446,1.442
						c-0.418,0.424-0.47,1.101-0.13,1.584l1.563,2.204l0.287,0.402l-0.222,0.44c-0.313,0.613-0.572,1.285-0.777,1.992l-0.132,0.455
						l-0.462,0.109l-2.48,0.605c-0.556,0.134-0.94,0.628-0.94,1.197v2.048c0,0.601,0.429,1.106,1.022,1.212l2.381,0.401l0.497,0.085
						l0.147,0.486c0.228,0.751,0.529,1.471,0.896,2.146l0.224,0.417l-0.248,0.402l-1.479,2.429c-0.292,0.479-0.218,1.104,0.185,1.51
						l1.439,1.443c0.234,0.234,0.548,0.363,0.876,0.363c0.254,0,0.503-0.079,0.713-0.225l2.189-1.556l0.412-0.293l0.446,0.236
						c0.643,0.34,1.32,0.62,2.022,0.832l0.451,0.138l0.108,0.455l0.587,2.408c0.129,0.548,0.624,0.933,1.195,0.933h2.043
						c0.601,0,1.113-0.43,1.215-1.021l0.37-2.187l0.084-0.512l0.504-0.139c0.791-0.226,1.528-0.515,2.197-0.863l0.444-0.231
						l0.414,0.291l1.549,1.1c0.211,0.153,0.455,0.227,0.713,0.227c0.33,0,0.64-0.127,0.871-0.354l1.444-1.448
						c0.4-0.405,0.476-1.025,0.177-1.515l-0.985-1.612l-0.253-0.418l0.248-0.425c0.484-0.813,0.865-1.686,1.136-2.588l0.146-0.488
						l0.5-0.085l2.03-0.35c0.595-0.102,1.024-0.607,1.024-1.208V31.23C43.68,30.665,43.296,30.172,42.742,30.042 M28.829,37.407
						c-2.926,0-5.3-2.376-5.3-5.308c0-2.928,2.374-5.301,5.3-5.301c2.928,0,5.305,2.373,5.305,5.301
						C34.132,35.031,31.756,37.407,28.829,37.407"/>
				</g>
			</g>
			<g>
				<g>
					<defs>
						<rect id="SVGID_15_" x="4.049" y="5.666" width="55.646" height="51.396"/>
					</defs>
					<clipPath id="SVGID_16_">
						<use xlink:href="#SVGID_15_"  overflow="visible"/>
					</clipPath>
					<path clip-path="url(#SVGID_16_)" fill="#FFFFFF" d="M49.255,15.722c-1.418,0-2.569,1.157-2.569,2.578
						c0,1.419,1.151,2.574,2.569,2.574c1.42,0,2.574-1.155,2.574-2.574C51.832,16.879,50.675,15.722,49.255,15.722 M48.637,27.827
						c-0.767-0.012-1.418-0.534-1.593-1.278l-0.26-1.114c-0.271-0.094-0.533-0.205-0.783-0.327l-1.021,0.704
						c-0.272,0.192-0.602,0.296-0.938,0.296c-0.451-0.008-0.856-0.179-1.168-0.479l-0.83-0.857c-0.53-0.538-0.623-1.396-0.205-2.04
						l0.699-1.129c-0.136-0.284-0.252-0.573-0.351-0.865l-1.063-0.191c-0.793-0.142-1.365-0.83-1.356-1.644l0.012-1.171
						c0.01-0.758,0.533-1.412,1.271-1.591l1.158-0.267c0.095-0.271,0.194-0.521,0.308-0.764L41.8,14.088
						c-0.459-0.664-0.368-1.579,0.203-2.132l0.824-0.813c0.312-0.308,0.726-0.478,1.164-0.478c0.313,0.006,0.603,0.091,0.858,0.246
						l1,0.727c0.354-0.186,0.726-0.344,1.101-0.472l0.274-1.063c0.183-0.729,0.838-1.242,1.596-1.242l1.187,0.014
						c0.806,0.006,1.486,0.59,1.617,1.389l0.146,0.912c0.383,0.129,0.758,0.29,1.117,0.479l0.69-0.41
						c0.271-0.154,0.563-0.232,0.858-0.232c0.453,0.007,0.861,0.185,1.168,0.496l0.814,0.833c0.563,0.583,0.629,1.477,0.152,2.13
						l-0.418,0.576c0.156,0.325,0.289,0.669,0.402,1.03l0.938,0.236c0.756,0.194,1.27,0.867,1.246,1.64L58.727,19.1
						c-0.006,0.814-0.595,1.496-1.4,1.617l-0.861,0.137c-0.133,0.381-0.305,0.765-0.512,1.139l0.402,0.677
						c0.396,0.667,0.285,1.503-0.267,2.036l-0.825,0.813c-0.326,0.311-0.736,0.474-1.17,0.474c-0.361-0.01-0.685-0.116-0.957-0.313
						l-0.646-0.47c-0.27,0.121-0.563,0.231-0.877,0.334l-0.172,0.938c-0.146,0.791-0.828,1.363-1.627,1.363L48.637,27.827z"/>
				</g>
			</g>
			<g>
				<g>
					<defs>
						<rect id="SVGID_17_" x="4.049" y="5.666" width="55.646" height="51.396"/>
					</defs>
					<clipPath id="SVGID_18_">
						<use xlink:href="#SVGID_17_"  overflow="visible"/>
					</clipPath>
					<path clip-path="url(#SVGID_18_)" fill="#58A5DB" d="M49.255,19.921c-0.894,0-1.618-0.729-1.618-1.622
						c0-0.896,0.727-1.625,1.618-1.625c0.896,0,1.623,0.729,1.623,1.625C50.878,19.195,50.15,19.921,49.255,19.921 M48.822,7.912
						c-1.195,0-2.232,0.812-2.521,1.973l-0.146,0.566c-0.066,0.024-0.133,0.055-0.199,0.084l-0.471-0.346l-0.068-0.051l-0.072-0.043
						c-0.398-0.239-0.85-0.373-1.305-0.383h-0.002c-0.736,0-1.389,0.27-1.881,0.756l-0.824,0.813
						c-0.893,0.858-1.033,2.302-0.316,3.341l0.328,0.47l-0.492,0.114c-1.186,0.288-2.008,1.314-2.022,2.506l-0.013,1.176
						c-0.012,1.28,0.894,2.369,2.15,2.59l0.477,0.088l-0.422,0.68c-0.639,0.979-0.496,2.342,0.357,3.204l0.791,0.816l0.021,0.021
						l0.02,0.02c0.484,0.475,1.121,0.739,1.791,0.752h0.002c0.578,0,1.096-0.163,1.535-0.473l0.465-0.322l0.117,0.502
						c0.271,1.17,1.303,1.998,2.506,2.015l1.168,0.013c1.285,0,2.363-0.9,2.59-2.142l0.059-0.312l0.14,0.102
						c0.438,0.313,0.942,0.484,1.472,0.498l0.024,0.001H54.1c0.678,0,1.319-0.257,1.813-0.723l0.855-0.841
						c0.856-0.832,1.032-2.148,0.416-3.191l-0.14-0.229c0.039-0.082,0.076-0.164,0.11-0.247l0.332-0.052
						c1.259-0.19,2.188-1.268,2.197-2.557l0.01-1.151c0.033-1.186-0.771-2.246-1.957-2.555l-0.446-0.11
						c-0.015-0.039-0.028-0.077-0.045-0.115l0.101-0.137c0.745-1.028,0.646-2.438-0.238-3.35l-0.822-0.842
						c-0.477-0.491-1.125-0.77-1.818-0.78h-0.002c-0.486,0-0.941,0.121-1.344,0.353l-0.277,0.165
						c-0.072-0.033-0.146-0.064-0.219-0.097l-0.059-0.361c-0.207-1.267-1.279-2.187-2.555-2.194l-1.158-0.012l-0.011-0.001h-0.021
						V7.912z M49.255,21.826c1.947,0,3.527-1.577,3.527-3.526c0-1.942-1.58-3.529-3.527-3.529c-1.944,0-3.522,1.587-3.522,3.529
						C45.732,20.249,47.311,21.826,49.255,21.826 M48.822,9.816c0.004,0,0.008,0,0.012,0l1.164,0.014
						c0.35,0.003,0.633,0.254,0.688,0.59l0.19,1.199l0.043,0.294l0.283,0.086c0.514,0.148,1.002,0.357,1.457,0.621l0.235,0.136
						l0.236-0.137l0.934-0.554c0.115-0.064,0.24-0.101,0.371-0.101c0.185,0.003,0.355,0.076,0.484,0.208l0.818,0.836
						c0.238,0.246,0.268,0.623,0.063,0.904l-0.595,0.818l-0.174,0.233l0.143,0.259c0.232,0.43,0.41,0.896,0.541,1.374l0.07,0.264
						l0.262,0.068l1.212,0.311c0.317,0.08,0.538,0.361,0.528,0.688l-0.013,1.161c-0.002,0.345-0.252,0.634-0.59,0.687l-1.16,0.185
						l-0.287,0.049l-0.088,0.273c-0.155,0.519-0.381,1.011-0.659,1.474l-0.144,0.239l0.141,0.237l0.552,0.922
						c0.168,0.284,0.119,0.643-0.108,0.863L54.6,24.835c-0.136,0.127-0.313,0.199-0.502,0.199c-0.146-0.003-0.283-0.052-0.402-0.137
						l-0.875-0.637l-0.234-0.169l-0.256,0.131c-0.381,0.195-0.809,0.354-1.26,0.48l-0.281,0.071l-0.057,0.287l-0.226,1.24
						c-0.062,0.337-0.354,0.58-0.69,0.58h-0.006l-1.166-0.013c-0.32-0.004-0.603-0.229-0.674-0.542l-0.32-1.372l-0.06-0.261
						l-0.256-0.086c-0.396-0.124-0.789-0.283-1.147-0.48l-0.254-0.142l-0.234,0.166l-1.26,0.869
						c-0.119,0.083-0.256,0.127-0.398,0.127h-0.004c-0.189-0.003-0.365-0.079-0.5-0.212L42.727,24.1
						c-0.228-0.229-0.271-0.585-0.095-0.857l0.854-1.375l0.144-0.229L43.505,21.4c-0.202-0.387-0.373-0.801-0.498-1.229
						l-0.077-0.272l-0.287-0.055l-1.351-0.246c-0.338-0.059-0.58-0.352-0.578-0.694l0.015-1.171c0.004-0.319,0.227-0.6,0.543-0.677
						l1.42-0.325l0.264-0.063l0.076-0.26c0.123-0.399,0.275-0.779,0.453-1.125l0.131-0.255l-0.156-0.232l-0.881-1.261
						c-0.193-0.28-0.156-0.67,0.084-0.901l0.83-0.815c0.137-0.134,0.313-0.204,0.498-0.204h0.004
						c0.127,0.003,0.254,0.044,0.363,0.107l1.121,0.82l0.233,0.146l0.431-0.132c0.432-0.238,0.879-0.428,1.34-0.563l0.258-0.077
						l0.064-0.254l0.34-1.32C48.225,10.035,48.501,9.816,48.822,9.816"/>
				</g>
			</g>
		</g>
	</g>
</g>
<g id="Layer_3" display="none">
	<g display="inline">
		<g>
			<g>
				<g>
					<defs>
						<rect id="SVGID_19_" x="6.174" y="2.496" width="51.396" height="57.735"/>
					</defs>
					<clipPath id="SVGID_20_">
						<use xlink:href="#SVGID_19_"  overflow="visible"/>
					</clipPath>
					<path clip-path="url(#SVGID_20_)" fill="#D03E8C" d="M31.873,2.497c-14.171,0-25.698,11.527-25.698,25.701
						c0,14.171,11.527,25.695,25.698,25.695c14.167,0,25.697-11.524,25.697-25.695C57.57,14.026,46.041,2.497,31.873,2.497"/>
				</g>
			</g>
			<g>
				<g>
					<defs>
						<rect id="SVGID_21_" x="6.174" y="2.496" width="51.396" height="57.735"/>
					</defs>
					<clipPath id="SVGID_22_">
						<use xlink:href="#SVGID_21_"  overflow="visible"/>
					</clipPath>
					<path clip-path="url(#SVGID_22_)" fill="#FFFFFF" d="M31.873,59.281c-3.774,0-7.513-0.951-10.812-2.757l-0.496-0.27v-11.68
						c0-4.022,2.099-7.654,5.614-9.718l0.528-0.309l0.5,0.352c1.38,0.971,2.994,1.479,4.667,1.479c1.672,0,3.286-0.511,4.665-1.479
						l0.5-0.351l0.527,0.309c3.518,2.063,5.617,5.691,5.617,9.717v11.678l-0.494,0.271C39.389,58.327,35.646,59.281,31.873,59.281"
						/>
				</g>
			</g>
			<g>
				<g>
					<defs>
						<rect id="SVGID_23_" x="6.174" y="2.496" width="51.396" height="57.735"/>
					</defs>
					<clipPath id="SVGID_24_">
						<use xlink:href="#SVGID_23_"  overflow="visible"/>
					</clipPath>
					<path clip-path="url(#SVGID_24_)" fill="#D03E8C" d="M26.752,33.42l-1.055,0.619c-3.81,2.232-6.084,6.173-6.084,10.536V55.69
						v1.129l0.991,0.542c3.439,1.88,7.335,2.87,11.268,2.87c3.935,0,7.833-0.991,11.272-2.873l0.989-0.542v-1.129v-11.11
						c0-4.365-2.274-8.305-6.088-10.536l-1.055-0.618l-1,0.703c-1.218,0.854-2.642,1.306-4.119,1.306
						c-1.476,0-2.901-0.452-4.12-1.307L26.752,33.42z M26.661,35.681c1.478,1.037,3.273,1.653,5.213,1.653
						c1.938,0,3.733-0.615,5.211-1.652c3.065,1.795,5.146,5.083,5.146,8.896v11.111c-3.08,1.685-6.608,2.643-10.358,2.643
						c-3.748,0-7.277-0.957-10.356-2.64V44.576C21.517,40.765,23.597,37.478,26.661,35.681"/>
				</g>
			</g>
			<g>
				<g>
					<defs>
						<rect id="SVGID_25_" x="6.174" y="2.496" width="51.396" height="57.735"/>
					</defs>
					<clipPath id="SVGID_26_">
						<use xlink:href="#SVGID_25_"  overflow="visible"/>
					</clipPath>
					<path clip-path="url(#SVGID_26_)" fill="#FFFFFF" d="M19.744,27.601c0.148-2.888,1.303-5.512,3.117-7.521l-6.68-6.682
						c-3.52,3.729-5.726,8.706-5.883,14.202H19.744z"/>
				</g>
			</g>
			<g>
				<g>
					<defs>
						<rect id="SVGID_27_" x="6.174" y="2.496" width="51.396" height="57.735"/>
					</defs>
					<clipPath id="SVGID_28_">
						<use xlink:href="#SVGID_27_"  overflow="visible"/>
					</clipPath>
					<path clip-path="url(#SVGID_28_)" fill="#FFFFFF" d="M23.755,19.182c2.143-1.935,4.814-2.977,7.521-3.116V6.618
						c-5.128,0.149-10.207,2.105-14.203,5.885L23.755,19.182z"/>
				</g>
			</g>
			<g>
				<g>
					<defs>
						<rect id="SVGID_29_" x="6.174" y="2.496" width="51.396" height="57.735"/>
					</defs>
					<clipPath id="SVGID_30_">
						<use xlink:href="#SVGID_29_"  overflow="visible"/>
					</clipPath>
					<path clip-path="url(#SVGID_30_)" fill="#FFFFFF" d="M39.988,19.182c-2.143-1.935-4.813-2.977-7.521-3.116V6.618
						c5.128,0.149,10.207,2.105,14.203,5.885L39.988,19.182z"/>
				</g>
			</g>
			<g>
				<g>
					<defs>
						<rect id="SVGID_31_" x="6.174" y="2.496" width="51.396" height="57.735"/>
					</defs>
					<clipPath id="SVGID_32_">
						<use xlink:href="#SVGID_31_"  overflow="visible"/>
					</clipPath>
					<path clip-path="url(#SVGID_32_)" fill="#FFFFFF" d="M47.563,13.396l-6.681,6.684c0.4,0.439,0.75,0.911,1.072,1.393
						l7.364-2.313c0.461-0.146,0.949-0.013,1.271,0.313c0.109,0.108,0.199,0.238,0.266,0.386c0.258,0.591,0.029,1.282-0.528,1.604
						l-6.681,3.834c0.188,0.759,0.312,1.53,0.351,2.309h9.448C53.296,22.473,51.337,17.394,47.563,13.396"/>
				</g>
			</g>
			<g>
				<g>
					<defs>
						<rect id="SVGID_33_" x="6.174" y="2.496" width="51.396" height="57.735"/>
					</defs>
					<clipPath id="SVGID_34_">
						<use xlink:href="#SVGID_33_"  overflow="visible"/>
					</clipPath>
					<path clip-path="url(#SVGID_34_)" fill="#FFFFFF" d="M39.947,23.426c0.373,0.629,0.684,1.301,0.902,2.014l8.85-5.079
						L39.947,23.426z"/>
				</g>
			</g>
			<g>
				<g>
					<defs>
						<rect id="SVGID_35_" x="6.174" y="2.496" width="51.396" height="57.735"/>
					</defs>
					<clipPath id="SVGID_36_">
						<use xlink:href="#SVGID_35_"  overflow="visible"/>
					</clipPath>
					<path clip-path="url(#SVGID_36_)" fill="#FFFFFF" d="M31.874,20.39c4.331,0,7.84,3.51,7.84,7.842
						c0,4.331-3.51,7.843-7.84,7.843c-4.331,0-7.842-3.512-7.842-7.843C24.032,23.9,27.542,20.39,31.874,20.39"/>
				</g>
			</g>
		</g>
	</g>
</g>
<g id="Layer_5" display="none">
	<g display="inline">
		<g>
			<g>
				<g>
					<defs>
						<rect id="SVGID_37_" y="2.811" width="63.746" height="57.107"/>
					</defs>
					<clipPath id="SVGID_38_">
						<use xlink:href="#SVGID_37_"  overflow="visible"/>
					</clipPath>
					<path clip-path="url(#SVGID_38_)" fill="#887677" d="M57.107,31.365c0-15.771-12.783-28.556-28.554-28.556
						C12.784,2.811,0,15.596,0,31.365c0,15.768,12.784,28.554,28.553,28.554C44.324,59.918,57.107,47.133,57.107,31.365"/>
				</g>
			</g>
			<g>
				<g>
					<defs>
						<rect id="SVGID_39_" y="2.811" width="63.746" height="57.107"/>
					</defs>
					<clipPath id="SVGID_40_">
						<use xlink:href="#SVGID_39_"  overflow="visible"/>
					</clipPath>
					<path clip-path="url(#SVGID_40_)" fill="#FFFFFF" d="M59.699,47.791c-0.59,0-1.152-0.188-1.629-0.538L33.85,29.164l-4.482,6.01
						c-0.513,0.688-1.333,1.098-2.194,1.098c-0.592,0-1.156-0.188-1.63-0.54l-6.686-4.986c-0.583-0.435-0.964-1.072-1.069-1.797
						s0.077-1.443,0.511-2.026l12.596-16.885c0.511-0.688,1.331-1.098,2.192-1.098c0.597,0,1.16,0.187,1.632,0.538l6.686,4.988
						c1.207,0.9,1.457,2.614,0.559,3.822l-4.59,6.15l24.219,18.088c1.205,0.901,1.455,2.616,0.555,3.823l-0.252,0.342
						C61.38,47.383,60.561,47.791,59.699,47.791"/>
				</g>
			</g>
			<g>
				<g>
					<defs>
						<rect id="SVGID_41_" y="2.811" width="63.746" height="57.107"/>
					</defs>
					<clipPath id="SVGID_42_">
						<use xlink:href="#SVGID_41_"  overflow="visible"/>
					</clipPath>
					<path clip-path="url(#SVGID_42_)" fill="#887677" d="M33.087,7.882c-1.194,0-2.332,0.569-3.042,1.523L17.452,26.286
						c-0.604,0.812-0.856,1.811-0.71,2.813c0.146,1.005,0.673,1.893,1.485,2.494l6.683,4.985c0.66,0.489,1.442,0.75,2.263,0.75
						c1.193,0,2.33-0.568,3.041-1.521l3.851-5.162l23.369,17.453c0.666,0.494,1.446,0.751,2.266,0.751
						c1.193,0,2.33-0.566,3.039-1.521l0.26-0.352c1.246-1.668,0.898-4.047-0.773-5.297L38.852,24.226l3.959-5.304
						c1.248-1.677,0.901-4.056-0.773-5.305l-6.686-4.988C34.699,8.141,33.914,7.882,33.087,7.882 M33.087,9.996
						c0.349,0,0.701,0.104,0.998,0.327l6.687,4.988c0.74,0.55,0.893,1.606,0.344,2.345l-5.223,6.999l25.065,18.721
						c0.737,0.551,0.892,1.604,0.34,2.343l-0.256,0.345c-0.328,0.44-0.832,0.67-1.344,0.67c-0.349,0-0.701-0.106-1-0.33
						l-25.064-18.72l-5.115,6.857c-0.328,0.438-0.835,0.673-1.346,0.673c-0.349,0-0.699-0.108-0.998-0.331l-6.686-4.987
						c-0.739-0.549-0.892-1.604-0.342-2.344l12.596-16.884C32.07,10.228,32.576,9.996,33.087,9.996"/>
				</g>
			</g>
			<g>
				<g>
					<defs>
						<rect id="SVGID_43_" y="2.811" width="63.746" height="57.107"/>
					</defs>
					<clipPath id="SVGID_44_">
						<use xlink:href="#SVGID_43_"  overflow="visible"/>
					</clipPath>
					<path clip-path="url(#SVGID_44_)" fill="#FFFFFF" d="M37.896,40.934c0.545,0,0.987,0.441,0.987,0.987v0.89h1.763
						c0.545,0,0.987,0.438,0.987,0.985v3.124h-29.33v-3.124c0-0.547,0.442-0.985,0.988-0.985h1.761v-0.89
						c0-0.546,0.441-0.987,0.987-0.987H37.896z"/>
				</g>
			</g>
		</g>
	</g>
</g>
<g id="Layer_6" display="none">
	<g display="inline">
		<g>
			<g>
				<g>
					<defs>
						<rect id="SVGID_45_" x="3.042" y="2.534" width="57.661" height="57.659"/>
					</defs>
					<clipPath id="SVGID_46_">
						<use xlink:href="#SVGID_45_"  overflow="visible"/>
					</clipPath>
					<path clip-path="url(#SVGID_46_)" fill="#829D50" d="M60.705,31.365c0,15.921-12.91,28.827-28.831,28.827
						c-15.925,0-28.831-12.906-28.831-28.827c0-15.926,12.906-28.83,28.831-28.83C47.794,2.535,60.705,15.441,60.705,31.365"/>
				</g>
			</g>
			<g>
				<g>
					<defs>
						<rect id="SVGID_47_" x="3.042" y="2.534" width="57.661" height="57.659"/>
					</defs>
					<clipPath id="SVGID_48_">
						<use xlink:href="#SVGID_47_"  overflow="visible"/>
					</clipPath>
					<path clip-path="url(#SVGID_48_)" fill="#FFFFFF" d="M45.348,37.907c-1.563-2.415-3.984-4.226-6.841-4.979
						c-1.799,1.677-4.204,2.715-6.854,2.715c-2.647,0-5.054-1.038-6.854-2.715c-2.599,0.688-4.841,2.25-6.404,4.347
						c2.063,1.095,7.004,3.258,13.813,3.258C36.566,40.531,40.975,39.649,45.348,37.907"/>
				</g>
			</g>
			<g>
				<g>
					<defs>
						<rect id="SVGID_49_" x="3.042" y="2.534" width="57.661" height="57.659"/>
					</defs>
					<clipPath id="SVGID_50_">
						<use xlink:href="#SVGID_49_"  overflow="visible"/>
					</clipPath>
					<path clip-path="url(#SVGID_50_)" fill="#FFFFFF" d="M47.223,45.862v-1.639c0-0.347-0.017-0.69-0.043-1.031l-0.386-1.897
						c-4.903,1.979-9.834,2.979-14.7,2.979c-7.476,0-12.945-2.396-15.411-3.729c-0.386,1.158-0.601,2.392-0.601,3.678v0.778
						c2.699,1.155,8.499,3.15,16.389,3.15C37.371,48.154,42.313,47.385,47.223,45.862"/>
				</g>
			</g>
			<g>
				<g>
					<defs>
						<rect id="SVGID_51_" x="3.042" y="2.534" width="57.661" height="57.659"/>
					</defs>
					<clipPath id="SVGID_52_">
						<use xlink:href="#SVGID_51_"  overflow="visible"/>
					</clipPath>
					<path clip-path="url(#SVGID_52_)" fill="#FFFFFF" d="M31.653,33.917c5.076,0,9.187-4.744,9.187-10.598
						c0-0.939-0.105-1.854-0.309-2.726l-1.688,2.724c-0.405,1.366-1.895,2.355-3.723,2.355c-1.16,0-2.179-0.399-2.877-1.039h-1.186
						c-0.697,0.64-1.719,1.039-2.876,1.039c-1.817,0-3.299-0.978-3.718-2.329l-1.691-2.736c-0.2,0.867-0.307,1.776-0.307,2.712
						C22.466,29.173,26.58,33.917,31.653,33.917"/>
				</g>
			</g>
			<g>
				<g>
					<defs>
						<rect id="SVGID_53_" x="3.042" y="2.534" width="57.661" height="57.659"/>
					</defs>
					<clipPath id="SVGID_54_">
						<use xlink:href="#SVGID_53_"  overflow="visible"/>
					</clipPath>
					<path clip-path="url(#SVGID_54_)" fill="#FFFFFF" d="M39.02,17.001c-1.672-2.593-4.349-4.275-7.368-4.275
						c-3.698,0-6.884,2.524-8.34,6.155l2.351,1.311l-0.002,0.013c0.669-0.47,1.546-0.751,2.521-0.751
						c1.091,0,2.062,0.353,2.751,0.926h1.438c0.691-0.573,1.664-0.926,2.751-0.926c0.971,0,1.842,0.276,2.512,0.741l-0.002-0.003
						l2.242-1.249c0.135-0.026,0.104-0.103,0.256-0.132"/>
				</g>
			</g>
			<g>
				<g>
					<defs>
						<rect id="SVGID_55_" x="3.042" y="2.534" width="57.661" height="57.659"/>
					</defs>
					<clipPath id="SVGID_56_">
						<use xlink:href="#SVGID_55_"  overflow="visible"/>
					</clipPath>
					<path clip-path="url(#SVGID_56_)" fill="#FFFFFF" d="M29.809,22.534c0,0.717-0.79,1.298-1.763,1.298
						c-0.975,0-1.764-0.581-1.764-1.298c0-0.719,0.789-1.3,1.764-1.3C29.019,21.236,29.809,21.817,29.809,22.534"/>
				</g>
			</g>
			<g>
				<g>
					<defs>
						<rect id="SVGID_57_" x="3.042" y="2.534" width="57.661" height="57.659"/>
					</defs>
					<clipPath id="SVGID_58_">
						<use xlink:href="#SVGID_57_"  overflow="visible"/>
					</clipPath>
					<path clip-path="url(#SVGID_58_)" fill="#FFFFFF" d="M36.828,22.534c0,0.717-0.789,1.298-1.764,1.298
						c-0.974,0-1.765-0.581-1.765-1.298c0-0.719,0.791-1.3,1.765-1.3C36.039,21.235,36.828,21.817,36.828,22.534"/>
				</g>
			</g>
		</g>
	</g>
</g>
<g>
	<path fill="#399FD3" d="M60.162,33.99c0-15.684-12.713-28.397-28.397-28.397c-15.683,0-28.396,12.714-28.396,28.397
		c0,15.683,12.713,28.396,28.396,28.396C47.449,62.384,60.162,49.671,60.162,33.99"/>
	<path fill="#FFFFFF" d="M38.236,20.167v-7.989c0-2.753-2.239-4.991-4.989-4.991h-3.133c-2.751,0-4.989,2.238-4.989,4.991v7.989
		H38.236z M32.63,40.048l-0.598-6.527l0.567-0.34c0.547-0.331,0.879-0.905,0.879-1.539c0-0.989-0.808-1.796-1.798-1.796
		c-0.99,0-1.797,0.807-1.797,1.796c0,0.634,0.33,1.208,0.88,1.539l0.566,0.34l-0.601,6.527H32.63z M15.031,48.948V20.167h3.963
		v-7.989c0-6.134,4.988-11.124,11.12-11.124h3.133c6.131,0,11.124,4.99,11.124,11.124v7.989h3.96v28.781H15.031z"/>
	<path fill="#399FD3" d="M31.679,32.507l-0.371-0.227c-0.113-0.067-0.372-0.266-0.372-0.642c0-0.408,0.335-0.743,0.747-0.743
		c0.41,0,0.744,0.335,0.744,0.743c0,0.376-0.26,0.571-0.37,0.639L31.679,32.507z M26.175,19.115v-6.938
		c0-2.171,1.768-3.94,3.938-3.94h3.133c2.172,0,3.938,1.77,3.938,3.94v6.938H26.175z M33.247,0h-3.133
		c-6.712,0-12.171,5.462-12.171,12.176v6.938h-1.861H13.98v2.104v26.677v2.103h2.102h31.197h2.104v-2.103V21.219v-2.104h-2.104
		H45.42v-6.938C45.419,5.463,39.959,0,33.247,0 M29.576,41.1h2.107h2.101l-0.644-7.018c0.83-0.502,1.392-1.399,1.392-2.442
		c0-1.572-1.277-2.846-2.849-2.846c-1.574,0-2.85,1.273-2.85,2.846c0,1.043,0.558,1.94,1.389,2.442L29.576,41.1z M47.279,47.896
		H16.083V21.219h31.194v26.677H47.279z M33.247,2.104c5.553,0,10.071,4.521,10.071,10.072v7.915h-4.03v-7.915
		c0-3.333-2.713-6.042-6.041-6.042h-3.133c-3.329,0-6.041,2.709-6.041,6.042v7.915h-4.028v-7.915c0-5.552,4.52-10.072,10.069-10.072
		H33.247z"/>
</g>
</svg>
