<?xml version="1.0" encoding="iso-8859-1"?>
<!-- Generator: Adobe Illustrator 14.0.0, SVG Export Plug-In . SVG Version: 6.00 Build 43363)  -->
<!DOCTYPE svg PUBLIC "-//W3C//DTD SVG 1.1//EN" "http://www.w3.org/Graphics/SVG/1.1/DTD/svg11.dtd">
<svg version="1.1" xmlns="http://www.w3.org/2000/svg" xmlns:xlink="http://www.w3.org/1999/xlink" x="0px" y="0px"
	 width="63.745px" height="62.729px" viewBox="0 0 63.745 62.729" style="enable-background:new 0 0 63.745 62.729;"
	 xml:space="preserve">
<g id="Layer_1">
	<g>
		<g>
			<defs>
				<rect id="SVGID_1_" x="4.506" y="5.111" width="54.733" height="52.506"/>
			</defs>
			<clipPath id="SVGID_2_">
				<use xlink:href="#SVGID_1_"  style="overflow:visible;"/>
			</clipPath>
			<path style="clip-path:url(#SVGID_2_);fill:#80CCC7;" d="M55.903,30.81c0-14.193-11.506-25.698-25.698-25.698
				c-14.193,0-25.699,11.505-25.699,25.698c0,14.192,11.506,25.697,25.699,25.697C44.397,56.507,55.903,45.002,55.903,30.81"/>
		</g>
		<rect x="14.512" y="31.158" style="fill:#FFFFFF;" width="4.804" height="13.368"/>
		<rect x="22.917" y="27.177" style="fill:#FFFFFF;" width="4.804" height="17.35"/>
		<rect x="31.321" y="23.196" style="fill:#FFFFFF;" width="4.805" height="21.33"/>
		<rect x="39.726" y="19.215" style="fill:#FFFFFF;" width="4.805" height="25.313"/>
		<g>
			<defs>
				<rect id="SVGID_3_" x="4.506" y="5.111" width="54.733" height="52.506"/>
			</defs>
			<clipPath id="SVGID_4_">
				<use xlink:href="#SVGID_3_"  style="overflow:visible;"/>
			</clipPath>
			<path style="clip-path:url(#SVGID_4_);fill:#FFFFFF;" d="M33.336,11.998v2.406h1.413c-3.286,2.766-10.29,7.664-20.838,9.958
				l0.512,2.352c11.354-2.477,18.801-7.818,22.181-10.726v1.684h2.407v-5.674H33.336z"/>
			<path style="clip-path:url(#SVGID_4_);fill:#FFFFFF;" d="M46.713,56.665c-6.382,0-11.574-5.191-11.574-11.573
				c0-6.384,5.192-11.576,11.574-11.576s11.575,5.192,11.575,11.576C58.288,51.474,53.095,56.665,46.713,56.665"/>
			<path style="clip-path:url(#SVGID_4_);fill:#80CCC7;" d="M46.713,32.563c-6.907,0-12.526,5.62-12.526,12.528
				c0,6.905,5.619,12.525,12.526,12.525c6.907,0,12.527-5.62,12.527-12.525C59.24,38.184,53.62,32.563,46.713,32.563 M46.713,34.468
				c5.858,0,10.623,4.766,10.623,10.624c0,5.856-4.765,10.622-10.623,10.622S36.09,50.948,36.09,45.092
				C36.09,39.233,40.855,34.468,46.713,34.468"/>
			<path style="clip-path:url(#SVGID_4_);fill:#80CCC7;" d="M49.189,47.264c0-0.428-0.219-0.78-0.659-1.059
				c-0.358-0.229-0.713-0.343-1.067-0.343v3.034c0.551-0.086,0.976-0.269,1.277-0.543C49.04,48.077,49.189,47.714,49.189,47.264
				 M44.747,42.252c0,0.457,0.197,0.806,0.593,1.039c0.192,0.112,0.494,0.214,0.91,0.307v-2.662c-0.427,0-0.778,0.107-1.049,0.323
				C44.896,41.5,44.747,41.832,44.747,42.252 M50.711,41.984l-1.688,0.343c-0.143-0.365-0.288-0.632-0.436-0.798
				c-0.267-0.297-0.641-0.477-1.124-0.538v2.811c1.065,0.161,1.899,0.489,2.506,0.984c0.723,0.592,1.085,1.395,1.085,2.402
				c0,1.026-0.379,1.844-1.141,2.448c-0.68,0.547-1.497,0.817-2.45,0.817v1.466H46.25v-1.466c-0.229,0-0.511-0.039-0.845-0.119
				c-0.649-0.154-1.216-0.428-1.698-0.816c-0.674-0.545-1.12-1.272-1.336-2.182l1.744-0.38c0.154,0.544,0.412,0.986,0.771,1.327
				c0.395,0.371,0.851,0.556,1.364,0.556v-3.136c-0.113-0.044-0.329-0.095-0.65-0.157c-0.322-0.063-0.631-0.169-0.929-0.316
				c-0.668-0.327-1.145-0.714-1.433-1.16c-0.287-0.445-0.431-0.983-0.431-1.614c0-0.927,0.353-1.682,1.058-2.263
				c0.662-0.546,1.457-0.817,2.385-0.817v-0.975h1.214v1.019c0.15,0,0.366,0.04,0.65,0.119c0.526,0.149,0.984,0.378,1.374,0.687
				C50.049,40.669,50.458,41.256,50.711,41.984"/>
		</g>
	</g>
</g>
<g id="Layer_2" style="display:none;">
	<g style="display:inline;">
		<g>
			<defs>
				<rect id="SVGID_5_" x="4.049" y="5.666" width="55.647" height="51.397"/>
			</defs>
			<clipPath id="SVGID_6_">
				<use xlink:href="#SVGID_5_"  style="overflow:visible;"/>
			</clipPath>
			<path style="clip-path:url(#SVGID_6_);fill:#58A5DB;" d="M55.446,31.365c0-14.193-11.506-25.698-25.698-25.698
				c-14.193,0-25.699,11.505-25.699,25.698c0,14.192,11.506,25.698,25.699,25.698C43.94,57.063,55.446,45.557,55.446,31.365"/>
			<path style="clip-path:url(#SVGID_6_);fill:#FFFFFF;" d="M42.741,30.042l-2.13-0.526l-0.46-0.113l-0.135-0.457
				c-0.233-0.84-0.565-1.646-0.977-2.4l-0.247-0.452l0.297-0.415l1.033-1.453c0.346-0.489,0.292-1.153-0.136-1.584l-1.451-1.443
				c-0.231-0.232-0.537-0.358-0.864-0.358c-0.223,0-0.446,0.061-0.646,0.182L35.4,22.006l-0.409,0.248l-0.419-0.238
				c-0.799-0.453-1.665-0.811-2.561-1.065l-0.503-0.141l-0.088-0.513L31.065,18.2c-0.098-0.597-0.614-1.026-1.213-1.026h-2.047
				c-0.569,0-1.064,0.384-1.196,0.938l-0.564,2.319l-0.114,0.454l-0.447,0.14c-0.808,0.25-1.596,0.587-2.339,1.014l-0.422,0.242
				l-0.41-0.258l-2.322-1.411c-0.193-0.113-0.413-0.176-0.636-0.176c-0.327,0-0.64,0.126-0.873,0.361l-1.446,1.442
				c-0.418,0.424-0.47,1.101-0.13,1.584l1.563,2.206l0.287,0.402l-0.222,0.44c-0.313,0.615-0.572,1.285-0.777,1.993l-0.132,0.456
				l-0.462,0.109l-2.48,0.605c-0.556,0.134-0.94,0.628-0.94,1.199v2.047c0,0.6,0.429,1.107,1.022,1.211l2.381,0.403l0.497,0.085
				l0.147,0.486c0.228,0.751,0.529,1.471,0.896,2.146l0.224,0.417l-0.248,0.402l-1.479,2.429c-0.292,0.479-0.218,1.104,0.185,1.508
				l1.439,1.445c0.234,0.234,0.548,0.363,0.876,0.363c0.254,0,0.503-0.079,0.713-0.225l2.189-1.554l0.412-0.293l0.446,0.236
				c0.643,0.34,1.32,0.62,2.022,0.832l0.451,0.138l0.108,0.455l0.587,2.408c0.129,0.548,0.624,0.933,1.195,0.933h2.043
				c0.601,0,1.113-0.43,1.215-1.021l0.37-2.185l0.084-0.512l0.504-0.139c0.79-0.224,1.528-0.513,2.197-0.863l0.444-0.231
				l0.414,0.291l1.549,1.098c0.212,0.154,0.456,0.227,0.714,0.227c0.33,0,0.639-0.127,0.871-0.356l1.444-1.448
				c0.4-0.405,0.475-1.025,0.177-1.515l-0.987-1.612l-0.252-0.418l0.249-0.425c0.483-0.813,0.865-1.684,1.134-2.588l0.146-0.488
				l0.501-0.085l2.031-0.348c0.593-0.102,1.024-0.609,1.024-1.208v-2.045C43.68,30.665,43.296,30.172,42.741,30.042 M28.829,37.407
				c-2.926,0-5.3-2.376-5.3-5.306c0-2.928,2.374-5.301,5.3-5.301c2.928,0,5.305,2.373,5.305,5.301
				C34.133,35.031,31.756,37.407,28.829,37.407"/>
			<path style="clip-path:url(#SVGID_6_);fill:#FFFFFF;" d="M49.256,15.722c-1.419,0-2.571,1.157-2.571,2.578
				c0,1.419,1.152,2.574,2.571,2.574s2.574-1.155,2.574-2.574C51.831,16.879,50.675,15.722,49.256,15.722 M48.636,27.827
				c-0.765-0.01-1.417-0.534-1.591-1.278l-0.26-1.114c-0.27-0.094-0.533-0.205-0.784-0.327l-1.019,0.704
				c-0.274,0.192-0.601,0.296-0.94,0.296c-0.451-0.008-0.857-0.179-1.168-0.481l-0.829-0.857c-0.532-0.538-0.624-1.398-0.205-2.04
				l0.699-1.129c-0.136-0.284-0.253-0.573-0.351-0.865l-1.064-0.193c-0.792-0.14-1.365-0.83-1.357-1.642l0.012-1.171
				c0.009-0.758,0.533-1.412,1.271-1.591l1.159-0.267c0.094-0.269,0.195-0.521,0.307-0.762l-0.715-1.022
				c-0.459-0.664-0.37-1.579,0.202-2.132l0.824-0.811c0.312-0.308,0.726-0.478,1.164-0.478c0.314,0.006,0.603,0.091,0.859,0.246
				l1,0.727c0.355-0.186,0.725-0.344,1.101-0.472l0.274-1.061c0.182-0.729,0.839-1.243,1.596-1.243l1.186,0.013
				c0.806,0.006,1.487,0.59,1.617,1.389l0.146,0.912c0.383,0.129,0.758,0.29,1.116,0.479l0.692-0.41
				c0.271-0.154,0.563-0.232,0.858-0.232c0.454,0.007,0.863,0.183,1.168,0.496l0.815,0.833c0.564,0.583,0.629,1.477,0.153,2.13
				l-0.418,0.576c0.156,0.325,0.29,0.669,0.402,1.03l0.938,0.238c0.756,0.194,1.268,0.867,1.246,1.638l-0.011,1.145
				c-0.006,0.814-0.595,1.496-1.402,1.617l-0.86,0.137c-0.134,0.381-0.306,0.763-0.513,1.137l0.404,0.677
				c0.395,0.667,0.284,1.503-0.266,2.036l-0.827,0.813c-0.326,0.309-0.736,0.472-1.169,0.472c-0.361-0.008-0.685-0.116-0.957-0.313
				l-0.647-0.47c-0.269,0.121-0.563,0.233-0.878,0.334l-0.17,0.938c-0.145,0.791-0.829,1.363-1.628,1.363L48.636,27.827z"/>
			<path style="clip-path:url(#SVGID_6_);fill:#58A5DB;" d="M49.255,19.921c-0.893,0-1.619-0.727-1.619-1.622
				s0.727-1.625,1.619-1.625c0.896,0,1.623,0.729,1.623,1.625S50.151,19.921,49.255,19.921 M48.822,7.912
				c-1.195,0-2.232,0.812-2.521,1.973l-0.146,0.566c-0.067,0.026-0.134,0.055-0.201,0.084l-0.47-0.344l-0.069-0.051l-0.072-0.043
				c-0.398-0.239-0.849-0.373-1.304-0.383h-0.002c-0.737,0-1.388,0.27-1.881,0.756l-0.825,0.812
				c-0.892,0.86-1.033,2.302-0.317,3.341l0.329,0.47l-0.493,0.114c-1.185,0.288-2.007,1.316-2.022,2.506l-0.012,1.176
				c-0.013,1.28,0.893,2.369,2.15,2.59l0.476,0.088l-0.421,0.678c-0.639,0.979-0.496,2.342,0.358,3.204l0.791,0.818l0.021,0.021
				l0.02,0.02c0.484,0.473,1.12,0.739,1.791,0.752h0.002c0.578,0,1.094-0.163,1.534-0.473l0.466-0.322l0.117,0.502
				c0.272,1.17,1.302,1.998,2.505,2.013l1.168,0.013c1.285,0,2.364-0.9,2.591-2.14l0.057-0.312l0.139,0.102
				c0.438,0.313,0.944,0.484,1.472,0.498l0.024,0.001H54.1c0.677,0,1.319-0.257,1.811-0.723l0.857-0.841
				c0.857-0.832,1.032-2.148,0.416-3.191l-0.14-0.23c0.039-0.082,0.076-0.164,0.112-0.247l0.331-0.052
				c1.258-0.19,2.188-1.266,2.197-2.555l0.011-1.153c0.033-1.184-0.772-2.246-1.957-2.553l-0.448-0.112
				c-0.014-0.039-0.029-0.077-0.044-0.115l0.099-0.137c0.746-1.028,0.646-2.437-0.237-3.348l-0.824-0.842
				c-0.476-0.491-1.124-0.77-1.817-0.78h-0.002c-0.488,0-0.943,0.121-1.344,0.351l-0.278,0.165
				c-0.072-0.033-0.146-0.064-0.219-0.095l-0.058-0.363c-0.206-1.265-1.28-2.185-2.555-2.194l-1.157-0.012l-0.011-0.001H48.822z
				 M49.255,21.826c1.948,0,3.527-1.577,3.527-3.526c0-1.942-1.579-3.529-3.527-3.529c-1.945,0-3.522,1.587-3.522,3.529
				C45.733,20.249,47.31,21.826,49.255,21.826 M48.822,9.816c0.004,0,0.008,0,0.012,0l1.163,0.012
				c0.35,0.003,0.634,0.254,0.689,0.59l0.19,1.199l0.043,0.294l0.284,0.086c0.514,0.15,1.002,0.359,1.456,0.621l0.236,0.136
				l0.238-0.137l0.932-0.552c0.115-0.066,0.241-0.101,0.372-0.101c0.183,0.003,0.356,0.076,0.485,0.208l0.818,0.836
				c0.239,0.246,0.268,0.623,0.063,0.904l-0.595,0.82l-0.173,0.233l0.142,0.259c0.232,0.43,0.41,0.896,0.541,1.374l0.07,0.264
				l0.262,0.068l1.212,0.309c0.317,0.082,0.538,0.363,0.529,0.688l-0.012,1.161c-0.002,0.345-0.252,0.634-0.591,0.687l-1.159,0.183
				l-0.288,0.049l-0.087,0.273c-0.156,0.519-0.382,1.011-0.661,1.474l-0.143,0.239l0.142,0.239l0.551,0.922
				c0.168,0.284,0.119,0.641-0.11,0.863l-0.832,0.818c-0.135,0.127-0.313,0.199-0.502,0.199c-0.144-0.003-0.283-0.05-0.402-0.135
				l-0.875-0.637l-0.235-0.169l-0.256,0.131c-0.381,0.195-0.807,0.353-1.258,0.48l-0.283,0.073l-0.055,0.287l-0.225,1.24
				c-0.062,0.337-0.355,0.58-0.691,0.58h-0.006l-1.167-0.013c-0.32-0.004-0.602-0.228-0.674-0.542l-0.32-1.372l-0.059-0.26
				l-0.255-0.085c-0.397-0.124-0.789-0.285-1.148-0.482l-0.254-0.141l-0.236,0.166l-1.259,0.87
				c-0.118,0.083-0.255,0.127-0.399,0.127h-0.004c-0.19-0.003-0.364-0.08-0.5-0.212l-0.809-0.837
				c-0.228-0.229-0.271-0.585-0.094-0.859l0.854-1.375l0.144-0.228l-0.126-0.238c-0.202-0.387-0.373-0.801-0.497-1.23l-0.079-0.272
				l-0.287-0.055l-1.35-0.246c-0.338-0.059-0.58-0.352-0.577-0.695l0.013-1.17c0.004-0.321,0.227-0.6,0.544-0.677l1.419-0.325
				l0.264-0.063l0.076-0.26c0.123-0.399,0.276-0.779,0.454-1.125l0.13-0.254l-0.156-0.233l-0.881-1.261
				c-0.194-0.28-0.156-0.67,0.084-0.901l0.83-0.815c0.136-0.134,0.312-0.206,0.498-0.206h0.003c0.127,0.003,0.254,0.044,0.364,0.109
				l1.122,0.82l0.234,0.146l0.429-0.132c0.431-0.238,0.879-0.428,1.341-0.565l0.256-0.077l0.065-0.254l0.341-1.32
				C48.225,10.035,48.501,9.816,48.822,9.816"/>
		</g>
	</g>
</g>
<g id="Layer_3" style="display:none;">
	<g style="display:inline;">
		<g>
			<defs>
				<rect id="SVGID_7_" x="6.174" y="2.496" width="51.397" height="57.737"/>
			</defs>
			<clipPath id="SVGID_8_">
				<use xlink:href="#SVGID_7_"  style="overflow:visible;"/>
			</clipPath>
			<path style="clip-path:url(#SVGID_8_);fill:#D03E8C;" d="M31.873,2.497c-14.171,0-25.698,11.529-25.698,25.701
				c0,14.171,11.527,25.697,25.698,25.697c14.168,0,25.698-11.526,25.698-25.697C57.571,14.026,46.041,2.497,31.873,2.497"/>
			<path style="clip-path:url(#SVGID_8_);fill:#FFFFFF;" d="M31.873,59.281c-3.774,0-7.513-0.951-10.812-2.755l-0.496-0.27V44.576
				c0-4.022,2.099-7.654,5.614-9.716l0.528-0.309l0.5,0.352c1.38,0.969,2.994,1.479,4.667,1.479s3.286-0.511,4.665-1.479l0.5-0.351
				l0.528,0.309c3.517,2.061,5.617,5.691,5.617,9.715v11.678l-0.495,0.271C39.388,58.327,35.647,59.281,31.873,59.281"/>
			<path style="clip-path:url(#SVGID_8_);fill:#D03E8C;" d="M26.752,33.42l-1.055,0.619c-3.81,2.234-6.084,6.173-6.084,10.536
				v11.116v1.129l0.991,0.542c3.439,1.878,7.335,2.87,11.268,2.87c3.934,0,7.832-0.993,11.272-2.873l0.991-0.542v-1.129V44.576
				c0-4.365-2.276-8.303-6.088-10.536l-1.055-0.618l-1.001,0.703c-1.217,0.854-2.641,1.306-4.118,1.306
				c-1.476,0-2.901-0.452-4.12-1.307L26.752,33.42z M26.661,35.681c1.478,1.037,3.273,1.653,5.213,1.653
				c1.939,0,3.734-0.615,5.212-1.652c3.065,1.795,5.146,5.083,5.146,8.894v11.113c-3.08,1.683-6.609,2.641-10.359,2.641
				c-3.748,0-7.277-0.957-10.356-2.638V44.576C21.517,40.765,23.597,37.478,26.661,35.681"/>
			<path style="clip-path:url(#SVGID_8_);fill:#FFFFFF;" d="M19.744,27.601c0.148-2.888,1.303-5.512,3.117-7.522l-6.68-6.68
				c-3.52,3.729-5.726,8.706-5.883,14.202H19.744z"/>
			<path style="clip-path:url(#SVGID_8_);fill:#FFFFFF;" d="M23.755,19.182c2.143-1.935,4.814-2.977,7.521-3.116V6.618
				c-5.128,0.151-10.207,2.107-14.203,5.885L23.755,19.182z"/>
			<path style="clip-path:url(#SVGID_8_);fill:#FFFFFF;" d="M39.989,19.182c-2.143-1.935-4.813-2.977-7.521-3.116V6.618
				c5.128,0.151,10.208,2.107,14.204,5.885L39.989,19.182z"/>
			<path style="clip-path:url(#SVGID_8_);fill:#FFFFFF;" d="M47.563,13.396l-6.681,6.682c0.4,0.441,0.75,0.911,1.073,1.393
				l7.365-2.314c0.461-0.144,0.948-0.011,1.272,0.313c0.109,0.108,0.199,0.238,0.264,0.386c0.258,0.59,0.03,1.282-0.529,1.603
				l-6.68,3.834c0.188,0.759,0.311,1.53,0.351,2.309h9.448C53.297,22.473,51.338,17.394,47.563,13.396"/>
			<path style="clip-path:url(#SVGID_8_);fill:#FFFFFF;" d="M39.947,23.426c0.374,0.629,0.684,1.301,0.903,2.014l8.849-5.079
				L39.947,23.426z"/>
			<path style="clip-path:url(#SVGID_8_);fill:#FFFFFF;" d="M31.874,20.39c4.331,0,7.841,3.51,7.841,7.842
				c0,4.331-3.51,7.841-7.841,7.841s-7.842-3.51-7.842-7.841C24.032,23.9,27.542,20.39,31.874,20.39"/>
		</g>
	</g>
</g>
<g id="Layer_4" style="display:none;">
	<g style="display:inline;">
		<g>
			<defs>
				<rect id="SVGID_9_" x="3.319" width="57.107" height="62.729"/>
			</defs>
			<clipPath id="SVGID_10_">
				<use xlink:href="#SVGID_9_"  style="overflow:visible;"/>
			</clipPath>
			<path style="clip-path:url(#SVGID_10_);fill:#FAA41A;" d="M60.426,34.175c0-15.77-12.784-28.554-28.553-28.554
				C16.103,5.621,3.32,18.405,3.32,34.175s12.783,28.554,28.554,28.554C47.642,62.729,60.426,49.944,60.426,34.175"/>
			<path style="clip-path:url(#SVGID_10_);fill:#FFFFFF;" d="M38.381,20.277v-8.034c0-2.769-2.251-5.02-5.018-5.02h-3.149
				c-2.767,0-5.019,2.251-5.019,5.02v8.034H38.381z M32.747,40.27l-0.602-6.563l0.567-0.342c0.554-0.333,0.885-0.912,0.885-1.548
				c0-0.996-0.811-1.807-1.807-1.807c-0.997,0-1.807,0.811-1.807,1.807c0,0.636,0.331,1.215,0.884,1.548l0.568,0.342l-0.604,6.563
				H32.747z M15.047,49.217V20.277h3.984v-8.034c0-6.167,5.016-11.187,11.183-11.187h3.149c6.167,0,11.185,5.02,11.185,11.187v8.034
				h3.982v28.939H15.047z"/>
			<path style="clip-path:url(#SVGID_10_);fill:#FAA41A;" d="M31.79,32.685l-0.376-0.227c-0.112-0.067-0.372-0.266-0.372-0.643
				c0-0.413,0.336-0.749,0.749-0.749s0.749,0.336,0.749,0.749c0,0.377-0.26,0.574-0.372,0.643L31.79,32.685z M26.253,19.22v-6.977
				c0-2.185,1.777-3.961,3.961-3.961h3.149c2.184,0,3.96,1.776,3.96,3.961v6.977H26.253z M33.364,0h-3.149
				c-6.749,0-12.241,5.492-12.241,12.243v6.977h-1.867H13.99v2.115V48.16v2.114h2.116h31.367h2.115V48.16V21.335V19.22h-2.115
				h-1.867v-6.977C45.606,5.492,40.114,0,33.364,0 M29.673,41.328h2.117h2.115l-0.647-7.059c0.835-0.503,1.396-1.406,1.396-2.454
				c0-1.583-1.283-2.863-2.864-2.863s-2.864,1.28-2.864,2.863c0,1.048,0.562,1.951,1.396,2.454L29.673,41.328z M47.473,48.16H16.106
				V21.335h31.367V48.16z M33.364,2.115c5.583,0,10.127,4.545,10.127,10.128v7.96h-4.052v-7.96c0-3.354-2.727-6.076-6.075-6.076
				h-3.149c-3.349,0-6.076,2.723-6.076,6.076v7.96h-4.05v-7.96c0-5.583,4.544-10.128,10.126-10.128H33.364z"/>
		</g>
	</g>
</g>
<g id="Layer_5" style="display:none;">
	<g style="display:inline;">
		<g>
			<defs>
				<rect id="SVGID_11_" y="2.811" width="63.745" height="57.107"/>
			</defs>
			<clipPath id="SVGID_12_">
				<use xlink:href="#SVGID_11_"  style="overflow:visible;"/>
			</clipPath>
			<path style="clip-path:url(#SVGID_12_);fill:#887677;" d="M57.107,31.364c0-15.769-12.784-28.554-28.554-28.554
				C12.784,2.811,0,15.596,0,31.364s12.784,28.554,28.553,28.554C44.323,59.918,57.107,47.133,57.107,31.364"/>
			<path style="clip-path:url(#SVGID_12_);fill:#FFFFFF;" d="M59.698,47.791c-0.589,0-1.152-0.186-1.628-0.538L33.849,29.164
				l-4.482,6.01c-0.513,0.688-1.333,1.098-2.194,1.098c-0.592,0-1.156-0.188-1.63-0.54l-6.686-4.988
				c-0.583-0.433-0.964-1.072-1.069-1.797c-0.105-0.723,0.077-1.443,0.511-2.026l12.596-16.885c0.511-0.686,1.331-1.096,2.193-1.096
				c0.596,0,1.16,0.185,1.631,0.538l6.686,4.988c1.207,0.9,1.457,2.614,0.557,3.822l-4.589,6.152l24.218,18.088
				c1.206,0.901,1.456,2.616,0.555,3.823l-0.253,0.342C61.38,47.383,60.56,47.791,59.698,47.791"/>
			<path style="clip-path:url(#SVGID_12_);fill:#887677;" d="M33.088,7.882c-1.195,0-2.332,0.569-3.042,1.523L17.452,26.286
				c-0.604,0.812-0.856,1.811-0.71,2.813c0.146,1.005,0.673,1.891,1.485,2.494l6.683,4.985c0.66,0.491,1.442,0.75,2.263,0.75
				c1.193,0,2.33-0.568,3.041-1.521l3.85-5.162l23.369,17.453c0.667,0.494,1.448,0.751,2.265,0.751c1.194,0,2.331-0.568,3.041-1.521
				l0.259-0.35c1.245-1.668,0.899-4.047-0.775-5.297L38.852,24.226l3.958-5.304c1.249-1.677,0.902-4.056-0.774-5.305l-6.685-4.988
				C34.698,8.141,33.914,7.882,33.088,7.882 M33.088,9.996c0.348,0,0.7,0.104,0.998,0.327l6.686,4.99
				c0.739,0.55,0.892,1.606,0.343,2.343l-5.222,6.999l25.065,18.721c0.738,0.551,0.892,1.604,0.341,2.343l-0.256,0.345
				c-0.328,0.44-0.833,0.67-1.345,0.67c-0.348,0-0.7-0.108-0.999-0.33l-25.065-18.72l-5.115,6.857
				c-0.328,0.439-0.835,0.673-1.346,0.673c-0.349,0-0.699-0.108-0.998-0.331l-6.686-4.987c-0.739-0.549-0.892-1.605-0.342-2.344
				l12.596-16.884C32.07,10.228,32.576,9.996,33.088,9.996"/>
			<path style="clip-path:url(#SVGID_12_);fill:#FFFFFF;" d="M37.897,40.934c0.545,0,0.988,0.441,0.988,0.987v0.89h1.761
				c0.545,0,0.988,0.438,0.988,0.985v3.124H12.304v-3.124c0-0.547,0.442-0.985,0.988-0.985h1.761v-0.89
				c0-0.546,0.441-0.987,0.987-0.987H37.897z"/>
		</g>
	</g>
</g>
<g id="Layer_6" style="display:none;">
	<g style="display:inline;">
		<g>
			<defs>
				<rect id="SVGID_13_" x="3.042" y="2.534" width="57.661" height="57.661"/>
			</defs>
			<clipPath id="SVGID_14_">
				<use xlink:href="#SVGID_13_"  style="overflow:visible;"/>
			</clipPath>
			<path style="clip-path:url(#SVGID_14_);fill:#829D50;" d="M60.704,31.365c0,15.921-12.909,28.829-28.83,28.829
				c-15.925,0-28.831-12.908-28.831-28.829c0-15.924,12.906-28.83,28.831-28.83C47.794,2.535,60.704,15.441,60.704,31.365"/>
			<path style="clip-path:url(#SVGID_14_);fill:#FFFFFF;" d="M45.347,37.907c-1.563-2.415-3.984-4.224-6.839-4.979
				c-1.799,1.677-4.205,2.715-6.855,2.715c-2.647,0-5.054-1.038-6.854-2.715c-2.599,0.687-4.841,2.25-6.404,4.347
				c2.063,1.093,7.004,3.256,13.813,3.256C36.566,40.531,40.974,39.649,45.347,37.907"/>
			<path style="clip-path:url(#SVGID_14_);fill:#FFFFFF;" d="M47.222,45.862v-1.639c0-0.347-0.016-0.692-0.043-1.031l-0.384-1.899
				c-4.905,1.98-9.835,2.981-14.701,2.981c-7.476,0-12.945-2.396-15.411-3.729c-0.386,1.158-0.601,2.392-0.601,3.678v0.778
				c2.699,1.155,8.499,3.152,16.388,3.152C37.37,48.154,42.313,47.385,47.222,45.862"/>
			<path style="clip-path:url(#SVGID_14_);fill:#FFFFFF;" d="M31.653,33.917c5.075,0,9.186-4.744,9.186-10.596
				c0-0.941-0.105-1.854-0.308-2.726l-1.688,2.724c-0.406,1.366-1.894,2.355-3.722,2.355c-1.16,0-2.178-0.399-2.878-1.039h-1.186
				c-0.697,0.64-1.719,1.039-2.876,1.039c-1.817,0-3.299-0.977-3.718-2.329l-1.691-2.736c-0.2,0.867-0.307,1.776-0.307,2.712
				C22.466,29.173,26.58,33.917,31.653,33.917"/>
			<path style="clip-path:url(#SVGID_14_);fill:#FFFFFF;" d="M39.02,17.001c-1.672-2.593-4.348-4.275-7.368-4.275
				c-3.698,0-6.884,2.524-8.34,6.155l2.351,1.311l-0.002,0.011c0.669-0.468,1.546-0.751,2.521-0.751
				c1.091,0,2.062,0.353,2.751,0.926h1.438c0.691-0.573,1.663-0.926,2.752-0.926c0.97,0,1.842,0.278,2.511,0.743l-0.002-0.003
				l2.243-1.249c0.134-0.028,0.104-0.103,0.255-0.132"/>
			<path style="clip-path:url(#SVGID_14_);fill:#FFFFFF;" d="M29.809,22.534c0,0.717-0.79,1.298-1.763,1.298
				c-0.975,0-1.764-0.581-1.764-1.298s0.789-1.298,1.764-1.298C29.019,21.236,29.809,21.817,29.809,22.534"/>
			<path style="clip-path:url(#SVGID_14_);fill:#FFFFFF;" d="M36.828,22.534c0,0.717-0.79,1.298-1.763,1.298
				c-0.974,0-1.764-0.581-1.764-1.298s0.79-1.298,1.764-1.298C36.038,21.236,36.828,21.817,36.828,22.534"/>
		</g>
	</g>
</g>
</svg>
