<?xml version="1.0" encoding="utf-8"?>
<!-- Generator: Adobe Illustrator 14.0.0, SVG Export Plug-In . SVG Version: 6.00 Build 43363)  -->
<!DOCTYPE svg PUBLIC "-//W3C//DTD SVG 1.1//EN" "http://www.w3.org/Graphics/SVG/1.1/DTD/svg11.dtd">
<svg version="1.1" xmlns="http://www.w3.org/2000/svg" xmlns:xlink="http://www.w3.org/1999/xlink" x="0px" y="0px"
	 width="166.422px" height="166.089px" viewBox="0 0 166.422 166.089" enable-background="new 0 0 166.422 166.089"
	 xml:space="preserve">
<g id="Layer_1">
	<g>
		<path fill="#F2EEEC" d="M161.207,83.253c0,43.077-34.918,77.997-77.995,77.997c-43.076,0-77.996-34.92-77.996-77.997
			c0-43.076,34.92-77.996,77.996-77.996C126.288,5.257,161.207,40.177,161.207,83.253"/>
		<circle fill="none" stroke="#288DC1" stroke-width="6" stroke-miterlimit="10" cx="83.211" cy="83.253" r="77.995"/>
		<polygon fill="#B5D0E6" points="76.554,133.537 67.489,117.835 51.787,126.9 61.326,91.298 86.095,97.934 		"/>
		<polygon fill="none" stroke="#288DC1" stroke-width="3.205" stroke-linejoin="round" stroke-miterlimit="10" points="
			76.554,133.537 67.489,117.835 51.787,126.9 61.326,91.298 86.095,97.934 		"/>
		<polygon fill="#B5D0E6" points="116.542,126.9 100.839,117.835 91.774,133.537 82.235,97.933 107.001,91.297 		"/>
		<polygon fill="none" stroke="#288DC1" stroke-width="3.205" stroke-linejoin="round" stroke-miterlimit="10" points="
			116.542,126.9 100.839,117.835 91.774,133.537 82.235,97.933 107.001,91.297 		"/>
		<path fill="#FFFFFF" d="M86.235,38.089L86.235,38.089c1.068,1.918,3.629,2.369,5.289,0.933c2.051-1.775,5.254-0.61,5.684,2.068
			c0.347,2.167,2.6,3.468,4.65,2.685c2.533-0.966,5.145,1.224,4.633,3.887c-0.414,2.156,1.257,4.148,3.453,4.115
			c2.711-0.042,4.414,2.909,3.022,5.236c-1.127,1.884-0.237,4.327,1.837,5.046c2.563,0.889,3.154,4.245,1.051,5.956
			c-1.703,1.385-1.703,3.985,0,5.37c2.104,1.712,1.512,5.068-1.051,5.956c-2.074,0.719-2.964,3.163-1.837,5.047
			c1.392,2.327-0.312,5.279-3.022,5.237c-2.196-0.034-3.867,1.958-3.453,4.114c0.512,2.663-2.1,4.854-4.633,3.887
			c-2.051-0.782-4.304,0.519-4.65,2.687c-0.43,2.677-3.633,3.843-5.684,2.067c-1.66-1.437-4.221-0.985-5.289,0.933
			c-1.319,2.369-4.728,2.369-6.046,0c-1.069-1.918-3.63-2.369-5.289-0.933c-2.051,1.775-5.253,0.609-5.683-2.067
			c-0.348-2.168-2.6-3.469-4.651-2.687c-2.534,0.967-5.144-1.224-4.633-3.887c0.414-2.156-1.257-4.148-3.452-4.114
			c-2.712,0.042-4.415-2.91-3.024-5.237c1.127-1.884,0.237-4.328-1.837-5.047c-2.562-0.888-3.154-4.244-1.05-5.956
			c1.704-1.385,1.704-3.985,0-5.37c-2.104-1.711-1.512-5.066,1.05-5.956c2.074-0.719,2.964-3.162,1.837-5.046
			c-1.391-2.328,0.312-5.278,3.024-5.236c2.195,0.033,3.866-1.959,3.452-4.115c-0.511-2.663,2.099-4.853,4.633-3.887
			c2.051,0.783,4.303-0.518,4.651-2.685c0.43-2.678,3.632-3.843,5.683-2.068c1.659,1.436,4.22,0.985,5.289-0.933
			C81.508,35.72,84.916,35.72,86.235,38.089"/>
		<path fill="none" stroke="#2A5283" stroke-width="3.205" stroke-linejoin="round" stroke-miterlimit="10" d="M86.235,38.089
			L86.235,38.089c1.068,1.918,3.629,2.369,5.289,0.933c2.051-1.775,5.254-0.61,5.684,2.068c0.347,2.167,2.6,3.468,4.65,2.685
			c2.533-0.966,5.145,1.224,4.633,3.887c-0.414,2.156,1.257,4.148,3.453,4.115c2.711-0.042,4.414,2.909,3.022,5.236
			c-1.127,1.884-0.237,4.327,1.837,5.046c2.563,0.889,3.154,4.245,1.051,5.956c-1.703,1.385-1.703,3.985,0,5.37
			c2.104,1.712,1.512,5.068-1.051,5.956c-2.074,0.719-2.964,3.163-1.837,5.047c1.392,2.327-0.312,5.279-3.022,5.237
			c-2.196-0.034-3.867,1.958-3.453,4.114c0.512,2.663-2.1,4.854-4.633,3.887c-2.051-0.782-4.304,0.519-4.65,2.687
			c-0.43,2.677-3.633,3.843-5.684,2.067c-1.66-1.437-4.221-0.985-5.289,0.933c-1.319,2.369-4.728,2.369-6.046,0
			c-1.069-1.918-3.63-2.369-5.289-0.933c-2.051,1.775-5.253,0.609-5.683-2.067c-0.348-2.168-2.6-3.469-4.651-2.687
			c-2.534,0.967-5.144-1.224-4.633-3.887c0.414-2.156-1.257-4.148-3.452-4.114c-2.712,0.042-4.415-2.91-3.024-5.237
			c1.127-1.884,0.237-4.328-1.837-5.047c-2.562-0.888-3.154-4.244-1.05-5.956c1.704-1.385,1.704-3.985,0-5.37
			c-2.104-1.711-1.512-5.066,1.05-5.956c2.074-0.719,2.964-3.162,1.837-5.046c-1.391-2.328,0.312-5.278,3.024-5.236
			c2.195,0.033,3.866-1.959,3.452-4.115c-0.511-2.663,2.099-4.853,4.633-3.887c2.051,0.783,4.303-0.518,4.651-2.685
			c0.43-2.678,3.632-3.843,5.683-2.068c1.659,1.436,4.22,0.985,5.289-0.933C81.508,35.72,84.916,35.72,86.235,38.089z"/>
		<path fill="none" stroke="#BCBFC3" stroke-width="3.205" stroke-miterlimit="10" d="M99.39,52.406
			c1.182,1.057,2.256,2.229,3.209,3.498"/>
		<path fill="none" stroke="#BCBFC3" stroke-width="3.205" stroke-miterlimit="10" d="M64.131,55.899
			c4.385-5.838,11.368-9.615,19.232-9.615c4.712,0,9.108,1.356,12.817,3.699"/>
		<path fill="none" stroke="#BCBFC3" stroke-width="3.205" stroke-miterlimit="10" d="M67.333,88.235
			c-1.661-1.487-3.113-3.201-4.309-5.094"/>
		<path fill="none" stroke="#BCBFC3" stroke-width="3.205" stroke-miterlimit="10" d="M103.7,83.143
			C99.442,89.884,91.925,94.36,83.363,94.36c-4.712,0-9.108-1.356-12.818-3.699"/>
		<path fill="#B5D0E6" d="M97.635,69.95c0,7.965-6.458,14.423-14.423,14.423c-7.965,0-14.423-6.458-14.423-14.423
			s6.458-14.423,14.423-14.423C91.177,55.527,97.635,61.985,97.635,69.95"/>
		
			<circle fill="none" stroke="#288DC1" stroke-width="3.205" stroke-linejoin="round" stroke-miterlimit="10" cx="83.212" cy="69.95" r="14.423"/>
	</g>
</g>
<g id="Layer_3" display="none">
	<g display="inline">
		<path fill="#F2EEEC" d="M161.207,83.253c0,43.077-34.919,77.997-77.995,77.997c-43.076,0-77.996-34.92-77.996-77.997
			c0-43.076,34.92-77.996,77.996-77.996C126.287,5.257,161.207,40.177,161.207,83.253"/>
		<circle fill="none" stroke="#288DC1" stroke-width="6" stroke-miterlimit="10" cx="83.211" cy="83.253" r="77.996"/>
		<polygon fill="#B5D0E6" points="89.07,40.411 99.133,50.486 75.067,74.559 84.501,83.997 93.937,74.563 105.525,86.152 
			120.158,71.519 130.223,81.583 130.223,40.411 		"/>
		<polygon fill="none" stroke="#288DC1" stroke-width="3.205" stroke-linejoin="round" stroke-miterlimit="10" points="
			89.07,40.411 99.133,50.486 75.067,74.559 84.501,83.997 93.937,74.563 105.525,86.152 120.158,71.519 130.223,81.583 
			130.223,40.411 		"/>
		
			<rect x="87.627" y="88.476" transform="matrix(-0.7072 0.7071 -0.7071 -0.7072 223.1811 93.6561)" fill="none" stroke="#2A5283" stroke-width="3.572" stroke-miterlimit="10" width="9.138" height="9.139"/>
		
			<rect x="64.36" y="82.942" transform="matrix(-0.7071 0.7071 -0.7071 -0.7071 179.3469 100.5676)" fill="none" stroke="#2A5283" stroke-width="3.572" stroke-miterlimit="10" width="8.971" height="8.972"/>
		
			<rect x="75.55" y="100.905" transform="matrix(-0.7071 0.7071 -0.7071 -0.7071 211.1523 123.3139)" fill="none" stroke="#2A5283" stroke-width="3.572" stroke-miterlimit="10" width="8.972" height="8.971"/>
		
			<rect x="60.388" y="117.531" transform="matrix(-0.707 0.7072 -0.7072 -0.707 197.0327 162.4018)" fill="none" stroke="#2A5283" stroke-width="3.572" stroke-miterlimit="10" width="8.973" height="8.971"/>
		
			<rect x="54.622" y="99.879" transform="matrix(-0.7071 0.7071 -0.7071 -0.7071 174.589 136.326)" fill="none" stroke="#2A5283" stroke-width="3.572" stroke-miterlimit="10" width="8.88" height="8.88"/>
		
			<rect x="38.039" y="109.289" transform="matrix(-0.7071 0.7071 -0.7071 -0.7071 152.9328 164.1147)" fill="none" stroke="#2A5283" stroke-width="3.572" stroke-miterlimit="10" width="8.879" height="8.88"/>
		
			<line fill="none" stroke="#BCBFC3" stroke-width="3.572" stroke-miterlimit="10" x1="112.611" y1="97.832" x2="95.712" y2="114.73"/>
		
			<line fill="none" stroke="#BCBFC3" stroke-width="3.572" stroke-miterlimit="10" x1="91.464" y1="118.979" x2="89.075" y2="121.369"/>
		
			<line fill="none" stroke="#BCBFC3" stroke-width="3.572" stroke-miterlimit="10" x1="86.395" y1="124.049" x2="84.005" y2="126.439"/>
		
			<line fill="none" stroke="#BCBFC3" stroke-width="3.572" stroke-miterlimit="10" x1="81.326" y1="129.119" x2="78.935" y2="131.51"/>
		
			<line fill="none" stroke="#BCBFC3" stroke-width="3.572" stroke-miterlimit="10" x1="69.621" y1="59.963" x2="52.722" y2="76.863"/>
	</g>
</g>
<g id="Layer_2" display="none">
	<g display="inline">
		<path fill="#F2EEEC" d="M161.207,83.253c0,43.077-34.919,77.997-77.995,77.997c-43.076,0-77.996-34.92-77.996-77.997
			c0-43.076,34.92-77.996,77.996-77.996C126.287,5.257,161.207,40.177,161.207,83.253"/>
		<circle fill="none" stroke="#288DC1" stroke-width="6" stroke-miterlimit="10" cx="83.211" cy="83.253" r="77.996"/>
		
			<line fill="none" stroke="#BDC0C4" stroke-width="3.473" stroke-miterlimit="10" x1="118.869" y1="43.279" x2="118.869" y2="53.699"/>
		
			<line fill="none" stroke="#BDC0C4" stroke-width="3.473" stroke-miterlimit="10" x1="124.08" y1="48.489" x2="113.66" y2="48.489"/>
		
			<line fill="none" stroke="#BDC0C4" stroke-width="3.473" stroke-miterlimit="10" x1="28.566" y1="86.694" x2="28.566" y2="97.114"/>
		
			<line fill="none" stroke="#BDC0C4" stroke-width="3.473" stroke-miterlimit="10" x1="33.776" y1="91.904" x2="23.356" y2="91.904"/>
		<rect x="45.932" y="65.855" fill="#FFFFFF" width="81.621" height="45.153"/>
		
			<rect x="45.932" y="65.855" fill="none" stroke="#2B5183" stroke-width="3.473" stroke-miterlimit="10" width="81.621" height="45.153"/>
		<path fill="#B5D0E6" d="M113.66,74.538H59.825c0,2.877-1.736,5.21-5.21,5.21v17.366c3.474,0,5.21,2.332,5.21,5.21h53.835
			c0-2.878,2.332-5.21,5.209-5.21V79.749C115.992,79.749,113.66,77.416,113.66,74.538"/>
		<path fill="none" stroke="#288DC1" stroke-width="3.205" stroke-linejoin="round" stroke-miterlimit="10" d="M113.66,74.538
			H59.825c0,2.877-1.736,5.21-5.21,5.21v17.366c3.474,0,5.21,2.332,5.21,5.21h53.835c0-2.878,2.332-5.21,5.209-5.21V79.749
			C115.992,79.749,113.66,77.416,113.66,74.538z"/>
		
			<line fill="none" stroke="#2B5183" stroke-width="3.473" stroke-miterlimit="10" x1="66.771" y1="88.431" x2="70.245" y2="88.431"/>
		
			<line fill="none" stroke="#2B5183" stroke-width="3.473" stroke-miterlimit="10" x1="103.24" y1="88.431" x2="106.713" y2="88.431"/>
		<path fill="#FFFFFF" d="M78.927,88.423c0.003-4.795,3.505-8.681,7.821-8.679c4.317,0.003,7.815,3.891,7.813,8.687
			c-0.003,4.795-3.505,8.681-7.822,8.678C82.422,97.107,78.924,93.218,78.927,88.423"/>
		
			<ellipse fill="none" stroke="#2B5183" stroke-width="3.473" stroke-miterlimit="10" cx="86.744" cy="88.427" rx="7.817" ry="8.683"/>
		
			<line fill="none" stroke="#BDC0C4" stroke-width="3.473" stroke-miterlimit="10" x1="71.981" y1="43.279" x2="87.611" y2="43.279"/>
		
			<line fill="none" stroke="#BDC0C4" stroke-width="3.473" stroke-miterlimit="10" x1="82.401" y1="53.699" x2="42.458" y2="53.699"/>
		
			<line fill="none" stroke="#BDC0C4" stroke-width="3.473" stroke-miterlimit="10" x1="38.985" y1="53.699" x2="35.512" y2="53.699"/>
		
			<line fill="none" stroke="#BDC0C4" stroke-width="3.473" stroke-miterlimit="10" x1="129.066" y1="124.699" x2="89.125" y2="124.699"/>
	</g>
</g>
</svg>
