<?xml version="1.0" encoding="iso-8859-1"?>
<!-- Generator: Adobe Illustrator 14.0.0, SVG Export Plug-In . SVG Version: 6.00 Build 43363)  -->
<!DOCTYPE svg PUBLIC "-//W3C//DTD SVG 1.1//EN" "http://www.w3.org/Graphics/SVG/1.1/DTD/svg11.dtd">
<svg version="1.1" id="Layer_1" xmlns="http://www.w3.org/2000/svg" xmlns:xlink="http://www.w3.org/1999/xlink" x="0px" y="0px"
	 width="43.564px" height="43.565px" viewBox="0 0 43.564 43.565" style="enable-background:new 0 0 43.564 43.565;"
	 xml:space="preserve">
<g>
	<defs>
		<rect id="SVGID_1_" width="43.564" height="43.565"/>
	</defs>
	<clipPath id="SVGID_2_">
		<use xlink:href="#SVGID_1_"  style="overflow:visible;"/>
	</clipPath>
	<path style="clip-path:url(#SVGID_2_);fill:#FFFFFF;" d="M30.997,30.504c-0.661-9.059-7.914-16.311-16.972-16.973v-2.403
		C24.406,11.798,32.73,20.124,33.4,30.504H30.997z M24.082,30.504c-0.618-5.26-4.798-9.438-10.057-10.058v-2.415
		c6.583,0.637,11.835,5.89,12.471,12.473H24.082z M16.241,31.04c-1.486,0-2.695-1.206-2.695-2.694c0-1.487,1.209-2.705,2.695-2.705
		c1.495,0,2.702,1.218,2.702,2.705C18.943,29.836,17.736,31.04,16.241,31.04 M21.782,0C9.752,0,0,9.752,0,21.782
		c0,12.029,9.752,21.783,21.782,21.783c12.027,0,21.782-9.754,21.782-21.783C43.564,9.752,33.81,0,21.782,0"/>
</g>
</svg>
