<?xml version="1.0" encoding="iso-8859-1"?>
<!-- Generator: Adobe Illustrator 14.0.0, SVG Export Plug-In . SVG Version: 6.00 Build 43363)  -->
<!DOCTYPE svg PUBLIC "-//W3C//DTD SVG 1.1//EN" "http://www.w3.org/Graphics/SVG/1.1/DTD/svg11.dtd">
<svg version="1.1" id="Layer_1" xmlns="http://www.w3.org/2000/svg" xmlns:xlink="http://www.w3.org/1999/xlink" x="0px" y="0px"
	 width="488.531px" height="185.289px" viewBox="0 0 488.531 185.289" style="enable-background:new 0 0 488.531 185.289;"
	 xml:space="preserve">
<g>
	<defs>
		<rect id="SVGID_1_" width="488.531" height="185.289"/>
	</defs>
	<clipPath id="SVGID_2_">
		<use xlink:href="#SVGID_1_"  style="overflow:visible;"/>
	</clipPath>
	<polyline style="clip-path:url(#SVGID_2_);fill:none;stroke:#EA9623;stroke-width:2.242;" points="479.192,52.785 383.968,22.634 
		287.855,42.813 191.744,32.72 96.038,42.813 0.326,37.432 	"/>
	<polyline style="clip-path:url(#SVGID_2_);fill:none;stroke:#3892C0;stroke-width:2.242;" points="479.192,24.639 383.968,4.459 
		287.855,58.06 191.744,47.746 96.038,24.639 0.326,47.746 	"/>
	<polyline style="clip-path:url(#SVGID_2_);fill:none;stroke:#D03E8C;stroke-width:2.242;" points="479.192,42.251 383.968,45.13 
		287.855,19.282 191.744,62.862 96.038,33.844 0.326,62.862 	"/>
	<path style="clip-path:url(#SVGID_2_);fill:#FFFFFF;" d="M384.531,18.61c-2.164,0-3.918,1.754-3.918,3.918
		c0,2.163,1.754,3.917,3.918,3.917s3.918-1.754,3.918-3.917C388.449,20.364,386.695,18.61,384.531,18.61"/>
	<circle style="clip-path:url(#SVGID_2_);fill:none;stroke:#EA9623;stroke-width:2.242;" cx="384.531" cy="22.527" r="3.917"/>
	<path style="clip-path:url(#SVGID_2_);fill:#FFFFFF;" d="M384.531,41.032c-2.164,0-3.918,1.754-3.918,3.918
		c0,2.163,1.754,3.917,3.918,3.917s3.918-1.754,3.918-3.917C388.449,42.786,386.695,41.032,384.531,41.032"/>
	<circle style="clip-path:url(#SVGID_2_);fill:none;stroke:#D03E8C;stroke-width:2.242;" cx="384.531" cy="44.949" r="3.917"/>
	<path style="clip-path:url(#SVGID_2_);fill:#FFFFFF;" d="M384.531,1.121c-2.164,0-3.918,1.754-3.918,3.918
		c0,2.163,1.754,3.917,3.918,3.917s3.918-1.754,3.918-3.917C388.449,2.875,386.695,1.121,384.531,1.121"/>
	<circle style="clip-path:url(#SVGID_2_);fill:none;stroke:#3892C0;stroke-width:2.242;" cx="384.531" cy="5.038" r="3.917"/>
	<path style="clip-path:url(#SVGID_2_);fill:#FFFFFF;" d="M288.117,38.79c-2.164,0-3.918,1.754-3.918,3.918
		c0,2.163,1.754,3.917,3.918,3.917s3.918-1.754,3.918-3.917C292.035,40.543,290.281,38.79,288.117,38.79"/>
	<circle style="clip-path:url(#SVGID_2_);fill:none;stroke:#EA9623;stroke-width:2.242;" cx="288.117" cy="42.707" r="3.917"/>
	<path style="clip-path:url(#SVGID_2_);fill:#FFFFFF;" d="M288.117,15.022c-2.164,0-3.918,1.754-3.918,3.918
		c0,2.163,1.754,3.917,3.918,3.917s3.918-1.754,3.918-3.917C292.035,16.776,290.281,15.022,288.117,15.022"/>
	<circle style="clip-path:url(#SVGID_2_);fill:none;stroke:#D03E8C;stroke-width:2.242;" cx="288.117" cy="18.94" r="3.917"/>
	<path style="clip-path:url(#SVGID_2_);fill:#FFFFFF;" d="M288.117,53.906c-2.164,0-3.918,1.754-3.918,3.918
		c0,2.163,1.754,3.917,3.918,3.917s3.918-1.754,3.918-3.917C292.035,55.66,290.281,53.906,288.117,53.906"/>
	<circle style="clip-path:url(#SVGID_2_);fill:none;stroke:#3892C0;stroke-width:2.242;" cx="288.117" cy="57.823" r="3.918"/>
	<path style="clip-path:url(#SVGID_2_);fill:#FFFFFF;" d="M191.018,28.712c-2.164,0-3.918,1.754-3.918,3.918
		c0,2.163,1.754,3.917,3.918,3.917c2.164,0,3.918-1.754,3.918-3.917C194.936,30.466,193.182,28.712,191.018,28.712"/>
	<circle style="clip-path:url(#SVGID_2_);fill:none;stroke:#EA9623;stroke-width:2.242;" cx="191.018" cy="32.629" r="3.917"/>
	<path style="clip-path:url(#SVGID_2_);fill:#FFFFFF;" d="M191.018,58.945c-2.164,0-3.918,1.754-3.918,3.918
		c0,2.163,1.754,3.917,3.918,3.917c2.164,0,3.918-1.754,3.918-3.917C194.936,60.699,193.182,58.945,191.018,58.945"/>
	<circle style="clip-path:url(#SVGID_2_);fill:none;stroke:#D03E8C;stroke-width:2.242;" cx="191.018" cy="62.862" r="3.917"/>
	<path style="clip-path:url(#SVGID_2_);fill:#FFFFFF;" d="M191.018,43.828c-2.164,0-3.918,1.754-3.918,3.918
		c0,2.163,1.754,3.917,3.918,3.917c2.164,0,3.918-1.754,3.918-3.917C194.936,45.583,193.182,43.828,191.018,43.828"/>
	<circle style="clip-path:url(#SVGID_2_);fill:none;stroke:#3892C0;stroke-width:2.242;" cx="191.018" cy="47.746" r="3.918"/>
	<path style="clip-path:url(#SVGID_2_);fill:#FFFFFF;" d="M94.84,38.79c-2.164,0-3.918,1.754-3.918,3.918
		c0,2.163,1.754,3.917,3.918,3.917s3.918-1.754,3.918-3.917C98.758,40.543,97.004,38.79,94.84,38.79"/>
	<circle style="clip-path:url(#SVGID_2_);fill:none;stroke:#EA9623;stroke-width:2.242;" cx="94.84" cy="42.707" r="3.917"/>
	<path style="clip-path:url(#SVGID_2_);fill:#FFFFFF;" d="M94.84,29.927c-2.164,0-3.918,1.754-3.918,3.918
		c0,2.163,1.754,3.917,3.918,3.917s3.918-1.754,3.918-3.917C98.758,31.681,97.004,29.927,94.84,29.927"/>
	<circle style="clip-path:url(#SVGID_2_);fill:none;stroke:#D03E8C;stroke-width:2.242;" cx="94.84" cy="33.844" r="3.917"/>
	<path style="clip-path:url(#SVGID_2_);fill:#FFFFFF;" d="M94.84,20.403c-2.164,0-3.918,1.754-3.918,3.918
		c0,2.163,1.754,3.917,3.918,3.917s3.918-1.754,3.918-3.917C98.758,22.158,97.004,20.403,94.84,20.403"/>
	<circle style="clip-path:url(#SVGID_2_);fill:none;stroke:#3892C0;stroke-width:2.242;" cx="94.84" cy="24.321" r="3.918"/>
</g>
<g>
	<path style="fill:#6D6E70;" d="M63.75,169.474V158.95h5.175c1.94,0,2.998,1.199,2.998,2.682c0,1.31-0.852,2.209-1.83,2.414
		c1.136,0.174,2.035,1.294,2.035,2.572c0,1.641-1.073,2.855-3.061,2.855H63.75z M70.029,161.932c0-0.772-0.537-1.356-1.468-1.356
		h-2.966v2.714h2.966C69.493,163.289,70.029,162.736,70.029,161.932z M70.234,166.381c0-0.788-0.552-1.467-1.594-1.467h-3.045v2.935
		h3.045C69.635,167.849,70.234,167.296,70.234,166.381z"/>
	<path style="fill:#6D6E70;" d="M73.795,169.474v-7.62h1.657v1.104c0.584-0.726,1.499-1.293,2.477-1.293v1.641
		c-0.142-0.031-0.3-0.048-0.505-0.048c-0.71,0-1.641,0.474-1.972,1.026v5.19H73.795z"/>
	<path style="fill:#6D6E70;" d="M78.668,165.655c0-2.209,1.609-3.991,3.866-3.991c2.288,0,3.739,1.735,3.739,4.134v0.41h-5.869
		c0.126,1.136,0.978,2.098,2.414,2.098c0.757,0,1.625-0.3,2.178-0.852l0.757,1.089c-0.773,0.726-1.893,1.12-3.092,1.12
		C80.356,169.663,78.668,168.069,78.668,165.655z M82.518,163.021c-1.404,0-2.066,1.089-2.13,2.004h4.292
		C84.632,164.125,84.017,163.021,82.518,163.021z"/>
	<path style="fill:#6D6E70;" d="M92.438,169.474v-0.836c-0.568,0.662-1.467,1.025-2.477,1.025c-1.231,0-2.635-0.853-2.635-2.524
		c0-1.768,1.388-2.493,2.635-2.493c1.041,0,1.909,0.331,2.477,0.979v-1.136c0-0.884-0.742-1.42-1.783-1.42
		c-0.852,0-1.609,0.315-2.256,0.978l-0.694-1.151c0.883-0.853,1.988-1.23,3.203-1.23c1.704,0,3.188,0.71,3.188,2.745v5.064H92.438z
		 M92.438,167.738v-1.168c-0.395-0.521-1.104-0.789-1.814-0.789c-0.931,0-1.641,0.553-1.641,1.373c0,0.836,0.71,1.373,1.641,1.373
		C91.333,168.527,92.043,168.259,92.438,167.738z"/>
	<path style="fill:#6D6E70;" d="M101.143,169.474l-2.319-3.155l-1.073,1.104v2.051h-1.657V158.95h1.657v6.579l3.361-3.676h2.051
		l-3.155,3.455l3.218,4.165H101.143z"/>
	<path style="fill:#6D6E70;" d="M104.674,169.474v-6.185h-1.262v-1.436h1.262v-0.427c0-1.656,0.962-2.635,2.398-2.635
		c0.694,0,1.373,0.174,1.83,0.663l-0.647,1.025c-0.221-0.205-0.505-0.331-0.868-0.331c-0.663,0-1.057,0.426-1.057,1.277v0.427h1.546
		v1.436h-1.546v6.185H104.674z"/>
	<path style="fill:#6D6E70;" d="M113.665,169.474v-0.836c-0.568,0.662-1.467,1.025-2.477,1.025c-1.231,0-2.635-0.853-2.635-2.524
		c0-1.768,1.389-2.493,2.635-2.493c1.041,0,1.909,0.331,2.477,0.979v-1.136c0-0.884-0.742-1.42-1.783-1.42
		c-0.852,0-1.609,0.315-2.256,0.978l-0.694-1.151c0.884-0.853,1.988-1.23,3.203-1.23c1.704,0,3.188,0.71,3.188,2.745v5.064H113.665z
		 M113.665,167.738v-1.168c-0.395-0.521-1.104-0.789-1.814-0.789c-0.931,0-1.641,0.553-1.641,1.373c0,0.836,0.71,1.373,1.641,1.373
		C112.561,168.527,113.271,168.259,113.665,167.738z"/>
	<path style="fill:#6D6E70;" d="M116.674,168.464l0.757-1.184c0.537,0.553,1.594,1.058,2.572,1.058c0.994,0,1.515-0.41,1.515-1.01
		c0-1.499-4.607-0.426-4.607-3.361c0-1.246,1.073-2.303,2.998-2.303c1.293,0,2.271,0.457,2.95,1.057l-0.694,1.168
		c-0.458-0.505-1.293-0.915-2.256-0.915c-0.868,0-1.404,0.41-1.404,0.946c0,1.341,4.607,0.331,4.607,3.36
		c0,1.357-1.12,2.383-3.171,2.383C118.631,169.663,117.463,169.237,116.674,168.464z"/>
	<path style="fill:#6D6E70;" d="M124.97,167.69v-4.401h-1.262v-1.436h1.262v-2.083h1.657v2.083h1.546v1.436h-1.546v3.991
		c0,0.521,0.252,0.915,0.726,0.915c0.316,0,0.6-0.142,0.726-0.283l0.394,1.262c-0.299,0.269-0.789,0.489-1.546,0.489
		C125.633,169.663,124.97,168.969,124.97,167.69z"/>
</g>
<g>
	<defs>
		<rect id="SVGID_3_" width="488.531" height="185.289"/>
	</defs>
	<clipPath id="SVGID_4_">
		<use xlink:href="#SVGID_3_"  style="overflow:visible;"/>
	</clipPath>
	<path style="clip-path:url(#SVGID_4_);fill:#C5C7C9;" d="M139.205,137.132h-16.508c0-14.974-12.181-27.154-27.155-27.154
		c-14.973,0-27.154,12.181-27.154,27.154H51.879c0-24.076,19.587-43.663,43.662-43.663
		C119.618,93.469,139.205,113.056,139.205,137.132"/>
	<path style="clip-path:url(#SVGID_4_);fill:#DB3F28;" d="M95.542,141.438c2.378,0,4.306-1.928,4.306-4.307
		c0-2.378-1.928-4.306-4.306-4.306c-2.378,0-4.306,1.928-4.306,4.306C91.236,139.51,93.164,141.438,95.542,141.438"/>
</g>
<g>
	<path style="fill:#6D6E70;" d="M226.142,169.474V158.95h1.846v8.898h4.639v1.625H226.142z"/>
	<path style="fill:#6D6E70;" d="M239.028,169.474v-1.01c-0.536,0.6-1.483,1.199-2.682,1.199c-1.641,0-2.461-0.868-2.461-2.414
		v-5.396h1.657v4.78c0,1.184,0.6,1.562,1.546,1.562c0.836,0,1.562-0.488,1.94-0.994v-5.348h1.657v7.62H239.028z"/>
	<path style="fill:#6D6E70;" d="M247.844,169.474v-4.765c0-1.199-0.615-1.578-1.546-1.578c-0.836,0-1.562,0.505-1.957,1.01v5.333
		h-1.657v-7.62h1.657v1.025c0.505-0.6,1.499-1.215,2.698-1.215c1.641,0,2.462,0.883,2.462,2.445v5.364H247.844z"/>
	<path style="fill:#6D6E70;" d="M251.043,165.655c0-2.304,1.625-3.991,3.929-3.991c1.499,0,2.383,0.631,2.919,1.356l-1.089,0.994
		c-0.426-0.6-1.01-0.884-1.751-0.884c-1.373,0-2.304,1.041-2.304,2.524s0.931,2.54,2.304,2.54c0.741,0,1.325-0.315,1.751-0.915
		l1.089,1.025c-0.536,0.71-1.42,1.357-2.919,1.357C252.668,169.663,251.043,167.959,251.043,165.655z"/>
	<path style="fill:#6D6E70;" d="M264.371,169.474v-4.796c0-1.199-0.6-1.547-1.53-1.547c-0.853,0-1.578,0.505-1.957,1.01v5.333
		h-1.656V158.95h1.656v3.929c0.505-0.6,1.483-1.215,2.683-1.215c1.641,0,2.461,0.852,2.461,2.414v5.396H264.371z"/>
</g>
<g>
	<defs>
		<rect id="SVGID_5_" width="488.531" height="185.289"/>
	</defs>
	<clipPath id="SVGID_6_">
		<use xlink:href="#SVGID_5_"  style="overflow:visible;"/>
	</clipPath>
	<path style="clip-path:url(#SVGID_6_);fill:#C5C7C9;" d="M289.762,137.132h-16.509c0-14.974-12.181-27.154-27.154-27.154
		c-14.973,0-27.154,12.181-27.154,27.154h-16.508c0-24.076,19.587-43.663,43.662-43.663
		C270.175,93.469,289.762,113.056,289.762,137.132"/>
	<path style="clip-path:url(#SVGID_6_);fill:#FFD000;" d="M246.099,141.438c2.378,0,4.306-1.928,4.306-4.307
		c0-2.378-1.928-4.306-4.306-4.306s-4.306,1.928-4.306,4.306C241.792,139.51,243.721,141.438,246.099,141.438"/>
</g>
<g>
	<path style="fill:#6D6E70;" d="M374.585,169.474V158.95h3.913c3.297,0,5.506,2.177,5.506,5.254c0,3.108-2.209,5.27-5.49,5.27
		H374.585z M382.111,164.204c0-2.02-1.263-3.629-3.598-3.629h-2.083v7.273h2.067C380.785,167.849,382.111,166.208,382.111,164.204z"
		/>
	<path style="fill:#6D6E70;" d="M385.403,159.896c0-0.567,0.457-1.025,1.025-1.025s1.025,0.458,1.025,1.025
		c0,0.568-0.457,1.025-1.025,1.025S385.403,160.465,385.403,159.896z M385.593,169.474v-7.62h1.656v7.62H385.593z"/>
	<path style="fill:#6D6E70;" d="M394.396,169.474v-4.765c0-1.199-0.615-1.578-1.547-1.578c-0.836,0-1.562,0.505-1.956,1.01v5.333
		h-1.656v-7.62h1.656v1.025c0.505-0.6,1.499-1.215,2.698-1.215c1.641,0,2.461,0.883,2.461,2.445v5.364H394.396z"/>
	<path style="fill:#6D6E70;" d="M403.195,169.474v-4.765c0-1.199-0.615-1.578-1.547-1.578c-0.836,0-1.562,0.505-1.956,1.01v5.333
		h-1.656v-7.62h1.656v1.025c0.505-0.6,1.499-1.215,2.698-1.215c1.641,0,2.461,0.883,2.461,2.445v5.364H403.195z"/>
	<path style="fill:#6D6E70;" d="M406.394,165.655c0-2.209,1.609-3.991,3.865-3.991c2.288,0,3.739,1.735,3.739,4.134v0.41h-5.869
		c0.127,1.136,0.979,2.098,2.414,2.098c0.758,0,1.625-0.3,2.178-0.852l0.757,1.089c-0.772,0.726-1.894,1.12-3.092,1.12
		C408.082,169.663,406.394,168.069,406.394,165.655z M410.243,163.021c-1.404,0-2.066,1.089-2.13,2.004h4.292
		C412.357,164.125,411.742,163.021,410.243,163.021z"/>
	<path style="fill:#6D6E70;" d="M415.494,169.474v-7.62h1.656v1.104c0.584-0.726,1.499-1.293,2.478-1.293v1.641
		c-0.143-0.031-0.3-0.048-0.505-0.048c-0.71,0-1.642,0.474-1.973,1.026v5.19H415.494z"/>
</g>
<g>
	<defs>
		<rect id="SVGID_7_" width="488.531" height="185.289"/>
	</defs>
	<clipPath id="SVGID_8_">
		<use xlink:href="#SVGID_7_"  style="overflow:visible;"/>
	</clipPath>
	<path style="clip-path:url(#SVGID_8_);fill:#C5C7C9;" d="M440.318,137.132h-16.508c0-14.974-12.182-27.154-27.155-27.154
		s-27.154,12.181-27.154,27.154h-16.508c0-24.076,19.587-43.663,43.662-43.663C420.731,93.469,440.318,113.056,440.318,137.132"/>
	<path style="clip-path:url(#SVGID_8_);fill:#60B35B;" d="M396.655,141.438c2.378,0,4.306-1.928,4.306-4.307
		c0-2.378-1.928-4.306-4.306-4.306s-4.306,1.928-4.306,4.306C392.35,139.51,394.277,141.438,396.655,141.438"/>
	<path style="clip-path:url(#SVGID_8_);fill:#60B35B;" d="M369.558,137.132h-16.564c0-24.159,19.655-43.815,43.813-43.815
		c10.054,0,19.875,3.492,27.658,9.832l-10.463,12.843c-4.906-3.996-10.852-6.108-17.195-6.108
		C381.782,109.883,369.558,122.106,369.558,137.132"/>
	<path style="clip-path:url(#SVGID_8_);fill:#FFD000;" d="M218.944,137.132h-16.508c0-24.075,19.587-43.663,43.663-43.663
		c2.435,0,4.879,0.203,7.265,0.603l-2.731,16.281c-1.485-0.249-3.011-0.375-4.533-0.375
		C231.126,109.978,218.944,122.158,218.944,137.132"/>
	<path style="clip-path:url(#SVGID_8_);fill:#DB3F28;" d="M68.415,137.132H51.879c0-13.615,6.175-26.217,16.943-34.57l10.137,13.063
		C72.257,120.824,68.415,128.663,68.415,137.132"/>
</g>
</svg>
