<?xml version="1.0" encoding="utf-8"?>
<!-- Generator: Adobe Illustrator 14.0.0, SVG Export Plug-In . SVG Version: 6.00 Build 43363)  -->
<!DOCTYPE svg PUBLIC "-//W3C//DTD SVG 1.1//EN" "http://www.w3.org/Graphics/SVG/1.1/DTD/svg11.dtd">
<svg version="1.1" id="Layer_1" xmlns="http://www.w3.org/2000/svg" xmlns:xlink="http://www.w3.org/1999/xlink" x="0px" y="0px"
	 width="53.48px" height="53.48px" viewBox="0 0 53.48 53.48" enable-background="new 0 0 53.48 53.48" xml:space="preserve">
<g>
	<g>
		<defs>
			<rect id="SVGID_1_" width="53.48" height="53.48"/>
		</defs>
		<clipPath id="SVGID_2_">
			<use xlink:href="#SVGID_1_"  overflow="visible"/>
		</clipPath>
		<path clip-path="url(#SVGID_2_)" fill="#F2EEEC" d="M26.74,52.48c14.216,0,25.74-11.523,25.74-25.74
			C52.48,12.524,40.956,1,26.74,1S1,12.524,1,26.74C1,40.957,12.524,52.48,26.74,52.48"/>
		<circle clip-path="url(#SVGID_2_)" fill="none" stroke="#288DC1" stroke-width="2" cx="26.74" cy="26.74" r="25.74"/>
		<path clip-path="url(#SVGID_2_)" fill="#FFFFFF" d="M26.152,16.26h7.654c0.302,2.166,2.091,3.594,4.257,3.896v10.913
			c0,5.836-10.418,10.859-11.911,10.859s-11.911-5.023-11.911-10.859V20.155c2.166-0.302,3.955-1.729,4.258-3.896H26.152z"/>
		<path clip-path="url(#SVGID_2_)" fill="none" stroke="#294F82" stroke-width="1.083" stroke-miterlimit="10" d="M26.152,16.26
			h7.654c0.302,2.166,2.091,3.594,4.257,3.896v10.913c0,5.836-10.418,10.859-11.911,10.859s-11.911-5.023-11.911-10.859V20.155
			c2.166-0.302,3.955-1.729,4.258-3.896H26.152z"/>
		<path clip-path="url(#SVGID_2_)" fill="none" stroke="#BCBEC3" stroke-width="1.083" stroke-miterlimit="10" d="M17.911,41.478
			c-4.526-3.209-6.918-6.732-6.918-10.41v-5.063 M18.032,13.554h4.33 M29.942,13.554h4.331 M41.312,26.005v5.063
			c0,3.678-2.392,7.201-6.917,10.41"/>
		<path clip-path="url(#SVGID_2_)" fill="none" stroke="#294F82" stroke-width="1.083" stroke-miterlimit="10" d="M33.566,28.382
			c0,4.371-3.545,7.916-7.916,7.916c-4.372,0-7.915-3.545-7.915-7.916c0-4.371,3.543-7.915,7.915-7.915
			c0.996,0,1.949,0.184,2.826,0.519"/>
	</g>
	<polygon fill="#B5D0E6" points="33.288,20.521 26.152,27.656 23.18,24.683 20.801,27.062 26.152,32.414 35.667,22.899 	"/>
	<polygon fill="none" stroke="#288DC2" stroke-width="1.083" stroke-linejoin="round" stroke-miterlimit="10" points="
		33.288,20.521 26.152,27.656 23.18,24.683 20.801,27.062 26.152,32.414 35.667,22.899 	"/>
	<path fill="none" stroke="#BCBEC3" stroke-width="1.083" stroke-miterlimit="10" d="M27.776,13.554h1.083 M23.445,13.554h1.084
		 M25.611,13.554h1.082 M10.993,23.84v1.083 M10.993,21.675v1.082 M10.993,19.509v1.083 M41.312,23.84v1.083 M41.312,21.675v1.082
		 M41.312,19.509v1.083"/>
</g>
</svg>
