<?xml version="1.0" encoding="utf-8"?>
<!-- Generator: Adobe Illustrator 14.0.0, SVG Export Plug-In . SVG Version: 6.00 Build 43363)  -->
<!DOCTYPE svg PUBLIC "-//W3C//DTD SVG 1.1//EN" "http://www.w3.org/Graphics/SVG/1.1/DTD/svg11.dtd">
<svg version="1.1" id="Layer_1" xmlns="http://www.w3.org/2000/svg" xmlns:xlink="http://www.w3.org/1999/xlink" x="0px" y="0px"
	 width="53.48px" height="53.48px" viewBox="0 0 53.48 53.48" enable-background="new 0 0 53.48 53.48" xml:space="preserve">
<g>
	<defs>
		<rect id="SVGID_1_" width="53.48" height="53.48"/>
	</defs>
	<clipPath id="SVGID_2_">
		<use xlink:href="#SVGID_1_"  overflow="visible"/>
	</clipPath>
	<path clip-path="url(#SVGID_2_)" fill="#F2EEEC" d="M26.74,52.48c14.216,0,25.74-11.524,25.74-25.74S40.956,1,26.74,1
		S1,12.524,1,26.74S12.524,52.48,26.74,52.48"/>
	<circle clip-path="url(#SVGID_2_)" fill="none" stroke="#288DC1" stroke-width="2" cx="26.74" cy="26.74" r="25.74"/>
</g>
<path fill="none" stroke="#BCBEC3" stroke-width="1.048" stroke-miterlimit="10" d="M38.775,25.219h3.145 M40.349,23.646v3.145
	 M12.049,22.599h3.144 M13.622,21.026v3.145 M23.054,16.31h3.144 M24.626,14.737v3.145"/>
<path fill="none" stroke="#294F82" stroke-width="1.048" stroke-miterlimit="10" d="M11.001,41.465h1.048 M43.492,41.465h1.048
	 M39.824,41.465h2.619"/>
<rect x="31.439" y="27.84" fill="#FFFFFF" width="5.765" height="13.625"/>
<rect x="31.439" y="27.84" fill="none" stroke="#294F82" stroke-width="1.048" stroke-miterlimit="10" width="5.765" height="13.625"/>
<rect x="15.717" y="36.748" fill="#E7E9E9" width="5.765" height="4.717"/>
<rect x="15.717" y="36.748" fill="none" stroke="#294F82" stroke-width="1.048" stroke-miterlimit="10" width="5.765" height="4.717"/>
<rect x="23.578" y="33.604" fill="#E7E9E9" width="5.765" height="7.861"/>
<rect x="23.578" y="33.604" fill="none" stroke="#294F82" stroke-width="1.048" stroke-miterlimit="10" width="5.765" height="7.861"/>
<line fill="none" stroke="#294F82" stroke-width="1.048" stroke-miterlimit="10" x1="38.775" y1="41.465" x2="13.097" y2="41.465"/>
<polygon fill="#B5D0E6" points="37.729,15.262 31.727,15.262 33.209,16.744 25.463,24.489 21.387,20.414 12.864,28.937 
	15.818,31.913 21.017,26.714 25.093,30.79 36.174,19.709 37.729,21.263 "/>
<polygon fill="none" stroke="#288DC2" stroke-width="1.048" stroke-linejoin="round" stroke-miterlimit="10" points="37.729,15.262 
	31.727,15.262 33.209,16.744 25.463,24.489 21.387,20.414 12.864,28.937 15.818,31.913 21.017,26.714 25.093,30.79 36.174,19.709 
	37.729,21.263 "/>
</svg>
