<?xml version="1.0" encoding="utf-8"?>
<!-- Generator: Adobe Illustrator 14.0.0, SVG Export Plug-In . SVG Version: 6.00 Build 43363)  -->
<!DOCTYPE svg PUBLIC "-//W3C//DTD SVG 1.1//EN" "http://www.w3.org/Graphics/SVG/1.1/DTD/svg11.dtd">
<svg version="1.1" id="Layer_1" xmlns="http://www.w3.org/2000/svg" xmlns:xlink="http://www.w3.org/1999/xlink" x="0px" y="0px"
	 width="53.48px" height="53.48px" viewBox="0 0 53.48 53.48" enable-background="new 0 0 53.48 53.48" xml:space="preserve">
<g>
	<g>
		<defs>
			<rect id="SVGID_1_" width="53.48" height="53.48"/>
		</defs>
		<clipPath id="SVGID_2_">
			<use xlink:href="#SVGID_1_"  overflow="visible"/>
		</clipPath>
		<path clip-path="url(#SVGID_2_)" fill="#F2EEEC" d="M26.74,52.48c14.216,0,25.74-11.524,25.74-25.74S40.956,1,26.74,1
			S1,12.524,1,26.74S12.524,52.48,26.74,52.48"/>
		<circle clip-path="url(#SVGID_2_)" fill="none" stroke="#288DC1" stroke-width="2" cx="26.74" cy="26.74" r="25.74"/>
		<path clip-path="url(#SVGID_2_)" fill="#A7D1EF" d="M30.412,21.972l-0.885-2.138c-0.255-0.104-0.397-0.165-0.652-0.27
			l-1.549,0.642c-0.219-0.06-0.369-0.101-0.586-0.16c-0.347-0.434-0.737-0.821-1.164-1.159c-0.059-0.22-0.1-0.368-0.158-0.587
			l0.642-1.551c-0.106-0.255-0.165-0.397-0.271-0.652l-2.137-0.886c-0.255,0.105-0.397,0.165-0.652,0.271l-0.643,1.551
			c-0.197,0.112-0.33,0.189-0.527,0.301c-0.541-0.061-1.092-0.063-1.643-0.001c-0.197-0.111-0.33-0.188-0.527-0.301l-0.642-1.55
			c-0.255-0.105-0.397-0.165-0.653-0.271l-2.137,0.886c-0.105,0.255-0.165,0.397-0.27,0.652l0.642,1.55
			c-0.06,0.218-0.101,0.367-0.159,0.586c-0.435,0.346-0.822,0.735-1.162,1.161c-0.218,0.061-0.367,0.102-0.586,0.16l-1.551-0.642
			c-0.254,0.104-0.396,0.165-0.652,0.27l-0.885,2.138c0.105,0.255,0.164,0.397,0.27,0.652l1.552,0.643
			c0.112,0.196,0.188,0.331,0.301,0.527c-0.062,0.54-0.063,1.092-0.001,1.643c-0.111,0.197-0.189,0.331-0.301,0.526l-1.551,0.643
			c-0.105,0.255-0.164,0.397-0.27,0.653l0.885,2.137c0.256,0.104,0.398,0.164,0.652,0.27l1.551-0.642
			c0.217,0.06,0.367,0.1,0.586,0.16c0.346,0.434,0.735,0.821,1.162,1.16c0.059,0.219,0.1,0.367,0.159,0.587l-0.642,1.55
			c0.104,0.255,0.164,0.397,0.27,0.653l2.137,0.885c0.256-0.106,0.398-0.165,0.653-0.271l0.642-1.551
			c0.197-0.112,0.332-0.188,0.527-0.301c0.541,0.061,1.092,0.063,1.643,0.001c0.197,0.112,0.332,0.188,0.527,0.301L23,33.748
			c0.255,0.105,0.397,0.165,0.652,0.271l2.137-0.885c0.105-0.256,0.164-0.398,0.271-0.653l-0.642-1.549
			c0.06-0.22,0.1-0.368,0.16-0.586c0.434-0.347,0.822-0.737,1.16-1.163c0.219-0.06,0.367-0.101,0.586-0.159l1.551,0.642
			c0.255-0.105,0.397-0.165,0.652-0.27l0.885-2.137c-0.105-0.256-0.164-0.398-0.27-0.653l-1.551-0.643
			c-0.113-0.196-0.189-0.33-0.303-0.527c0.063-0.54,0.064-1.091,0.002-1.643c0.113-0.196,0.189-0.331,0.302-0.526l1.55-0.643
			C30.248,22.369,30.307,22.227,30.412,21.972"/>
		
			<path clip-path="url(#SVGID_2_)" fill="none" stroke="#294F82" stroke-width="0.999" stroke-linejoin="round" stroke-miterlimit="10" d="
			M30.412,21.972l-0.885-2.138c-0.255-0.104-0.397-0.165-0.652-0.27l-1.549,0.642c-0.219-0.06-0.369-0.101-0.586-0.16
			c-0.347-0.434-0.737-0.821-1.164-1.159c-0.059-0.22-0.1-0.368-0.158-0.587l0.642-1.551c-0.106-0.255-0.165-0.397-0.271-0.652
			l-2.137-0.886c-0.255,0.105-0.397,0.165-0.652,0.271l-0.643,1.551c-0.197,0.112-0.33,0.189-0.527,0.301
			c-0.541-0.061-1.092-0.063-1.643-0.001c-0.197-0.111-0.33-0.188-0.527-0.301l-0.642-1.55c-0.255-0.105-0.397-0.165-0.653-0.271
			l-2.137,0.886c-0.105,0.255-0.165,0.397-0.27,0.652l0.642,1.55c-0.06,0.218-0.101,0.367-0.159,0.586
			c-0.435,0.346-0.822,0.735-1.162,1.161c-0.218,0.061-0.367,0.102-0.586,0.16l-1.551-0.642c-0.254,0.104-0.396,0.165-0.652,0.27
			l-0.885,2.138c0.105,0.255,0.164,0.397,0.27,0.652l1.552,0.643c0.112,0.196,0.188,0.331,0.301,0.527
			c-0.062,0.54-0.063,1.092-0.001,1.643c-0.111,0.197-0.189,0.331-0.301,0.526l-1.551,0.643c-0.105,0.255-0.164,0.397-0.27,0.653
			l0.885,2.137c0.256,0.104,0.398,0.164,0.652,0.27l1.551-0.642c0.217,0.06,0.367,0.1,0.586,0.16
			c0.346,0.434,0.735,0.821,1.162,1.16c0.059,0.219,0.1,0.367,0.159,0.587l-0.642,1.55c0.104,0.255,0.164,0.397,0.27,0.653
			l2.137,0.885c0.256-0.106,0.398-0.165,0.653-0.271l0.642-1.551c0.197-0.112,0.332-0.188,0.527-0.301
			c0.541,0.061,1.092,0.063,1.643,0.001c0.197,0.112,0.332,0.188,0.527,0.301L23,33.748c0.255,0.105,0.397,0.165,0.652,0.271
			l2.137-0.885c0.105-0.256,0.164-0.398,0.271-0.653l-0.642-1.549c0.06-0.22,0.1-0.368,0.16-0.586
			c0.434-0.347,0.822-0.737,1.16-1.163c0.219-0.06,0.367-0.101,0.586-0.159l1.551,0.642c0.255-0.105,0.397-0.165,0.652-0.27
			l0.885-2.137c-0.105-0.256-0.164-0.398-0.27-0.653l-1.551-0.643c-0.113-0.196-0.189-0.33-0.303-0.527
			c0.063-0.54,0.064-1.091,0.002-1.643c0.113-0.196,0.189-0.331,0.302-0.526l1.55-0.643C30.248,22.369,30.307,22.227,30.412,21.972z
			"/>
		<path clip-path="url(#SVGID_2_)" fill="#FFFFFF" d="M41.08,33.978l-0.484-1.17c-0.256-0.105-0.398-0.165-0.653-0.271l-0.805,0.334
			c-0.218-0.059-0.367-0.099-0.584-0.156c-0.192-0.229-0.403-0.439-0.63-0.628c-0.057-0.217-0.098-0.367-0.155-0.585l0.334-0.807
			c-0.106-0.255-0.165-0.396-0.271-0.651l-1.17-0.485c-0.256,0.105-0.398,0.165-0.654,0.271l-0.334,0.806
			c-0.193,0.113-0.328,0.191-0.522,0.304c-0.294-0.026-0.591-0.027-0.889-0.001c-0.195-0.112-0.329-0.19-0.523-0.303l-0.334-0.806
			c-0.255-0.106-0.397-0.165-0.653-0.271l-1.17,0.484c-0.105,0.255-0.164,0.397-0.271,0.652l0.334,0.807
			c-0.058,0.217-0.099,0.367-0.155,0.584c-0.229,0.191-0.439,0.402-0.628,0.629c-0.218,0.058-0.368,0.098-0.585,0.156l-0.806-0.334
			c-0.255,0.104-0.397,0.165-0.653,0.27l-0.484,1.171c0.105,0.255,0.164,0.397,0.27,0.652l0.807,0.334
			c0.112,0.195,0.19,0.329,0.303,0.523c-0.026,0.294-0.026,0.592,0,0.89c-0.113,0.193-0.19,0.329-0.303,0.522l-0.807,0.334
			c-0.105,0.254-0.164,0.397-0.27,0.652l0.484,1.171c0.256,0.105,0.398,0.165,0.653,0.271l0.805-0.334
			c0.218,0.058,0.367,0.098,0.584,0.155c0.192,0.23,0.403,0.439,0.629,0.628c0.058,0.218,0.099,0.367,0.156,0.585l-0.334,0.807
			c0.106,0.255,0.165,0.397,0.271,0.652l1.17,0.485c0.256-0.105,0.398-0.165,0.653-0.271l0.334-0.807
			c0.195-0.112,0.329-0.189,0.524-0.303c0.293,0.026,0.59,0.027,0.888,0.001c0.195,0.112,0.329,0.19,0.522,0.303l0.334,0.806
			c0.256,0.105,0.398,0.165,0.654,0.271l1.17-0.485c0.105-0.255,0.164-0.397,0.271-0.652l-0.334-0.806
			c0.058-0.217,0.099-0.366,0.155-0.585c0.229-0.191,0.439-0.401,0.629-0.629c0.217-0.058,0.367-0.098,0.584-0.154l0.806,0.333
			c0.255-0.105,0.397-0.164,0.653-0.271l0.484-1.17c-0.105-0.255-0.164-0.398-0.27-0.653l-0.807-0.334
			c-0.112-0.194-0.19-0.329-0.303-0.523c0.026-0.293,0.026-0.59,0-0.89c0.113-0.193,0.19-0.327,0.303-0.522l0.807-0.333
			C40.916,34.376,40.975,34.232,41.08,33.978"/>
		
			<path clip-path="url(#SVGID_2_)" fill="none" stroke="#294F82" stroke-width="0.999" stroke-linejoin="round" stroke-miterlimit="10" d="
			M41.08,33.978l-0.484-1.17c-0.256-0.105-0.398-0.165-0.653-0.271l-0.805,0.334c-0.218-0.059-0.367-0.099-0.584-0.156
			c-0.192-0.229-0.403-0.439-0.63-0.628c-0.057-0.217-0.098-0.367-0.155-0.585l0.334-0.807c-0.106-0.255-0.165-0.396-0.271-0.651
			l-1.17-0.485c-0.256,0.105-0.398,0.165-0.654,0.271l-0.334,0.806c-0.193,0.113-0.328,0.191-0.522,0.304
			c-0.294-0.026-0.591-0.027-0.889-0.001c-0.195-0.112-0.329-0.19-0.523-0.303l-0.334-0.806c-0.255-0.106-0.397-0.165-0.653-0.271
			l-1.17,0.484c-0.105,0.255-0.164,0.397-0.271,0.652l0.334,0.807c-0.058,0.217-0.099,0.367-0.155,0.584
			c-0.229,0.191-0.439,0.402-0.628,0.629c-0.218,0.058-0.368,0.098-0.585,0.156l-0.806-0.334c-0.255,0.104-0.397,0.165-0.653,0.27
			l-0.484,1.171c0.105,0.255,0.164,0.397,0.27,0.652l0.807,0.334c0.112,0.195,0.19,0.329,0.303,0.523
			c-0.026,0.294-0.026,0.592,0,0.89c-0.113,0.193-0.19,0.329-0.303,0.522l-0.807,0.334c-0.105,0.254-0.164,0.397-0.27,0.652
			l0.484,1.171c0.256,0.105,0.398,0.165,0.653,0.271l0.805-0.334c0.218,0.058,0.367,0.098,0.584,0.155
			c0.192,0.23,0.403,0.439,0.629,0.628c0.058,0.218,0.099,0.367,0.156,0.585l-0.334,0.807c0.106,0.255,0.165,0.397,0.271,0.652
			l1.17,0.485c0.256-0.105,0.398-0.165,0.653-0.271l0.334-0.807c0.195-0.112,0.329-0.189,0.524-0.303
			c0.293,0.026,0.59,0.027,0.888,0.001c0.195,0.112,0.329,0.19,0.522,0.303l0.334,0.806c0.256,0.105,0.398,0.165,0.654,0.271
			l1.17-0.485c0.105-0.255,0.164-0.397,0.271-0.652l-0.334-0.806c0.058-0.217,0.099-0.366,0.155-0.585
			c0.229-0.191,0.439-0.401,0.629-0.629c0.217-0.058,0.367-0.098,0.584-0.154l0.806,0.333c0.255-0.105,0.397-0.164,0.653-0.271
			l0.484-1.17c-0.105-0.255-0.164-0.398-0.27-0.653l-0.807-0.334c-0.112-0.194-0.19-0.329-0.303-0.523
			c0.026-0.293,0.026-0.59,0-0.89c0.113-0.193,0.19-0.327,0.303-0.522l0.807-0.333C40.916,34.376,40.975,34.232,41.08,33.978z"/>
		<path clip-path="url(#SVGID_2_)" fill="#FFFFFF" d="M36.74,35.09c0.465,1.123-0.068,2.411-1.19,2.876
			c-1.123,0.465-2.411-0.068-2.876-1.191c-0.465-1.124,0.068-2.411,1.191-2.876S36.275,33.967,36.74,35.09"/>
		
			<circle clip-path="url(#SVGID_2_)" fill="none" stroke="#294F82" stroke-width="0.999" stroke-miterlimit="10" cx="34.707" cy="35.932" r="2.201"/>
		<path clip-path="url(#SVGID_2_)" fill="#FFFFFF" d="M24.403,24.512c0,1.932-1.566,3.497-3.497,3.497
			c-1.932,0-3.497-1.565-3.497-3.497c0-1.931,1.565-3.497,3.497-3.497C22.837,21.015,24.403,22.581,24.403,24.512"/>
		
			<circle clip-path="url(#SVGID_2_)" fill="none" stroke="#294F82" stroke-width="0.999" stroke-miterlimit="10" cx="20.906" cy="24.512" r="3.497"/>
		<path clip-path="url(#SVGID_2_)" fill="none" stroke="#BCBEC3" stroke-width="1.326" stroke-miterlimit="10" d="M29.314,45.396
			c-3.113,0.44-6.38,0.121-9.525-1.077c-3.936-1.499-7.094-4.151-9.237-7.424"/>
		<path clip-path="url(#SVGID_2_)" fill="none" stroke="#294F82" stroke-width="1.326" stroke-miterlimit="10" d="M26.738,40.947
			c-1.257,0.164-2.563,0.117-3.873-0.171c-3.033-0.666-5.512-2.497-7.068-4.919 M25.693,13.565c2.652-0.374,5.446,0.19,7.846,1.798
			c4.166,2.791,5.873,7.873,4.574,12.447"/>
		<path clip-path="url(#SVGID_2_)" fill="none" stroke="#BCBEC3" stroke-width="1.326" stroke-miterlimit="10" d="M19.933,11.455
			c2.733-1.742,6.043-2.63,9.522-2.325c2.111,0.185,4.082,0.792,5.841,1.73"/>
		<path clip-path="url(#SVGID_2_)" fill="none" stroke="#294F82" stroke-width="1.326" stroke-miterlimit="10" d="M38.246,14.03
			c1.381,1.438,2.5,3.17,3.252,5.15c0.404,1.064,0.682,2.146,0.839,3.229c0.136,0.932,0.183,1.862,0.146,2.783"/>
	</g>
</g>
</svg>
