<?xml version="1.0" encoding="iso-8859-1"?>
<!-- Generator: Adobe Illustrator 14.0.0, SVG Export Plug-In . SVG Version: 6.00 Build 43363)  -->
<!DOCTYPE svg PUBLIC "-//W3C//DTD SVG 1.1//EN" "http://www.w3.org/Graphics/SVG/1.1/DTD/svg11.dtd">
<svg version="1.1" id="Layer_1" xmlns="http://www.w3.org/2000/svg" xmlns:xlink="http://www.w3.org/1999/xlink" x="0px" y="0px"
	 width="65.246px" height="66.1px" viewBox="0 0 65.246 66.1" style="enable-background:new 0 0 65.246 66.1;" xml:space="preserve"
	>
<g>
	<path style="fill:#4D4D4F;" d="M0.467,50.288v-4.723h2.209c1.026,0,1.586,0.694,1.586,1.522c0,0.821-0.566,1.515-1.586,1.515H1.473
		v1.686H0.467z M3.236,47.087c0-0.396-0.305-0.638-0.701-0.638H1.473v1.268h1.062C2.931,47.717,3.236,47.477,3.236,47.087z"/>
	<path style="fill:#4D4D4F;" d="M5.017,47.93c0-1.424,1.041-2.443,2.471-2.443c1.423,0,2.464,1.02,2.464,2.443
		c0,1.423-1.041,2.442-2.464,2.442C6.057,50.373,5.017,49.353,5.017,47.93z M8.917,47.93c0-0.885-0.559-1.551-1.43-1.551
		c-0.878,0-1.438,0.666-1.438,1.551c0,0.878,0.56,1.551,1.438,1.551C8.358,49.481,8.917,48.808,8.917,47.93z"/>
	<path style="fill:#4D4D4F;" d="M10.692,49.622l0.552-0.785c0.333,0.347,0.85,0.645,1.501,0.645c0.56,0,0.821-0.248,0.821-0.524
		c0-0.821-2.719-0.248-2.719-2.024c0-0.786,0.68-1.438,1.791-1.438c0.751,0,1.374,0.227,1.841,0.658l-0.559,0.75
		c-0.382-0.354-0.892-0.517-1.374-0.517c-0.425,0-0.666,0.185-0.666,0.468c0,0.743,2.711,0.24,2.711,2.004
		c0,0.863-0.623,1.515-1.89,1.515C11.79,50.373,11.138,50.068,10.692,49.622z"/>
	<path style="fill:#4D4D4F;" d="M18.89,50.288V46.45h-1.38v-0.885h3.767v0.885h-1.374v3.838H18.89z"/>
	<path style="fill:#4D4D4F;" d="M25.513,50.288v-1.989h-2.23v1.989h-1.005v-4.723h1.005v1.855h2.23v-1.855h1.012v4.723H25.513z"/>
	<path style="fill:#4D4D4F;" d="M27.812,50.288v-4.723h3.342v0.885h-2.336v0.992h2.287v0.885h-2.287v1.076h2.336v0.885H27.812z"/>
	<path style="fill:#4D4D4F;" d="M32.29,50.288v-4.723h3.342v0.885h-2.336v0.992h2.286v0.885h-2.286v1.961H32.29z"/>
	<path style="fill:#4D4D4F;" d="M37.773,50.288V46.45h-1.381v-0.885h3.767v0.885h-1.373v3.838H37.773z"/>
	<path style="fill:#4D4D4F;" d="M46.6,50.288l-0.298-0.8h-2.024l-0.298,0.8h-1.14l1.819-4.723h1.261l1.819,4.723H46.6z
		 M45.29,46.571l-0.736,2.031h1.473L45.29,46.571z"/>
	<path style="fill:#4D4D4F;" d="M48.303,48.397v-2.832h1.02v2.804c0,0.659,0.383,1.112,1.112,1.112s1.104-0.453,1.104-1.112v-2.804
		h1.026v2.832c0,1.168-0.694,1.976-2.131,1.976C48.998,50.373,48.303,49.565,48.303,48.397z"/>
	<path style="fill:#4D4D4F;" d="M53.852,50.288v-4.723h1.861c1.48,0,2.507,0.941,2.507,2.357c0,1.431-1.026,2.365-2.499,2.365
		H53.852z M57.194,47.922c0-0.828-0.51-1.473-1.473-1.473h-0.864v2.953h0.856C56.648,49.403,57.194,48.73,57.194,47.922z"/>
	<path style="fill:#4D4D4F;" d="M59.293,50.288v-4.723h1.006v4.723H59.293z"/>
	<path style="fill:#4D4D4F;" d="M62.679,50.288V46.45h-1.381v-0.885h3.767v0.885h-1.373v3.838H62.679z"/>
</g>
<g>
	<path style="fill:#B52372;" d="M51.88,19.243c0,10.627-8.617,19.243-19.243,19.243c-10.628,0-19.244-8.616-19.244-19.243
		C13.394,8.615,22.009,0,32.637,0C43.263,0,51.88,8.615,51.88,19.243"/>
	<path style="fill:#FFFFFF;" d="M41.63,23.61c-1.042-1.612-2.658-2.819-4.564-3.324c-1.201,1.12-2.807,1.813-4.576,1.813
		c-1.767,0-3.372-0.693-4.574-1.813c-1.734,0.459-3.231,1.503-4.274,2.902c1.376,0.729,4.675,2.174,9.219,2.174
		C35.77,25.362,38.711,24.772,41.63,23.61"/>
	<path style="fill:#FFFFFF;" d="M42.882,28.919v-1.094c0-0.231-0.01-0.462-0.028-0.688l-0.257-1.268
		c-3.273,1.322-6.564,1.99-9.812,1.99c-4.99,0-8.642-1.6-10.286-2.489c-0.258,0.773-0.402,1.596-0.402,2.455v0.519
		c1.802,0.772,5.673,2.105,10.939,2.105C36.306,30.45,39.606,29.937,42.882,28.919"/>
	<path style="fill:#FFFFFF;" d="M32.49,20.947c3.387,0,6.132-3.167,6.132-7.072c0-0.629-0.071-1.239-0.207-1.82l-1.125,1.818
		c-0.272,0.912-1.265,1.572-2.485,1.572c-0.773,0-1.453-0.266-1.921-0.694h-0.791c-0.465,0.428-1.147,0.694-1.92,0.694
		c-1.212,0-2.201-0.652-2.481-1.555l-1.129-1.825c-0.134,0.578-0.205,1.185-0.205,1.81C26.358,17.78,29.104,20.947,32.49,20.947"/>
	<path style="fill:#FFFFFF;" d="M37.408,9.656c-1.115-1.731-2.901-2.853-4.917-2.853c-2.469,0-4.595,1.684-5.567,4.108l1.569,0.875
		l-0.001,0.007c0.446-0.312,1.032-0.502,1.682-0.502c0.728,0,1.376,0.236,1.837,0.618h0.959c0.462-0.382,1.109-0.618,1.837-0.618
		c0.646,0,1.229,0.186,1.675,0.497l-0.001-0.002l1.497-0.834c0.09-0.019,0.071-0.068,0.171-0.088"/>
	<path style="fill:#FFFFFF;" d="M31.26,13.348c0,0.478-0.527,0.866-1.177,0.866s-1.177-0.388-1.177-0.866s0.527-0.866,1.177-0.866
		S31.26,12.87,31.26,13.348"/>
	<path style="fill:#FFFFFF;" d="M35.945,13.348c0,0.478-0.527,0.866-1.178,0.866c-0.649,0-1.177-0.388-1.177-0.866
		s0.527-0.866,1.177-0.866C35.417,12.482,35.945,12.87,35.945,13.348"/>
	<path style="fill:#C5C7C9;" d="M17.989,65.232h-3.328c0-3.019-2.456-5.474-5.474-5.474c-3.019,0-5.475,2.455-5.475,5.474H0.384
		c0-4.854,3.949-8.802,8.803-8.802C14.041,56.43,17.989,60.377,17.989,65.232"/>
	<path style="fill:#60B35B;" d="M9.187,66.1c0.479,0,0.868-0.389,0.868-0.868s-0.389-0.868-0.868-0.868s-0.868,0.389-0.868,0.868
		S8.708,66.1,9.187,66.1"/>
	<path style="fill:#60B35B;" d="M3.724,65.232h-3.34c0-4.871,3.963-8.833,8.833-8.833c2.027,0,4.007,0.704,5.576,1.982l-2.109,2.589
		c-0.989-0.807-2.188-1.231-3.467-1.231C6.188,59.739,3.724,62.203,3.724,65.232"/>
	<path style="fill:#C5C7C9;" d="M63.53,65.232h-3.328c0-3.019-2.456-5.474-5.474-5.474c-3.019,0-5.475,2.455-5.475,5.474h-3.328
		c0-4.854,3.948-8.802,8.803-8.802C59.581,56.43,63.53,60.377,63.53,65.232"/>
	<path style="fill:#FFD000;" d="M54.727,66.1c0.479,0,0.868-0.389,0.868-0.868s-0.389-0.868-0.868-0.868
		c-0.479,0-0.867,0.389-0.867,0.868S54.249,66.1,54.727,66.1"/>
	<path style="fill:#FFD000;" d="M49.253,65.232h-3.328c0-4.854,3.949-8.802,8.802-8.802c0.491,0,0.984,0.04,1.465,0.121
		l-0.551,3.281c-0.299-0.05-0.607-0.074-0.914-0.074C51.709,59.758,49.253,62.213,49.253,65.232"/>
	<path style="fill:#C5C7C9;" d="M40.759,65.232h-3.328c0-3.019-2.455-5.474-5.474-5.474c-3.019,0-5.475,2.455-5.475,5.474h-3.328
		c0-4.854,3.949-8.802,8.803-8.802C36.811,56.43,40.759,60.377,40.759,65.232"/>
	<path style="fill:#DB3F28;" d="M31.957,66.1c0.479,0,0.868-0.389,0.868-0.868s-0.389-0.868-0.868-0.868s-0.868,0.389-0.868,0.868
		S31.478,66.1,31.957,66.1"/>
	<path style="fill:#DB3F28;" d="M26.488,65.232h-3.334c0-2.745,1.245-5.285,3.416-6.969l2.044,2.633
		C27.263,61.945,26.488,63.525,26.488,65.232"/>
</g>
</svg>
