<?xml version="1.0" encoding="iso-8859-1"?>
<!-- Generator: Adobe Illustrator 14.0.0, SVG Export Plug-In . SVG Version: 6.00 Build 43363)  -->
<!DOCTYPE svg PUBLIC "-//W3C//DTD SVG 1.1//EN" "http://www.w3.org/Graphics/SVG/1.1/DTD/svg11.dtd">
<svg version="1.1" id="Layer_1" xmlns="http://www.w3.org/2000/svg" xmlns:xlink="http://www.w3.org/1999/xlink" x="0px" y="0px"
	 width="53.996px" height="54px" viewBox="0 0 53.996 54" style="enable-background:new 0 0 53.996 54;" xml:space="preserve">
<g>
	<path style="fill:#484F59;" d="M53.996,27.002C53.996,41.89,41.882,54,26.998,54C12.11,54,0,41.89,0,27.002
		C0,12.115,12.11,0,26.998,0C41.882,0,53.996,12.115,53.996,27.002 M26.998,18.15c-4.881,0-8.852,3.971-8.852,8.852
		c0,4.88,3.971,8.851,8.852,8.851c4.88,0,8.851-3.971,8.851-8.851C35.849,22.121,31.878,18.15,26.998,18.15 M30.75,24.08
		l-1.584,0.32c-0.135-0.344-0.271-0.594-0.411-0.748c-0.249-0.279-0.599-0.447-1.052-0.506v2.639c0.998,0.15,1.781,0.459,2.35,0.922
		c0.68,0.558,1.02,1.31,1.02,2.255c0,0.965-0.358,1.73-1.07,2.299c-0.639,0.51-1.406,0.768-2.299,0.768v1.373h-1.141v-1.373
		c-0.215,0-0.478-0.039-0.793-0.113c-0.609-0.146-1.141-0.4-1.594-0.768c-0.631-0.512-1.049-1.191-1.254-2.045l1.639-0.357
		c0.145,0.512,0.386,0.926,0.722,1.244c0.371,0.35,0.8,0.521,1.28,0.521V27.57c-0.105-0.041-0.309-0.09-0.61-0.149
		c-0.302-0.056-0.591-0.156-0.871-0.296c-0.626-0.307-1.074-0.67-1.345-1.088c-0.27-0.418-0.404-0.924-0.404-1.516
		c0-0.869,0.332-1.578,0.992-2.123c0.622-0.512,1.367-0.768,2.238-0.768v-0.914h1.141v0.956c0.139,0,0.342,0.039,0.609,0.113
		c0.494,0.14,0.922,0.353,1.289,0.642C30.128,22.845,30.512,23.396,30.75,24.08 M25.152,24.33c0,0.429,0.185,0.756,0.557,0.976
		c0.179,0.104,0.462,0.201,0.853,0.287v-2.5c-0.4,0-0.729,0.104-0.984,0.307C25.293,23.625,25.152,23.935,25.152,24.33
		 M29.322,29.033c0-0.4-0.206-0.732-0.617-0.992c-0.337-0.217-0.672-0.322-1.002-0.322v2.848c0.516-0.082,0.916-0.252,1.197-0.51
		C29.18,29.798,29.322,29.457,29.322,29.033 M14.255,26.371c0.156-3.034,1.37-5.789,3.276-7.905l-7.019-7.015
		c-3.698,3.916-6.016,9.146-6.18,14.92H14.255z M18.47,17.525c2.251-2.031,5.057-3.127,7.902-3.272V4.326
		c-5.388,0.158-10.724,2.215-14.922,6.183L18.47,17.525z M35.525,17.525l7.02-7.016c-4.198-3.968-9.535-6.025-14.922-6.183v9.927
		C30.468,14.398,33.273,15.494,35.525,17.525 M43.482,11.449l-7.021,7.017c0.42,0.463,0.79,0.957,1.128,1.465l7.738-2.433
		c0.483-0.151,0.996-0.012,1.336,0.33c0.115,0.113,0.21,0.25,0.277,0.406c0.271,0.619,0.032,1.346-0.556,1.682l-7.018,4.027
		c0.198,0.799,0.326,1.609,0.368,2.428h9.926C49.506,20.984,47.449,15.648,43.482,11.449 M35.48,21.984
		c0.393,0.662,0.719,1.367,0.948,2.117l9.297-5.336L35.48,21.984z"/>
</g>
</svg>
