<?xml version="1.0" encoding="iso-8859-1"?>
<!-- Generator: Adobe Illustrator 14.0.0, SVG Export Plug-In . SVG Version: 6.00 Build 43363)  -->
<!DOCTYPE svg PUBLIC "-//W3C//DTD SVG 1.1//EN" "http://www.w3.org/Graphics/SVG/1.1/DTD/svg11.dtd">
<svg version="1.1" id="Layer_1" xmlns="http://www.w3.org/2000/svg" xmlns:xlink="http://www.w3.org/1999/xlink" x="0px" y="0px"
	 width="54px" height="54px" viewBox="0 0 54 54" style="enable-background:new 0 0 54 54;" xml:space="preserve">
<g>
	<path style="fill:#484F59;" d="M52.469,47.842h-8.306C39.5,51.689,33.52,54,27,54C12.088,54,0,41.912,0,27S12.088,0,27,0
		c14.91,0,27,12.088,27,27c0,3.145-0.543,6.16-1.53,8.967V47.842z M36.447,22.582c0,0.266,0.213,0.48,0.478,0.48
		s0.479-0.214,0.479-0.48l-0.002-5.459c0-3.367-2.734-6.102-6.103-6.104h-2.19c-3.369,0.002-6.103,2.737-6.105,6.104v5.459
		c0,0.266,0.215,0.48,0.48,0.48c0.262,0,0.479-0.214,0.479-0.48v-5.459c0.004-2.836,2.31-5.141,5.146-5.145h2.19
		c2.836,0.004,5.14,2.309,5.147,5.145V22.582z M50.443,19.609h-2.517v23.139l2.517,2.576V19.609z M47.408,43.781l-2.322,2.305h4.607
		L47.408,43.781z M46.854,19.609h-2.519v25.715l2.519-2.576V19.609z M38.529,19.609v2.975c0,0.885-0.718,1.601-1.604,1.601
		c-0.886,0-1.604-0.716-1.604-1.601v-2.975H25.088v2.975c0,0.885-0.719,1.601-1.604,1.601c-0.886,0-1.605-0.716-1.605-1.601v-2.975
		h-4.617v26.477h26.004V19.609H38.529z M33.32,27.795c-0.414-0.328-0.899-0.572-1.457-0.733c-0.304-0.082-0.533-0.121-0.69-0.121
		v-1.088h-1.291v1.04c-0.988,0-1.833,0.285-2.538,0.871c-0.748,0.613-1.123,1.416-1.123,2.402c0,0.67,0.15,1.246,0.457,1.719
		c0.306,0.473,0.812,0.885,1.523,1.232c0.317,0.156,0.647,0.27,0.987,0.334c0.341,0.064,0.572,0.123,0.693,0.168v3.334
		c-0.547,0-1.031-0.197-1.451-0.592c-0.381-0.363-0.657-0.83-0.821-1.41l-1.853,0.402c0.23,0.967,0.703,1.738,1.42,2.318
		c0.513,0.412,1.115,0.703,1.804,0.867c0.356,0.088,0.657,0.129,0.901,0.129v1.558h1.291v-1.558c1.012,0,1.881-0.289,2.603-0.867
		c0.811-0.646,1.211-1.514,1.211-2.607c0-1.068-0.381-1.92-1.152-2.553c-0.643-0.525-1.53-0.871-2.661-1.043v-2.988
		c0.512,0.064,0.909,0.256,1.19,0.57c0.158,0.176,0.313,0.461,0.467,0.852l1.793-0.367C34.354,28.889,33.92,28.269,33.32,27.795
		 M28.764,28.894c0.289-0.228,0.662-0.347,1.117-0.347v2.832c-0.443-0.098-0.765-0.211-0.967-0.324
		c-0.422-0.252-0.631-0.617-0.631-1.107C28.283,29.498,28.441,29.15,28.764,28.894 M32.529,36.436
		c-0.32,0.292-0.772,0.484-1.356,0.576v-3.225c0.373,0,0.752,0.121,1.135,0.367c0.466,0.291,0.699,0.664,0.699,1.121
		C33.006,35.758,32.848,36.144,32.529,36.436 M39.051,11.019h-2.19c-0.494,0-0.972,0.065-1.433,0.178
		c0.353,0.246,0.687,0.524,0.989,0.826c0.148-0.013,0.291-0.045,0.443-0.045h2.19c2.838,0.004,5.14,2.309,5.144,5.145v1.262h0.961
		v-1.262C45.152,13.756,42.416,11.021,39.051,11.019 M30.754,17.123v1.262h0.959v-1.262c0.002-1.375,0.555-2.621,1.437-3.545
		c-0.302-0.16-0.625-0.291-0.968-0.371C31.292,14.269,30.756,15.635,30.754,17.123"/>
</g>
</svg>
