<?xml version="1.0" encoding="utf-8"?>
<!-- Generator: Adobe Illustrator 14.0.0, SVG Export Plug-In . SVG Version: 6.00 Build 43363)  -->
<!DOCTYPE svg PUBLIC "-//W3C//DTD SVG 1.1//EN" "http://www.w3.org/Graphics/SVG/1.1/DTD/svg11.dtd">
<svg version="1.1" id="Layer_1" xmlns="http://www.w3.org/2000/svg" xmlns:xlink="http://www.w3.org/1999/xlink" x="0px" y="0px"
	 width="39.262px" height="43.414px" viewBox="0 0 39.262 43.414" enable-background="new 0 0 39.262 43.414" xml:space="preserve">
<g>
	<g>
		<defs>
			<rect id="SVGID_1_" x="0" width="39.262" height="43.414"/>
		</defs>
		<clipPath id="SVGID_2_">
			<use xlink:href="#SVGID_1_"  overflow="visible"/>
		</clipPath>
		<path clip-path="url(#SVGID_2_)" fill="#A8A8A8" d="M0.018,29.189c-0.054,1.468,0.011,2.947,0.21,4.441
			c0.594,4.458,2.201,7.723,2.849,8.893c1.266,0.365,4.721,1.181,9.16,0.785c1.551-0.14,3.054-0.414,4.515-0.81L0.018,29.189z"/>
	</g>
	<g>
		<defs>
			<rect id="SVGID_3_" x="0" width="39.262" height="43.414"/>
		</defs>
		<clipPath id="SVGID_4_">
			<use xlink:href="#SVGID_3_"  overflow="visible"/>
		</clipPath>
		<path clip-path="url(#SVGID_4_)" fill="#A8A8A8" d="M28.717,17.465l-2.692-2.141l-1.831,2.302l2.692,2.141l-1.284,1.613
			l-2.689-2.141l-1.832,2.302l2.69,2.141l-1.282,1.614l-2.691-2.142L18.91,24.27l-0.944,1.188l2.692,2.141l-1.285,1.613
			l-2.691-2.143l-1.832,2.304l2.692,2.142l-1.283,1.613l-2.692-2.143l-1.612-1.283l-2.692-2.141l1.284-1.613l2.69,2.142l1.831-2.303
			l-2.69-2.142l1.283-1.612l2.691,2.141l0.944-1.188l0.887-1.114l-2.691-2.141l1.282-1.613l2.692,2.141l1.831-2.302l-2.691-2.141
			l1.283-1.613l2.692,2.141l1.831-2.302l-2.692-2.142l1.283-1.613l2.69,2.141l1.613,1.284L30,15.853L28.717,17.465z M19.395,1.969
			c-3.95,1.641-7.527,4.297-10.698,7.953l-3.009,3.783c-2.848,3.91-4.633,7.994-5.343,12.212l19.522,15.528
			c3.949-1.641,7.527-4.297,10.697-7.953l3.011-3.782c2.848-3.91,4.633-7.995,5.343-12.212L19.395,1.969z"/>
	</g>
	<g>
		<defs>
			<rect id="SVGID_5_" x="0" width="39.262" height="43.414"/>
		</defs>
		<clipPath id="SVGID_6_">
			<use xlink:href="#SVGID_5_"  overflow="visible"/>
		</clipPath>
		<path clip-path="url(#SVGID_6_)" fill="#A8A8A8" d="M39.244,14.224c0.054-1.467-0.013-2.947-0.21-4.441
			c-0.596-4.458-2.201-7.722-2.85-8.892c-1.266-0.365-4.721-1.181-9.161-0.785c-1.55,0.139-3.054,0.413-4.514,0.808L39.244,14.224z"
			/>
	</g>
</g>
</svg>
